<?xml version="1.0" encoding="utf-8"?>
<!-- Generator: Adobe Adobe Illustrator 24.2.0, SVG Export Plug-In . SVG Version: 6.00 Build 0)  -->
<svg version="1.1" id="Слой_1" xmlns="http://www.w3.org/2000/svg" xmlns:xlink="http://www.w3.org/1999/xlink" x="0px" y="0px"
	 viewBox="0 0 488 479" style="enable-background:new 0 0 488 479;" xml:space="preserve">
<style type="text/css">
	.st0{fill:#4E7FF0;}
	.st1{fill:none;stroke:#26061A;stroke-width:5;stroke-linecap:round;stroke-linejoin:round;stroke-miterlimit:10;}
	.st2{fill:none;stroke:#26061A;stroke-width:4;stroke-linecap:round;stroke-linejoin:round;stroke-miterlimit:10;}
	.st3{fill:#26061A;}
	.st4{fill:#E8E3E3;}
	.st5{fill:#F4F2F2;}
	.st6{fill:none;stroke:#E8E3E3;stroke-width:3;stroke-linecap:round;stroke-linejoin:round;stroke-miterlimit:10;}
	.st7{fill:#E57CA2;}
	.st8{fill:#56D8A3;}
	.st9{fill:#D15D92;}
	.st10{fill:#5A81D1;}
	.st11{fill:none;stroke:#DAE6F7;stroke-width:7;stroke-linecap:round;stroke-linejoin:round;stroke-miterlimit:10;}
	.st12{fill:#FFDAD7;}
	.st13{fill:#FCD2D0;}
	.st14{fill:none;stroke:#BDBBBB;stroke-width:17;stroke-linecap:round;stroke-linejoin:round;stroke-miterlimit:10;}
	.st15{fill:#346FD6;}
	.st16{fill:none;stroke:#BDBBBB;stroke-width:3;stroke-linecap:round;stroke-linejoin:round;stroke-miterlimit:10;}
	.st17{fill:none;stroke:#2DC999;stroke-width:25;stroke-linecap:round;stroke-linejoin:round;stroke-miterlimit:10;}
	.st18{fill:#2257BF;}
	.st19{fill:#446BC1;}
	.st20{fill:none;stroke:#D9E4F4;stroke-width:7;stroke-linecap:round;stroke-linejoin:round;stroke-miterlimit:10;}
	.st21{fill:#FFF8FC;}
	.st22{fill:#260317;}
	.st23{fill:#DD76AC;}
	.st24{fill:#E59AC3;}
	.st25{fill:#EFB9C0;}
	.st26{fill:#F2A5BD;}
	.st27{fill:#62D1A1;}
	.st28{fill:#31A382;}
	.st29{fill:#053318;}
	.st30{fill:#F4C1C6;}
	.st31{fill:#F5F8FF;}
	.st32{fill:none;stroke:#FCD2D0;stroke-width:23;stroke-linecap:round;stroke-linejoin:round;stroke-miterlimit:10;}
	.st33{fill:none;stroke:#2DC999;stroke-width:17;stroke-linecap:round;stroke-linejoin:round;stroke-miterlimit:10;}
	.st34{fill:url(#aPYkbaqZ9_2_);}
	.st35{fill-opacity:0;stroke:#000000;stroke-opacity:0;}
	.st36{fill:url(#b1EaK0aHkr_2_);}
	.st37{fill:url(#gjmua5deM_2_);}
	.st38{fill:#FFFFFF;}
	.st39{fill-opacity:0;}
</style>
<path class="st0" d="M209.9,363.6"/>
<path class="st1" d="M47.7,418.2c13.1,2.9,16.5-12.5,31.1-18.1c37.3-14.5,46.4,52.2,104.9,35.9c25.2-7-5.3-1.7-28.9-21.8
	c-28.4-24.2,38.8-9.1,3.2-31.9"/>
<line class="st2" x1="20.6" y1="426.5" x2="3.7" y2="426.5"/>
<line class="st2" x1="20.6" y1="410.4" x2="3.7" y2="410.4"/>
<path class="st3" d="M45.6,435.7l-19.2,3.1c-7.3,1.2-13.8-4.5-13.8-12.7v-15.6c0-8.2,6.5-13.9,13.8-12.7l19.2,3.1
	c4.8,0.8,8.3,6.1,8.3,11.9v11C53.9,429.6,50.3,434.9,45.6,435.7z"/>
<path class="st4" d="M365.8,421.6c0,0-8.7-17.4-19.1-27.5c-8.4-8.1-14.2-9.5-14.2-9.5s-14,30.6-5.2,39.6
	C340.2,437.2,365.8,421.6,365.8,421.6z"/>
<path class="st5" d="M488,301.8c-1.2,2.5-14.2,8-22.9,17.2c-9.6,10.1-13.8,24.8-18.6,35.2c-5.5,12.1-8.8,24.7-14.5,34.8
	c-0.4,0.7-0.7,1.3-1.1,1.9c-0.1,0.2-0.2,0.4-0.3,0.5c-0.2,0.3-0.3,0.5-0.3,0.5c-1.2,1.8-2.4,3.5-3.8,5c-3.2,3.6-7.2,6.7-12.2,8.8
	c-11.2,4.8-17.6,3.7-26.3,2.7c-7.9-0.9-12.6-3.9-21.2-3.9c-10.8,0-30,3.8-25.3,16.9c1.4,3.8,4.6,4.5,7.1,4.4
	c7.6-0.5,21.1-11.2,16.6,0.2c-3.8,9.8-15.2,14.2-27.4,15.1c-1.6,0.1-3.3,0.2-4.9,0.2l0,0c-2.2,0-4.3-0.1-6.5-0.2
	c-8.1-0.6-15.6-2.5-20.4-5c-26.8-13.5-41.3-14.6-60.8-17.3c-5.3-0.7-0.3-5.5,1.5-10.5c6.9-18.7,0-24.5-22.4-33.2
	c-3.4-1.3-7.2-2.7-11.3-4.2c-20.6-7.5-23.7-34.7-18.7-61.7c3.5-19.4,11.2-38.8,19.4-50.7c4.8-6.9,9.7-11.3,14.1-11.7
	c0.7-0.1,1.3-0.1,1.9,0c22.4,3.8,62.1-3.9,62.1-3.9s26.3,37.8,26.3,20.4c0-5.6,2.8-9.4,7.3-11.7l0,0c1.6-0.8,3.5-1.4,5.5-1.9
	c13-2.7,33.4,2.5,48.8,13.6c12.8,9.2,24.7,17.3,33.9,20.3c4,1.3,7.4,2.3,10.8,3.1c7.3,1.7,14.5,2.5,27,3.2
	c29.4,1.6,33.6,6.8,36.5,11C488.2,301.3,488.2,301.6,488,301.8z"/>
<path class="st4" d="M213,371.2c-20.6-7.5-23.7-34.7-18.7-61.7l6.8-2.7c0,0-15.8,55.9,12.5,64.4C221.6,373.6,217.1,372.7,213,371.2z
	"/>
<path class="st4" d="M278.8,418.4c11,3.2,32.2,20.3,48.1,23.1c-8.1-0.6-15.6-2.5-20.4-5c-26.8-13.5-42.8-15.1-62.3-17.8
	C244.1,418.8,266.3,414.8,278.8,418.4z"/>
<path class="st4" d="M227.8,247.1l-2.8,13.3l-11.3-1.6C218.5,251.9,223.4,247.6,227.8,247.1z"/>
<path class="st4" d="M341.3,420.1c0,0-3.9-54.2-40.9-67.7c0,0,26.8,5.2,45.1,57.6L341.3,420.1z"/>
<path class="st6" d="M378.8,274.6"/>
<path class="st7" d="M426.2,33.4c3,0.2,5.3,2.9,4.8,5.9c-2.8,16.9-9.2,36-22.7,50.8c-30.9,33.6-70.1,47.8-87.7,31.7
	c-17.5-16.1-6.6-56.4,24.3-90s87.6-31.7,87.6-31.7s0.9,7.8,0.5,19.4c-0.1,2.7-1.9,5.1-4.6,5.9c-5.1,1.4-11,4.2-15.4,9.5
	C413.3,34.7,419,33,426.2,33.4z"/>
<g>
	<path class="st8" d="M329.3,351.5c-0.2,3-5.2,73.5-12.2,110c-1.2,6.2-6.6,10.5-12.7,10.5c-0.8,0-1.6-0.1-2.4-0.2
		c-7-1.4-11.6-8.1-10.3-15.1c2.2-11.7,4.3-27.6,6.1-43.5c0.2-2.2,0.5-4.4,0.7-6.7c3.1-29.1,5-56.4,5-56.8c0.5-7.1,6.7-12.5,13.8-12
		C324.5,338.2,329.8,344.4,329.3,351.5z"/>
</g>
<path class="st9" d="M352.9,94.7c0,0,2.2-20.8,6.5-33s18.3-39.6,27.6-47.6C396.3,6,341.2,61,341.2,61l-6.7,12.9L352.9,94.7z"/>
<g>
	<path class="st10" d="M322,470.8c3.7,0,6.4-3.7,5.1-7.1c-3.1-8.2-11.4-14-21.1-14c-9.6,0-17.8,5.7-21,13.7c-1.4,3.6,1.2,7.4,5,7.4
		L322,470.8L322,470.8z"/>
	<line class="st11" x1="288.1" y1="469.1" x2="323.9" y2="469.1"/>
</g>
<path class="st12" d="M349.8,119.7c-17.5-16.1-6.6-56.4,24.3-90C390.4,11.9,414,4.1,432.6,0.6c0-0.4-0.1-0.6-0.1-0.6
	s-56.7-1.9-87.7,31.7c-30.9,33.6-41.8,73.9-24.3,90c8.6,7.9,22.5,8.5,38.1,3C355.4,123.7,352.4,122.1,349.8,119.7z"/>
<path class="st7" d="M156.3,116.5c37.3,26.4,78.7,32,92.4,12.5c13.7-19.4-5.4-56.5-42.7-82.9s-92.4-12.5-92.4-12.5
	S119,90.1,156.3,116.5z"/>
<path class="st9" d="M234.3,93.3c0,0-5.7,6.7-12.2,12.5c-9.6,8.7-24.2,31.8-21.4,13.5c2.8-18.2-19.4-60.7-46.2-74.8
	c-15.1-8-35.3-8.6-39.6-10.3c-0.9-0.4-1.4-0.6-1.4-0.6l0,0c1.2-0.3,28.7-6.9,57.6-1.5L234.3,93.3z"/>
<g>
	<path class="st13" d="M231.1,271.9c-1.8,5.1-5.7,15.1-11.7,24.8c-4.7,7.7-10.7,15.3-17.9,20.2c-4.6,3.1-9.8,5.1-15.4,5.2
		c-0.2,0-0.4,0-0.7,0c-21.7,0-37.4-20.5-45.8-35.1c-2-3.5-3.6-6.6-4.8-9.1c0-0.1-0.1-0.2-0.1-0.2c-0.6-1.3-1.1-2.4-1.5-3.3
		c0-0.1,0-0.1-0.1-0.2c-0.2-0.5-0.4-1-0.5-1.3c-0.3-0.8-0.6-1.6-0.7-2.4c-1.1-6,2.1-12.1,7.9-14.4c6.6-2.7,14.1,0.5,16.8,7.2
		c2.1,5.2,5.3,11.3,9.1,16.9c1,1.6,2.2,3.1,3.3,4.5c5.2,6.7,11.1,11.6,16.4,11.6c0,0,0.1,0,0.2,0c1.5-0.2,3.8-2.2,6.4-5.4
		c2.8-3.4,5.9-8.3,8.8-13.9c2.2-4.3,4.3-9,6-13.8c2.4-6.7,9.8-10.2,16.5-7.8C230,257.8,233.5,265.2,231.1,271.9z"/>
</g>
<path class="st12" d="M248.6,129c-6.7,9.6-20.2,13-36.6,11c3-1.8,5.6-4,7.6-6.8c5.1-7.2,5.7-16.8,2.5-27.3
	c-5.4-18-21.7-38.9-45.2-55.6c-19.3-13.6-43.2-16.5-62-16.1c-0.5,0-0.9,0-1.3,0c0-0.4-0.1-0.6-0.1-0.6l0,0
	c1.2-0.3,28.7-6.9,57.6-1.5c11.9,2.2,24,6.5,34.7,14C243.3,72.5,262.4,109.6,248.6,129z"/>
<path class="st14" d="M143.2,268.3"/>
<path class="st14" d="M220.5,267.8"/>
<g>
	<path class="st15" d="M218.8,299.1c5.6-9.5,10.5-22.3,12.3-27.2c2.4-6.7-1.1-14.1-7.8-16.5c-6.7-2.4-13.4,1.4-16.5,7.8
		c-3.7,7.7-7.5,16.6-10.9,22.3C202.8,291,211.6,297.1,218.8,299.1z"/>
</g>
<path class="st13" d="M384.2,370.8c-0.5,0.3-1.3,0.4-1.9,0.2l-7.3-3c-1-0.4-2.2,0-2.7,0.9l-2.2,4l-1.7,3.1c-0.9,1.6-3.2,1.4-3.9-0.3
	l-3.9-10.4c-0.2-0.4-1.7-4.9-1.8-5.1c-1.6-7.5-3.9-18.8-1.3-37.5c1.2-8.7-0.5-15.9-5.3-22.1c-1.1-1.4-2.3-2.7-3.6-4
	c-0.7-0.7-1.4-1.3-2.2-1.9c-0.7-0.5-1.4-1.1-2.1-1.6c-1.5-1.1-3.1-2.1-4.7-3.1c0,0-0.1,0-0.1-0.1c-11.9-7.1-26.5-10.4-32.8-11.2
	c-7.1-0.9-12.1-7.4-11.2-14.4c0.9-7.1,7.3-12.1,14.4-11.2c1.7,0.2,42.6,5.5,62.7,31.7c9.1,11.8,12.6,25.8,10.4,41.5
	c-2.4,17.3-1.1,26.3-0.7,28.3l0.1,0.5l2.8,13.5C385.4,369.5,384.9,370.4,384.2,370.8z"/>
<path class="st0" d="M274.8,410.8h-1.5c-48.9,0-76.7-49.6-65.8-95.1l14.8-62c5.1-21.3,27.7-35.8,51.4-35.8h0.7
	c23.6,0,46.3,14.4,51.4,35.8l14.8,62C351.5,361.3,323.7,410.8,274.8,410.8z"/>
<g>
	<path class="st12" d="M294.6,72.6c-16.1-13.8-6.4-44,1.8-39.8c1.1,0.6,1.3,2.2,0.3,3.1c-15.1,14.1-0.7,28.5,1,34.8
		C298.3,72.5,296.1,73.8,294.6,72.6z"/>
</g>
<g>
	<path class="st12" d="M285.6,71.6c1.7-11.8,15.4-35.1,23.6-30.7c2.2,1.2,1.5,4.7-1,4.9c-13.1,0.9-14,17.3-17.5,27.1
		C289.6,75.8,285.2,74.7,285.6,71.6z"/>
</g>
<path class="st16" d="M382.1,185.1"/>
<path class="st16" d="M275.1,190.4"/>
<path class="st17" d="M230.8,389.6c0,0-18.8,29.5-34.9,39.6"/>
<path class="st8" d="M340.4,356.5c-3.7,14.6-11.2,27.9-21.9,37.7c-7.6,7-16.9,12.1-27.5,14.8c-4,1-8.3,1.6-12.7,1.8
	c1.2-0.1,2.3-0.2,3.4-0.3c-26.3-2.6-45.7-20.1-55.1-42.8c13,5,28.3,7.9,45.3,7.9h2.1C301.2,375.5,323.9,368.1,340.4,356.5z"/>
<path class="st18" d="M234.3,243.9c0,1.6-0.2,3.4-0.5,5.4c-0.2,1.4-0.5,2.9-0.9,4.4c0,0-9.4,45.4-10.3,62c-1,18.2-2.6,36.1,3.9,51.9
	c-6.7-2.6-12.8-5.7-18.3-9.2c-3.7-13.5-4.1-28.3-0.7-42.6l14.8-62c0.7-2.8,1.3-5.3,2-7.4s1.3-3.9,2-5.4
	C230.8,230.5,234.5,234.4,234.3,243.9z"/>
<path class="st12" d="M371.1,213.3c-6.7,11.6-26.2,28-53.9,36.9c-16.4,5.3-42.4,4.9-60.4,0.6c-1.5-0.4-2.9-0.7-4.3-1.2
	c-27.6-8.3-48.4-14.5-59.8-40.7c-6.4-14.6-4.7-30.1,1.5-41.7c4.4-8.3,6.6-17.7,5.8-27.1l-0.5-6.2c0-8.4,1.3-16.6,3.6-24.2
	c4-13,11.1-24.7,20.6-34.1c14.9-14.9,35.6-24.2,58.4-24.2c45.6,0,82.5,36.9,82.5,82.5v0.3c0,7.7,2.6,15.2,6.9,21.6
	C381,170.3,381.5,195.3,371.1,213.3z"/>
<g>
	<path class="st19" d="M197.3,447.9c2.8,2.4,7.3,1.3,8.5-2.2c2.9-8.3,0.3-18.1-7.2-24.3c-7.4-6.2-17.3-7-24.9-2.9
		c-3.4,1.8-3.9,6.4-0.9,8.9L197.3,447.9z"/>
	<line class="st20" x1="172.3" y1="424.9" x2="199.9" y2="447.8"/>
</g>
<circle class="st21" cx="330.7" cy="130.4" r="13.5"/>
<circle class="st22" cx="325" cy="133.8" r="6.7"/>
<circle class="st21" cx="274.8" cy="143.9" r="13.5"/>
<circle class="st22" cx="268.9" cy="145.7" r="6.7"/>
<g>
	<path class="st23" d="M306.5,226.7c-16-1-27.7-33.7-22.9-36.3c2.2-1.2,2,1.4,3.3,4.4c3.4,7.6,7.5,22.9,19.4,26.5
		c6.3,1.9,12.3-2.3,13.1-0.2C320.6,224.5,310.7,227,306.5,226.7z"/>
</g>
<path class="st9" d="M71.7,457.3c0,0,22.5-6.5,30.2-4.6s32.9-2.8,28.9,4.6c-4,7.4-24.2,11.8-48.4,10.6
	C58.2,466.7,54,461.4,71.7,457.3z"/>
<path class="st24" d="M133.4,470c11.5-1.3,28.8-1.5,23.5,2.9s-24.5,5.3-26.8,6S120.7,471.4,133.4,470z"/>
<g>
	<path class="st25" d="M132.4,272c0.3,0.8,0.5,1.5,0.8,2.1c-0.2-0.5-0.4-1-0.5-1.3c-0.3-0.8-0.6-1.6-0.7-2.4
		C132.1,271,132.2,271.5,132.4,272z"/>
	<path class="st25" d="M156.5,271.8l-12.8,5.8c0,0-1.3,8.7-4.1,9.3c-2-3.5-3.6-6.6-4.8-9.1c5.4,9.8,7.8-6.2,7.8-6.2l11-5l2.9,1.5
		C158.2,268.9,158.1,271.1,156.5,271.8z"/>
</g>
<g>
	<path class="st26" d="M358,175.6c2.5,15.1-11.8,20.3-30,23.3s-33.4,2.8-36-12.3c-2.5-15.1,10.2-29.9,28.4-32.9
		C338.6,150.7,355.4,160.4,358,175.6z"/>
	
		<ellipse transform="matrix(0.9864 -0.1642 0.1642 0.9864 -25.5442 53.4094)" class="st9" cx="310.3" cy="181.2" rx="6.9" ry="5.7"/>
	
		<ellipse transform="matrix(0.9864 -0.1642 0.1642 0.9864 -24.3872 58.0274)" class="st9" cx="338.8" cy="176.5" rx="6.9" ry="5.7"/>
</g>
<g>
	<path class="st27" d="M187.7,235.7l-0.4,1.2l-0.5,1.5l-2.3,7.2l-2.3,7.2l-7.4,23.4c-1,3.1-4.2,4.9-7.5,4.3l-17.2-3.4
		c-1.1-0.2-2.1-0.7-2.9-1.4c-1.5-1.2-2.5-3-2.4-5c0-0.2,0-0.3,0-0.4l3.2-39.4l0.1-1.6l0.1-1.3c0.3-3.3,3.4-5.5,6.8-4.9l28.1,5.5
		C186.6,229.3,188.7,232.6,187.7,235.7z"/>
	<path class="st28" d="M152.3,276.8c-1.5-1.2-2.5-3-2.4-5c0-0.2,0-0.3,0-0.4l3.2-39.4l0.1-1.6l0.1-1.3c0.3-3.3,3.4-5.5,6.8-4.9
		l24.3,4.8c-0.4-0.2-0.8-0.3-1.2-0.4l-28.1-5.5c-3.4-0.7-6.6,1.6-6.8,4.9l-0.1,1.3l-0.1,1.6l-3.2,39.4c0,0.1,0,0.3,0,0.4
		c0,2,0.9,3.8,2.4,5c0.8,0.7,1.8,1.1,2.9,1.4l3.8,0.7C153.4,277.5,152.8,277.2,152.3,276.8z"/>
	<path class="st28" d="M150.3,237c0,0,4.7-2.2,12.1-3.4c8.3-1.3,22.5,1.6,24.5,1.3l-31.3-9l-4.5,0.9L150.3,237z"/>
	<path class="st29" d="M187.8,237l-40-7.9c-0.7-0.1-1.1-0.9-0.8-1.6l1.9-4c1-2.1,2.9-3.3,4.7-3l31.9,6.3c1.8,0.3,3.1,2.2,3.3,4.5
		l0.3,4.5C189.2,236.6,188.5,237.1,187.8,237z"/>
	<path class="st29" d="M186.3,229.1l-34.4-6.8l0,0c0.6-2.9,3.4-4.9,6.4-4.3l23.7,4.7C185,223.3,186.9,226.2,186.3,229.1L186.3,229.1
		z"/>
</g>
<path class="st13" d="M155.5,262.2l-6.8-3.5c-0.9-0.5-1.4-1.6-1-2.5l2.6-7.1c0.6-1.5-0.8-3.1-2.4-2.7c0,0-7,0.7-10.2,3.3
	c-1.4,1.1-4,3.6-5.3,6c-1.7,3.3-2.4,9.2,0,16.3c7.1,20.5,10.3-0.3,10.3-0.3l12.8-5.8C157,265.2,157.1,263,155.5,262.2z"/>
<g>
	<path class="st0" d="M356.3,270c-22.3-15.7-45.1-16.7-46.4-16.8c-7.1-0.9-13.5,4.1-14.4,11.2s4.1,13.5,11.2,14.4
		c5.8,0.7,21.8,5.4,33.2,11.4C343.6,282.2,348.9,275.5,356.3,270z"/>
</g>
<path class="st28" d="M282,410.6c-54.1,4.7-71.7-41.6-73.8-52.1c5.5,3.6,12,6.5,18.7,9C235.9,390.4,255.6,408,282,410.6z"/>
<path class="st0" d="M213,371.2c0.3,0.6,0.6,1.2,0.8,1.7C213.5,372.4,213.3,371.8,213,371.2z"/>
<path class="st0" d="M212,368.9c0.3,0.8,0.7,1.5,1,2.3C212.6,370.4,212.3,369.7,212,368.9z"/>
<path class="st0" d="M213.8,372.9c0.3,0.6,0.6,1.2,0.9,1.8C214.4,374.2,214.1,373.5,213.8,372.9z"/>
<path class="st0" d="M214.8,374.7c0.2,0.4,0.4,0.8,0.7,1.2C215.2,375.6,215,375.2,214.8,374.7z"/>
<path class="st0" d="M215.4,376c0.5,1,1.1,2,1.7,2.9C216.5,377.9,216,376.9,215.4,376z"/>
<path class="st0" d="M208.3,358.3c0,0.2,0.1,0.3,0.1,0.5C208.4,358.7,208.3,358.5,208.3,358.3L208.3,358.3z"/>
<path class="st0" d="M209.9,363.8c0.2,0.7,0.5,1.4,0.8,2.1C210.5,365.2,210.2,364.5,209.9,363.8z"/>
<path class="st0" d="M209.9,363.7L209.9,363.7L209.9,363.7z"/>
<path class="st0" d="M210.7,365.9c0.1,0.4,0.3,0.7,0.4,1.1C211,366.6,210.9,366.3,210.7,365.9z"/>
<path class="st0" d="M211.2,367c0.3,0.7,0.5,1.3,0.8,1.9C211.7,368.3,211.4,367.6,211.2,367z"/>
<path class="st30" d="M256.8,250.8c-1.5-0.4-2.9-0.7-4.3-1.2c-27.6-8.3-48.4-14.5-59.8-40.7c-6.4-14.6-4.7-30.1,1.5-41.7
	c4.4-8.3,6.6-17.7,5.8-27.1l-0.5-6.2c0-8.4,1.3-16.6,3.6-24.2c0,0-1,29.5,7.6,36.2s-7.7,23.9-5.5,41.6c0.8,6.4,1.8,17.1,8.6,26.9
	C223.7,228.7,241.9,242.5,256.8,250.8z"/>
<path class="st18" d="M292.1,254.1c-17.1,1.9-47.4,2.9-59.1-0.5c-3.7-1-6-6.5-8.6-7.4c0.7-2.1,1.3-3.9,2-5.4c2.6,1.1,5.2,2.1,8,3.1
	c5.7,2,11.8,3.8,18.2,5.8c1.4,0.4,2.8,0.9,4.3,1.2C275.5,254.1,284.1,253.7,292.1,254.1z"/>
<path class="st30" d="M233.8,164.3c6.3-0.9,25.1,1.7,23,13.7c-2-0.6-1.4-0.4-4.3-3.7c-2.4-6.4-20.2-3.5-19.2-9.6
	C233.4,164.5,233.6,164.3,233.8,164.3z"/>
<path class="st28" d="M318.5,394.1c-3.8,8.9-14.1,15.5-20.7,19c0.2-2.2,0.5-4.4,0.7-6.7C306,403.6,312.7,399.4,318.5,394.1z"/>
<path class="st25" d="M169,284.6c-0.5,0-1.1,0-1.6-0.1l-17.2-3.4c-3.3-0.7-5.6-3.6-5.4-6.8l0.2-2.2c0.6,2.4,2.6,4.3,5.2,4.9
	l15.6,3.1C166.8,281.7,167.9,283.2,169,284.6z"/>
<path class="st28" d="M160.7,266.7l-12.8,5.8c0,0-0.2,1.4-0.7,3.2c-1.5-1.2-2.5-3-2.4-5l10.6-4.8c1.6-0.7,1.6-2.9,0.1-3.7l-6.8-3.5
	c-0.9-0.5-1.4-1.6-1-2.5l2.6-7.1c0.2-0.5,0.2-1,0-1.4c1.6-0.3,2.8-0.4,2.8-0.4c1.6-0.4,3,1.1,2.4,2.7l-2.6,7.1c-0.4,1,0.1,2.1,1,2.5
	l6.8,3.5C162.3,263.8,162.2,266,160.7,266.7z"/>
<path class="st23" d="M101.9,452.7c-2.7-0.7-7.2-0.3-11.8,0.4c-5.9,1.3-10.7,2.7-10.7,2.7c-17.7,4.1-13.5,9.4,10.7,10.6
	c9.5,0.5,18.4,0.1,25.9-1c7.6-1.9,12.9-4.6,14.8-8.1C134.8,449.9,109.6,454.6,101.9,452.7z"/>
<path class="st4" d="M430.7,391.5c0.1-0.2,0.2-0.4,0.3-0.5C430.8,391.2,430.7,391.4,430.7,391.5z"/>
<path class="st4" d="M488,301.1v0.7c-1.2,2.5-14.2,8-22.9,17.2c-9.6,10.1-13.8,24.8-18.6,35.2c-5.9,12.9-9.2,26.4-15.6,36.8
	c1.6-2.9,5.1-16.2,5.8-29.4c0.9-17.2,3.6-37.1,22.7-50.7C471.9,302.1,488,301.1,488,301.1z"/>
<path class="st30" d="M352.4,273.2c-2.9,4.5-5,13.7-6,21.5c-0.7-0.5-1.4-1.1-2.1-1.6c-1.5-1.1-3.1-2.1-4.7-3.1
	c0.1,0,0.1,0.1,0.2,0.1C342.8,283.7,347,278,352.4,273.2z"/>
<path class="st4" d="M337.8,441.3c-1.6,0.1-3.3,0.2-4.9,0.2C334.8,441.3,336.4,441.2,337.8,441.3z"/>
<path class="st4" d="M424.5,287c-25.8,1-42-10.7-60.9-25.9c-18.1-14.5-36.8-9.4-38.2-9.2l5.5-1.9c13-2.7,33.4,2.5,48.8,13.6
	c12.8,9.2,24.7,17.3,33.9,20.3C417.7,285.2,421.1,286.2,424.5,287z"/>
<path class="st9" d="M185.1,236.5c0,0-3.7,4-2.6,8.6c0.7,3.1,1.1,8.7,0.3,10.3c-0.6,1.3-1.7,1.8-2.6,1.3c-1.5-0.8-2.6-4-0.1-9.7
	c4.7-11.1-11.4-13.8-11.4-13.8L185.1,236.5z"/>
<path class="st30" d="M261.3,143.9c0-7.5,6-13.5,13.5-13.5c6.9,0,12.6,5.2,13.4,11.9c0.1-0.6,0.1-1.1,0.1-1.7
	c0-8.2-6.7-14.9-14.9-14.9c-8.2,0-14.9,6.7-14.9,14.9c0,4.7,2.2,9,5.7,11.7C262.4,149.9,261.3,147,261.3,143.9z"/>
<path class="st30" d="M317.2,130.4c0-7.5,6-13.5,13.5-13.5c7,0,12.8,5.3,13.4,12.1c0-0.5,0.1-0.9,0.1-1.4c0-8.2-6.7-14.9-14.9-14.9
	c-8.2,0-14.9,6.7-14.9,14.9c0,5.4,2.9,10.1,7.2,12.8C318.9,137.9,317.2,134.3,317.2,130.4z"/>
<path class="st26" d="M269.4,111.2c4.9-2.2,13.5-0.3,13.5,3c0,2.6-4.7,6.8-9.4,5.5s-13.7,2.3-13.7-1.3S263.2,114,269.4,111.2z"/>
<path class="st26" d="M310,110.3c-0.7-2.2-1.1-4.7,0.6-9.3c2.2-6,9.9-11,14-9.5c4.2,1.6,2.3,5.6-3.1,8.5s-1.4,7-4.7,10
	C314.2,112.4,311,113.4,310,110.3z"/>
<g>
	<path class="st0" d="M-826.1,363.6"/>
	<path class="st1" d="M-988.3,418.2c13.1,2.9,16.5-12.5,31.1-18.1c37.3-14.5,46.4,52.2,104.9,35.9c25.2-7-5.3-1.7-28.9-21.8
		c-28.4-24.2,38.8-9.1,3.2-31.9"/>
	<line class="st2" x1="-1015.4" y1="426.5" x2="-1032.3" y2="426.5"/>
	<line class="st2" x1="-1015.4" y1="410.4" x2="-1032.3" y2="410.4"/>
	<path class="st3" d="M-990.4,435.7l-19.2,3.1c-7.3,1.2-13.8-4.5-13.8-12.7v-15.6c0-8.2,6.5-13.9,13.8-12.7l19.2,3.1
		c4.8,0.8,8.3,6.1,8.3,11.9v11C-982.1,429.6-985.7,434.9-990.4,435.7z"/>
	<path class="st4" d="M-670.2,421.6c0,0-8.7-17.4-19.1-27.5c-8.4-8.1-14.2-9.5-14.2-9.5s-14,30.6-5.2,39.6
		C-695.8,437.2-670.2,421.6-670.2,421.6z"/>
	<path class="st5" d="M-548,301.8c-1.2,2.5-14.2,8-22.9,17.2c-9.6,10.1-13.8,24.8-18.6,35.2c-5.5,12.1-8.8,24.7-14.5,34.8
		c-0.4,0.7-0.7,1.3-1.1,1.9c-0.1,0.2-0.2,0.4-0.3,0.5c-0.2,0.3-0.3,0.5-0.3,0.5c-1.2,1.8-2.4,3.5-3.8,5c-3.2,3.6-7.2,6.7-12.2,8.8
		c-11.2,4.8-17.6,3.7-26.3,2.7c-7.9-0.9-12.6-3.9-21.2-3.9c-10.8,0-30,3.8-25.3,16.9c1.4,3.8,4.6,4.5,7.1,4.4
		c7.6-0.5,21.1-11.2,16.6,0.2c-3.8,9.8-15.2,14.2-27.4,15.1c-1.6,0.1-3.3,0.2-4.9,0.2l0,0c-2.2,0-4.3-0.1-6.5-0.2
		c-8.1-0.6-15.6-2.5-20.4-5c-26.8-13.5-41.3-14.6-60.8-17.3c-5.3-0.7-0.3-5.5,1.5-10.5c6.9-18.7,0-24.5-22.4-33.2
		c-3.4-1.3-7.2-2.7-11.3-4.2c-20.6-7.5-23.7-34.7-18.7-61.7c3.5-19.4,11.2-38.8,19.4-50.7c4.8-6.9,9.7-11.3,14.1-11.7
		c0.7-0.1,1.3-0.1,1.9,0c22.4,3.8,62.1-3.9,62.1-3.9s26.3,37.8,26.3,20.4c0-5.6,2.8-9.4,7.3-11.7l0,0c1.6-0.8,3.5-1.4,5.5-1.9
		c13-2.7,33.4,2.5,48.8,13.6c12.8,9.2,24.7,17.3,33.9,20.3c4,1.3,7.4,2.3,10.8,3.1c7.3,1.7,14.5,2.5,27,3.2
		c29.4,1.6,33.6,6.8,36.5,11C-547.8,301.3-547.8,301.6-548,301.8z"/>
	<path class="st4" d="M-823,371.2c-20.6-7.5-23.7-34.7-18.7-61.7l6.8-2.7c0,0-15.8,55.9,12.5,64.4
		C-814.4,373.6-818.9,372.7-823,371.2z"/>
	<path class="st4" d="M-757.2,418.4c11,3.2,32.2,20.3,48.1,23.1c-8.1-0.6-15.6-2.5-20.4-5c-26.8-13.5-42.8-15.1-62.3-17.8
		C-791.9,418.8-769.7,414.8-757.2,418.4z"/>
	<path class="st4" d="M-808.2,247.1l-2.8,13.3l-11.3-1.6C-817.5,251.9-812.6,247.6-808.2,247.1z"/>
	<path class="st4" d="M-694.7,420.1c0,0-3.9-54.2-40.9-67.7c0,0,26.8,5.2,45.1,57.6L-694.7,420.1z"/>
	<path class="st6" d="M-657.2,274.6"/>
	<path class="st7" d="M-609.8,33.4c3,0.2,5.3,2.9,4.8,5.9c-2.8,16.9-9.2,36-22.7,50.8c-30.9,33.6-70.1,47.8-87.7,31.7
		c-17.5-16.1-6.6-56.4,24.3-90s87.6-31.7,87.6-31.7s0.9,7.8,0.5,19.4c-0.1,2.7-1.9,5.1-4.6,5.9c-5.1,1.4-11,4.2-15.4,9.5
		C-622.7,34.7-617,33-609.8,33.4z"/>
	<g>
		<path class="st8" d="M-706.7,351.5c-0.2,3-5.2,73.5-12.2,110c-1.2,6.2-6.6,10.5-12.7,10.5c-0.8,0-1.6-0.1-2.4-0.2
			c-7-1.4-11.6-8.1-10.3-15.1c2.2-11.7,4.3-27.6,6.1-43.5c0.2-2.2,0.5-4.4,0.7-6.7c3.1-29.1,5-56.4,5-56.8c0.5-7.1,6.7-12.5,13.8-12
			C-711.5,338.2-706.2,344.4-706.7,351.5z"/>
	</g>
	<path class="st9" d="M-683.1,94.7c0,0,2.2-20.8,6.5-33s18.3-39.6,27.6-47.6C-639.7,6-694.8,61-694.8,61l-6.7,12.9L-683.1,94.7z"/>
	<g>
		<path class="st10" d="M-714,470.8c3.7,0,6.4-3.7,5.1-7.1c-3.1-8.2-11.4-14-21.1-14c-9.6,0-17.8,5.7-21,13.7
			c-1.4,3.6,1.2,7.4,5,7.4L-714,470.8L-714,470.8z"/>
		<line class="st11" x1="-747.9" y1="469.1" x2="-712.1" y2="469.1"/>
	</g>
	<path class="st12" d="M-686.2,119.7c-17.5-16.1-6.6-56.4,24.3-90c16.3-17.8,39.9-25.6,58.5-29.1c0-0.4-0.1-0.6-0.1-0.6
		s-56.7-1.9-87.7,31.7c-30.9,33.6-41.8,73.9-24.3,90c8.6,7.9,22.5,8.5,38.1,3C-680.6,123.7-683.6,122.1-686.2,119.7z"/>
	<path class="st7" d="M-879.7,116.5c37.3,26.4,78.7,32,92.4,12.5c13.7-19.4-5.4-56.5-42.7-82.9c-37.3-26.4-92.4-12.5-92.4-12.5
		S-917,90.1-879.7,116.5z"/>
	<path class="st9" d="M-801.7,93.3c0,0-5.7,6.7-12.2,12.5c-9.6,8.7-24.2,31.8-21.4,13.5c2.8-18.2-19.4-60.7-46.2-74.8
		c-15.1-8-35.3-8.6-39.6-10.3c-0.9-0.4-1.4-0.6-1.4-0.6l0,0c1.2-0.3,28.7-6.9,57.6-1.5L-801.7,93.3z"/>
	<g>
		<path class="st13" d="M-804.9,271.9c-1.8,5.1-5.7,15.1-11.7,24.8c-4.7,7.7-10.7,15.3-17.9,20.2c-4.6,3.1-9.8,5.1-15.4,5.2
			c-0.2,0-0.4,0-0.7,0c-21.7,0-37.4-20.5-45.8-35.1c-2-3.5-3.6-6.6-4.8-9.1c0-0.1-0.1-0.2-0.1-0.2c-0.6-1.3-1.1-2.4-1.5-3.3
			c0-0.1,0-0.1-0.1-0.2c-0.2-0.5-0.4-1-0.5-1.3c-0.3-0.8-0.6-1.6-0.7-2.4c-1.1-6,2.1-12.1,7.9-14.4c6.6-2.7,14.1,0.5,16.8,7.2
			c2.1,5.2,5.3,11.3,9.1,16.9c1,1.6,2.2,3.1,3.3,4.5c5.2,6.7,11.1,11.6,16.4,11.6c0,0,0.1,0,0.2,0c1.5-0.2,3.8-2.2,6.4-5.4
			c2.8-3.4,5.9-8.3,8.8-13.9c2.2-4.3,4.3-9,6-13.8c2.4-6.7,9.8-10.2,16.5-7.8C-806,257.8-802.5,265.2-804.9,271.9z"/>
	</g>
	<path class="st12" d="M-787.4,129c-6.7,9.6-20.2,13-36.6,11c3-1.8,5.6-4,7.6-6.8c5.1-7.2,5.7-16.8,2.5-27.3
		c-5.4-18-21.7-38.9-45.2-55.6c-19.3-13.6-43.2-16.5-62-16.1c-0.5,0-0.9,0-1.3,0c0-0.4-0.1-0.6-0.1-0.6l0,0
		c1.2-0.3,28.7-6.9,57.6-1.5c11.9,2.2,24,6.5,34.7,14C-792.7,72.5-773.6,109.6-787.4,129z"/>
	<path class="st14" d="M-892.8,268.3"/>
	<path class="st14" d="M-815.5,267.8"/>
	<g>
		<path class="st15" d="M-817.2,299.1c5.6-9.5,10.5-22.3,12.3-27.2c2.4-6.7-1.1-14.1-7.8-16.5c-6.7-2.4-13.4,1.4-16.5,7.8
			c-3.7,7.7-7.5,16.6-10.9,22.3C-833.2,291-824.4,297.1-817.2,299.1z"/>
	</g>
	<path class="st13" d="M-651.8,370.8c-0.5,0.3-1.3,0.4-1.9,0.2l-7.3-3c-1-0.4-2.2,0-2.7,0.9l-2.2,4l-1.7,3.1
		c-0.9,1.6-3.2,1.4-3.9-0.3l-3.9-10.4c-0.2-0.4-1.7-4.9-1.8-5.1c-1.6-7.5-3.9-18.8-1.3-37.5c1.2-8.7-0.5-15.9-5.3-22.1
		c-1.1-1.4-2.3-2.7-3.6-4c-0.7-0.7-1.4-1.3-2.2-1.9c-0.7-0.5-1.4-1.1-2.1-1.6c-1.5-1.1-3.1-2.1-4.7-3.1c0,0-0.1,0-0.1-0.1
		c-11.9-7.1-26.5-10.4-32.8-11.2c-7.1-0.9-12.1-7.4-11.2-14.4c0.9-7.1,7.3-12.1,14.4-11.2c1.7,0.2,42.6,5.5,62.7,31.7
		c9.1,11.8,12.6,25.8,10.4,41.5c-2.4,17.3-1.1,26.3-0.7,28.3l0.1,0.5l2.8,13.5C-650.6,369.5-651.1,370.4-651.8,370.8z"/>
	<path class="st0" d="M-761.2,410.8h-1.5c-48.9,0-76.7-49.6-65.8-95.1l14.8-62c5.1-21.3,27.7-35.8,51.4-35.8h0.7
		c23.6,0,46.3,14.4,51.4,35.8l14.8,62C-684.5,361.3-712.3,410.8-761.2,410.8z"/>
	<g>
		<path class="st12" d="M-741.4,72.6c-16.1-13.8-6.4-44,1.8-39.8c1.1,0.6,1.3,2.2,0.3,3.1c-15.1,14.1-0.7,28.5,1,34.8
			C-737.7,72.5-739.9,73.8-741.4,72.6z"/>
	</g>
	<g>
		<path class="st12" d="M-750.4,71.6c1.7-11.8,15.4-35.1,23.6-30.7c2.2,1.2,1.5,4.7-1,4.9c-13.1,0.9-14,17.3-17.5,27.1
			C-746.4,75.8-750.8,74.7-750.4,71.6z"/>
	</g>
	<path class="st16" d="M-653.9,185.1"/>
	<path class="st16" d="M-760.9,190.4"/>
	<path class="st17" d="M-805.2,389.6c0,0-18.8,29.5-34.9,39.6"/>
	<path class="st8" d="M-695.6,356.5c-3.7,14.6-11.2,27.9-21.9,37.7c-7.6,7-16.9,12.1-27.5,14.8c-4,1-8.3,1.6-12.7,1.8
		c1.2-0.1,2.3-0.2,3.4-0.3c-26.3-2.6-45.7-20.1-55.1-42.8c13,5,28.3,7.9,45.3,7.9h2.1C-734.8,375.5-712.1,368.1-695.6,356.5z"/>
	<path class="st18" d="M-801.7,243.9c0,1.6-0.2,3.4-0.5,5.4c-0.2,1.4-0.5,2.9-0.9,4.4c0,0-9.4,45.4-10.3,62
		c-1,18.2-2.6,36.1,3.9,51.9c-6.7-2.6-12.8-5.7-18.3-9.2c-3.7-13.5-4.1-28.3-0.7-42.6l14.8-62c0.7-2.8,1.3-5.3,2-7.4s1.3-3.9,2-5.4
		C-805.2,230.5-801.5,234.4-801.7,243.9z"/>
	<path class="st12" d="M-664.9,213.3c-6.7,11.6-26.2,28-53.9,36.9c-16.4,5.3-42.4,4.9-60.4,0.6c-1.5-0.4-2.9-0.7-4.3-1.2
		c-27.6-8.3-48.4-14.5-59.8-40.7c-6.4-14.6-4.7-30.1,1.5-41.7c4.4-8.3,6.6-17.7,5.8-27.1l-0.5-6.2c0-8.4,1.3-16.6,3.6-24.2
		c4-13,11.1-24.7,20.6-34.1c14.9-14.9,35.6-24.2,58.4-24.2c45.6,0,82.5,36.9,82.5,82.5v0.3c0,7.7,2.6,15.2,6.9,21.6
		C-655,170.3-654.5,195.3-664.9,213.3z"/>
	<g>
		<path class="st19" d="M-838.7,447.9c2.8,2.4,7.3,1.3,8.5-2.2c2.9-8.3,0.3-18.1-7.2-24.3c-7.4-6.2-17.3-7-24.9-2.9
			c-3.4,1.8-3.9,6.4-0.9,8.9L-838.7,447.9z"/>
		<line class="st20" x1="-863.7" y1="424.9" x2="-836.1" y2="447.8"/>
	</g>
	<circle class="st21" cx="-705.3" cy="130.4" r="13.5"/>
	<circle class="st22" cx="-711" cy="133.8" r="6.7"/>
	<circle class="st21" cx="-761.2" cy="143.9" r="13.5"/>
	<circle class="st22" cx="-767.1" cy="145.7" r="6.7"/>
	<g>
		<path class="st23" d="M-729.5,226.7c-16-1-27.7-33.7-22.9-36.3c2.2-1.2,2,1.4,3.3,4.4c3.4,7.6,7.5,22.9,19.4,26.5
			c6.3,1.9,12.3-2.3,13.1-0.2C-715.4,224.5-725.3,227-729.5,226.7z"/>
	</g>
	<path class="st9" d="M-964.3,457.3c0,0,22.5-6.5,30.2-4.6s32.9-2.8,28.9,4.6c-4,7.4-24.2,11.8-48.4,10.6S-982,461.4-964.3,457.3z"
		/>
	<path class="st24" d="M-902.6,470c11.5-1.3,28.8-1.5,23.5,2.9s-24.5,5.3-26.8,6S-915.3,471.4-902.6,470z"/>
	<g>
		<path class="st25" d="M-903.6,272c0.3,0.8,0.5,1.5,0.8,2.1c-0.2-0.5-0.4-1-0.5-1.3c-0.3-0.8-0.6-1.6-0.7-2.4
			C-903.9,271-903.8,271.5-903.6,272z"/>
		<path class="st25" d="M-879.5,271.8l-12.8,5.8c0,0-1.3,8.7-4.1,9.3c-2-3.5-3.6-6.6-4.8-9.1c5.4,9.8,7.8-6.2,7.8-6.2l11-5l2.9,1.5
			C-877.8,268.9-877.9,271.1-879.5,271.8z"/>
	</g>
	<g>
		<path class="st26" d="M-678,175.6c2.5,15.1-11.8,20.3-30,23.3s-33.4,2.8-36-12.3c-2.5-15.1,10.2-29.9,28.4-32.9
			C-697.4,150.7-680.6,160.4-678,175.6z"/>
		
			<ellipse transform="matrix(0.9864 -0.1642 0.1642 0.9864 -39.6065 -116.7064)" class="st9" cx="-725.7" cy="181.2" rx="6.9" ry="5.7"/>
		
			<ellipse transform="matrix(0.9864 -0.1642 0.1642 0.9864 -38.4495 -112.0883)" class="st9" cx="-697.2" cy="176.5" rx="6.9" ry="5.7"/>
	</g>
	<g>
		<path class="st27" d="M-848.3,235.7l-0.4,1.2l-0.5,1.5l-2.3,7.2l-2.3,7.2l-7.4,23.4c-1,3.1-4.2,4.9-7.5,4.3l-17.2-3.4
			c-1.1-0.2-2.1-0.7-2.9-1.4c-1.5-1.2-2.5-3-2.4-5c0-0.2,0-0.3,0-0.4l3.2-39.4l0.1-1.6l0.1-1.3c0.3-3.3,3.4-5.5,6.8-4.9l28.1,5.5
			C-849.4,229.3-847.3,232.6-848.3,235.7z"/>
		<path class="st28" d="M-883.7,276.8c-1.5-1.2-2.5-3-2.4-5c0-0.2,0-0.3,0-0.4l3.2-39.4l0.1-1.6l0.1-1.3c0.3-3.3,3.4-5.5,6.8-4.9
			l24.3,4.8c-0.4-0.2-0.8-0.3-1.2-0.4l-28.1-5.5c-3.4-0.7-6.6,1.6-6.8,4.9l-0.1,1.3l-0.1,1.6l-3.2,39.4c0,0.1,0,0.3,0,0.4
			c0,2,0.9,3.8,2.4,5c0.8,0.7,1.8,1.1,2.9,1.4l3.8,0.7C-882.6,277.5-883.2,277.2-883.7,276.8z"/>
		<path class="st28" d="M-885.7,237c0,0,4.7-2.2,12.1-3.4c8.3-1.3,22.5,1.6,24.5,1.3l-31.3-9l-4.5,0.9L-885.7,237z"/>
		<path class="st29" d="M-848.2,237l-40-7.9c-0.7-0.1-1.1-0.9-0.8-1.6l1.9-4c1-2.1,2.9-3.3,4.7-3l31.9,6.3c1.8,0.3,3.1,2.2,3.3,4.5
			l0.3,4.5C-846.8,236.6-847.5,237.1-848.2,237z"/>
		<path class="st29" d="M-849.7,229.1l-34.4-6.8l0,0c0.6-2.9,3.4-4.9,6.4-4.3l23.7,4.7C-851,223.3-849.1,226.2-849.7,229.1
			L-849.7,229.1z"/>
	</g>
	<path class="st13" d="M-880.5,262.2l-6.8-3.5c-0.9-0.5-1.4-1.6-1-2.5l2.6-7.1c0.6-1.5-0.8-3.1-2.4-2.7c0,0-7,0.7-10.2,3.3
		c-1.4,1.1-4,3.6-5.3,6c-1.7,3.3-2.4,9.2,0,16.3c7.1,20.5,10.3-0.3,10.3-0.3l12.8-5.8C-879,265.2-878.9,263-880.5,262.2z"/>
	<g>
		<path class="st0" d="M-679.7,270c-22.3-15.7-45.1-16.7-46.4-16.8c-7.1-0.9-13.5,4.1-14.4,11.2s4.1,13.5,11.2,14.4
			c5.8,0.7,21.8,5.4,33.2,11.4C-692.4,282.2-687.1,275.5-679.7,270z"/>
	</g>
	<path class="st28" d="M-754,410.6c-54.1,4.7-71.7-41.6-73.8-52.1c5.5,3.6,12,6.5,18.7,9C-800.1,390.4-780.4,408-754,410.6z"/>
	<path class="st0" d="M-823,371.2c0.3,0.6,0.6,1.2,0.8,1.7C-822.5,372.4-822.7,371.8-823,371.2z"/>
	<path class="st0" d="M-824,368.9c0.3,0.8,0.7,1.5,1,2.3C-823.4,370.4-823.7,369.7-824,368.9z"/>
	<path class="st0" d="M-822.2,372.9c0.3,0.6,0.6,1.2,0.9,1.8C-821.6,374.2-821.9,373.5-822.2,372.9z"/>
	<path class="st0" d="M-821.2,374.7c0.2,0.4,0.4,0.8,0.7,1.2C-820.8,375.6-821,375.2-821.2,374.7z"/>
	<path class="st0" d="M-820.6,376c0.5,1,1.1,2,1.7,2.9C-819.5,377.9-820,376.9-820.6,376z"/>
	<path class="st0" d="M-827.7,358.3c0,0.2,0.1,0.3,0.1,0.5C-827.6,358.7-827.7,358.5-827.7,358.3L-827.7,358.3z"/>
	<path class="st0" d="M-826.1,363.8c0.2,0.7,0.5,1.4,0.8,2.1C-825.5,365.2-825.8,364.5-826.1,363.8z"/>
	<path class="st0" d="M-826.1,363.7L-826.1,363.7L-826.1,363.7z"/>
	<path class="st0" d="M-825.3,365.9c0.1,0.4,0.3,0.7,0.4,1.1C-825,366.6-825.1,366.3-825.3,365.9z"/>
	<path class="st0" d="M-824.8,367c0.3,0.7,0.5,1.3,0.8,1.9C-824.3,368.3-824.6,367.6-824.8,367z"/>
	<path class="st30" d="M-779.2,250.8c-1.5-0.4-2.9-0.7-4.3-1.2c-27.6-8.3-48.4-14.5-59.8-40.7c-6.4-14.6-4.7-30.1,1.5-41.7
		c4.4-8.3,6.6-17.7,5.8-27.1l-0.5-6.2c0-8.4,1.3-16.6,3.6-24.2c0,0-1,29.5,7.6,36.2c8.6,6.7-7.7,23.9-5.5,41.6
		c0.8,6.4,1.8,17.1,8.6,26.9C-812.3,228.7-794.1,242.5-779.2,250.8z"/>
	<path class="st18" d="M-743.9,254.1c-17.1,1.9-47.4,2.9-59.1-0.5c-3.7-1-6-6.5-8.6-7.4c0.7-2.1,1.3-3.9,2-5.4
		c2.6,1.1,5.2,2.1,8,3.1c5.7,2,11.8,3.8,18.2,5.8c1.4,0.4,2.8,0.9,4.3,1.2C-760.5,254.1-751.9,253.7-743.9,254.1z"/>
	<path class="st30" d="M-802.2,164.3c6.3-0.9,25.1,1.7,23,13.7c-2-0.6-1.4-0.4-4.3-3.7c-2.4-6.4-20.2-3.5-19.2-9.6
		C-802.6,164.5-802.4,164.3-802.2,164.3z"/>
	<path class="st28" d="M-717.5,394.1c-3.8,8.9-14.1,15.5-20.7,19c0.2-2.2,0.5-4.4,0.7-6.7C-730,403.6-723.3,399.4-717.5,394.1z"/>
	<path class="st25" d="M-867,284.6c-0.5,0-1.1,0-1.6-0.1l-17.2-3.4c-3.3-0.7-5.6-3.6-5.4-6.8l0.2-2.2c0.6,2.4,2.6,4.3,5.2,4.9
		l15.6,3.1C-869.2,281.7-868.1,283.2-867,284.6z"/>
	<path class="st28" d="M-875.3,266.7l-12.8,5.8c0,0-0.2,1.4-0.7,3.2c-1.5-1.2-2.5-3-2.4-5l10.6-4.8c1.6-0.7,1.6-2.9,0.1-3.7
		l-6.8-3.5c-0.9-0.5-1.4-1.6-1-2.5l2.6-7.1c0.2-0.5,0.2-1,0-1.4c1.6-0.3,2.8-0.4,2.8-0.4c1.6-0.4,3,1.1,2.4,2.7l-2.6,7.1
		c-0.4,1,0.1,2.1,1,2.5l6.8,3.5C-873.7,263.8-873.8,266-875.3,266.7z"/>
	<path class="st23" d="M-934.1,452.7c-2.7-0.7-7.2-0.3-11.8,0.4c-5.9,1.3-10.7,2.7-10.7,2.7c-17.7,4.1-13.5,9.4,10.7,10.6
		c9.5,0.5,18.4,0.1,25.9-1c7.6-1.9,12.9-4.6,14.8-8.1C-901.2,449.9-926.4,454.6-934.1,452.7z"/>
	<path class="st4" d="M-605.3,391.5c0.1-0.2,0.2-0.4,0.3-0.5C-605.2,391.2-605.3,391.4-605.3,391.5z"/>
	<path class="st4" d="M-548,301.1v0.7c-1.2,2.5-14.2,8-22.9,17.2c-9.6,10.1-13.8,24.8-18.6,35.2c-5.9,12.9-9.2,26.4-15.6,36.8
		c1.6-2.9,5.1-16.2,5.8-29.4c0.9-17.2,3.6-37.1,22.7-50.7C-564.1,302.1-548,301.1-548,301.1z"/>
	<path class="st30" d="M-683.6,273.2c-2.9,4.5-5,13.7-6,21.5c-0.7-0.5-1.4-1.1-2.1-1.6c-1.5-1.1-3.1-2.1-4.7-3.1
		c0.1,0,0.1,0.1,0.2,0.1C-693.2,283.7-689,278-683.6,273.2z"/>
	<path class="st4" d="M-698.2,441.3c-1.6,0.1-3.3,0.2-4.9,0.2C-701.2,441.3-699.6,441.2-698.2,441.3z"/>
	<path class="st4" d="M-611.5,287c-25.8,1-42-10.7-60.9-25.9c-18.1-14.5-36.8-9.4-38.2-9.2l5.5-1.9c13-2.7,33.4,2.5,48.8,13.6
		c12.8,9.2,24.7,17.3,33.9,20.3C-618.3,285.2-614.9,286.2-611.5,287z"/>
	<path class="st9" d="M-850.9,236.5c0,0-3.7,4-2.6,8.6c0.7,3.1,1.1,8.7,0.3,10.3c-0.6,1.3-1.7,1.8-2.6,1.3c-1.5-0.8-2.6-4-0.1-9.7
		c4.7-11.1-11.4-13.8-11.4-13.8L-850.9,236.5z"/>
	<path class="st30" d="M-774.7,143.9c0-7.5,6-13.5,13.5-13.5c6.9,0,12.6,5.2,13.4,11.9c0.1-0.6,0.1-1.1,0.1-1.7
		c0-8.2-6.7-14.9-14.9-14.9c-8.2,0-14.9,6.7-14.9,14.9c0,4.7,2.2,9,5.7,11.7C-773.6,149.9-774.7,147-774.7,143.9z"/>
	<path class="st30" d="M-718.8,130.4c0-7.5,6-13.5,13.5-13.5c7,0,12.8,5.3,13.4,12.1c0-0.5,0.1-0.9,0.1-1.4
		c0-8.2-6.7-14.9-14.9-14.9s-14.9,6.7-14.9,14.9c0,5.4,2.9,10.1,7.2,12.8C-717.1,137.9-718.8,134.3-718.8,130.4z"/>
	<path class="st26" d="M-766.6,111.2c4.9-2.2,13.5-0.3,13.5,3c0,2.6-4.7,6.8-9.4,5.5c-4.7-1.3-13.7,2.3-13.7-1.3
		S-772.8,114-766.6,111.2z"/>
	<path class="st26" d="M-726,110.3c-0.7-2.2-1.1-4.7,0.6-9.3c2.2-6,9.9-11,14-9.5c4.2,1.6,2.3,5.6-3.1,8.5c-5.4,2.9-1.4,7-4.7,10
		C-721.8,112.4-725,113.4-726,110.3z"/>
	<g>
		<path class="st31" d="M-761.9,292.8c11.1,0,20,9,20,20c0,11.1-9,20-20,20c-11.1,0-20-9-20-20C-782,301.8-773,292.8-761.9,292.8
			 M-761.9,282.2c-17,0-30.7,13.7-30.7,30.7c0,16.9,13.7,30.7,30.7,30.7s30.7-13.7,30.7-30.7C-731.3,295.9-745,282.2-761.9,282.2
			L-761.9,282.2z"/>
	</g>
</g>
<image style="overflow:visible;" width="750" height="1000" xlink:href="CAFE7AFEB4C150D6.png"  transform="matrix(0.3196 0 0 0.3196 -154.0803 -423.6427)">
</image>
<image style="overflow:visible;" width="688" height="1044" xlink:href="CAFE7AFEB4C150D1.png"  transform="matrix(0.3309 0 0 0.3309 114.2185 -423.6427)">
</image>
<image style="overflow:visible;" width="324" height="500" xlink:href="CAFE7AFEB4C150D0.png"  transform="matrix(0.696 0 0 0.696 357.5197 -424.912)">
</image>
<image style="overflow:visible;" width="600" height="922" xlink:href="CAFE7AFEB4C150DF.png"  transform="matrix(0.3418 0 0 0.3418 598.6644 -421.4116)">
</image>
<image style="overflow:visible;" width="398" height="565" xlink:href="CAFE7AFEB4C150DE.png"  transform="matrix(0.6826 0 0 0.6826 661.5114 -51.6494)">
</image>
<g>
	<path class="st4" d="M1126.3-288.6c0,0-7.9-17.8-17.9-28.3c-8-8.5-13.8-10.1-13.8-10.1s-15.3,30-6.9,39.3
		C1100.1-274.2,1126.3-288.6,1126.3-288.6z"/>
	<path class="st5" d="M1253.6-403.1c-1.3,2.4-14.5,7.4-23.6,16.2c-10,9.7-14.8,24.2-20.1,34.4c-6,11.9-9.8,24.3-16,34.1
		c-0.4,0.7-0.8,1.3-1.2,1.9c-0.1,0.2-0.2,0.4-0.3,0.5c-0.2,0.3-0.3,0.5-0.3,0.5c-1.3,1.7-2.5,3.4-4,4.8c-3.4,3.5-7.5,6.4-12.6,8.3
		c-11.4,4.3-17.7,2.9-26.4,1.6c-7.9-1.2-12.4-4.4-21-4.8c-10.8-0.5-30.1,2.5-26,15.8c1.2,3.9,4.4,4.7,6.9,4.7
		c7.6-0.2,21.6-10.3,16.6,0.9c-4.2,9.6-15.8,13.5-28,13.9c-1.6,0-3.3,0.1-4.9,0l0,0c-2.2-0.1-4.3-0.3-6.5-0.5
		c-8.1-0.9-15.5-3.2-20.2-5.9c-26.2-14.6-40.6-16.4-60-19.9c-5.3-0.9-0.1-5.5,1.9-10.4c7.7-18.4,1-24.5-21-34.1
		c-3.3-1.4-7.1-3-11.1-4.7c-20.3-8.4-22.2-35.7-16-62.4c4.3-19.2,12.8-38.3,21.5-49.8c5.1-6.7,10.2-10.9,14.6-11.1
		c0.7-0.1,1.3,0,1.9,0.1c22.2,4.8,62.2-1.2,62.2-1.2s24.7,38.9,25.4,21.5c0.2-5.6,3.2-9.3,7.8-11.4l0,0c1.6-0.7,3.6-1.2,5.6-1.7
		c13.1-2.1,33.3,3.9,48.2,15.7c12.4,9.7,23.9,18.3,33,21.7c3.9,1.5,7.3,2.6,10.7,3.6c7.2,2,14.4,3.1,26.8,4.4
		c29.3,2.9,33.3,8.2,36,12.5C1253.8-403.6,1253.8-403.3,1253.6-403.1z"/>
	<path class="st4" d="M975.8-345.5c-20.3-8.4-22.2-35.7-16-62.4l6.9-2.4c0,0-18.2,55.2,9.7,64.9
		C984.3-342.8,979.9-343.9,975.8-345.5z"/>
	<path class="st4" d="M1039.6-295.6c10.9,3.7,31.3,21.7,47.1,25.1c-8.1-0.9-15.5-3.2-20.2-5.9c-26.2-14.6-42.1-16.9-61.5-20.4
		C1004.9-296.6,1027.2-299.7,1039.6-295.6z"/>
	<path class="st4" d="M995.9-468.9l-3.4,13.2l-11.2-2.1C986.4-464.5,991.5-468.6,995.9-468.9z"/>
	<path class="st4" d="M1101.9-291.2c0,0-1.6-54.3-38-69.4c0,0,26.6,6.3,42.6,59.5L1101.9-291.2z"/>
	<path class="st6" d="M1145.6-435"/>
	<path class="st7" d="M1230-646.4c2.9,0.9,4.5,4.1,3.3,6.9c-6.7,15.8-17.4,32.8-34,44c-37.9,25.4-79.4,30-92.7,10.2
		c-13.2-19.8,6.9-56.4,44.8-81.7s92.6-10.2,92.6-10.2s-1,7.8-4.1,19c-0.7,2.6-3,4.5-5.9,4.7c-5.3,0.2-11.7,1.5-17.2,5.6
		C1217.2-648.2,1223.1-648.5,1230-646.4z"/>
	<g>
		<path class="st8" d="M1092.9-360.2c-0.3,3-8.3,73.2-16.9,109.4c-1.5,6.1-7,10.2-13.1,9.9c-0.8,0-1.6-0.2-2.4-0.3
			c-6.9-1.7-11.2-8.6-9.6-15.5c2.7-11.6,5.5-27.4,8-43.2c0.3-2.2,0.7-4.4,1-6.7c4.3-28.9,7.4-56.1,7.4-56.5
			c0.8-7.1,7.2-12.2,14.3-11.4C1088.6-373.7,1093.7-367.3,1092.9-360.2z"/>
	</g>
	<path class="st9" d="M1144.3-604.1c0,0,7-19.7,14.1-30.5c7.1-10.8,27.1-34.2,38-39.8c10.9-5.7-55.6,34.8-55.6,34.8l-9.5,11
		L1144.3-604.1z"/>
	<g>
		<path class="st10" d="M1080.5-241.4c3.7,0.2,6.6-3.4,5.4-6.9c-2.7-8.3-10.8-14.5-20.5-14.9c-9.6-0.4-18,4.9-21.6,12.8
			c-1.6,3.5,0.9,7.4,4.7,7.6L1080.5-241.4L1080.5-241.4z"/>
		<line class="st11" x1="1046.7" y1="-244.5" x2="1082.5" y2="-243"/>
	</g>
	<path class="st12" d="M1135.4-580.5c-13.2-19.8,6.9-56.4,44.8-81.7c20-13.5,44.8-15.5,63.7-14.5c0.1-0.4,0-0.6,0-0.6
		s-54.7-15.2-92.7,10.2c-37.9,25.4-58,62-44.8,81.7c6.5,9.7,19.9,13.6,36.3,11.9C1139.9-575.3,1137.4-577.5,1135.4-580.5z"/>
	<path class="st7" d="M948.1-629.2c30,34.4,69,49.6,86.9,33.9c17.9-15.6,8.1-56.2-22-90.6c-30-34.4-86.9-33.9-86.9-33.9
		S918.1-663.6,948.1-629.2z"/>
	<path class="st9" d="M1029.4-633.3c0,0-7.1,5.2-14.8,9.3c-11.4,6.2-31,25.2-24,8.1c7-17-4.6-63.6-27.3-83.6
		c-12.8-11.3-32.3-16.7-36.1-19.3c-0.8-0.6-1.2-0.9-1.2-0.9l0,0c1.2,0,29.5,0.1,56.3,12.1L1029.4-633.3z"/>
	<path class="st12" d="M1034.9-595.3c-8.8,7.8-22.7,7.9-38.2,2.1c3.3-1,6.4-2.6,9-4.8c6.7-5.8,9.5-15,8.9-25.9
		c-1-18.8-11.9-42.9-30.8-64.7c-15.6-17.8-38.1-26.2-56.5-30.2c-0.5-0.1-0.9-0.2-1.3-0.3c0.1-0.4,0-0.6,0-0.6l0,0
		c1.2,0,29.5,0.1,56.3,12.1c11,4.9,21.8,12,30.4,21.8C1043-651.4,1052.9-610.9,1034.9-595.3z"/>
	<path class="st14" d="M987.7-448.5"/>
	<path class="st32" d="M1019.4-461.6c-11-2.9-22.9,2.6-30.7,10.9c-7.8,8.3-12.2,19.2-16.2,29.8c-9.2,24.7-16.8,50-22.9,75.6"/>
	<path class="st0" d="M1021.3-305l-1.5-0.3c-48-9.5-65.6-63.5-46.1-106.1l26.6-57.9c9.1-19.9,34.1-29.7,57.4-25.1l0.7,0.1
		c23.2,4.6,42.6,23.1,43.5,45.1l2.5,63.7C1106.1-338.6,1069.2-295.5,1021.3-305z"/>
	<g>
		<path class="st12" d="M1092.9-639.3c-12.4-17.2,4.1-44.3,11.1-38.3c0.9,0.8,0.7,2.4-0.4,3.1c-18,10.1-7.4,27.5-7.2,34.1
			C1096.5-638.5,1094.1-637.7,1092.9-639.3z"/>
	</g>
	<g>
		<path class="st12" d="M1084.4-642.4c4.4-11.1,23.2-30.5,30.2-24.3c1.9,1.7,0.4,4.9-2.1,4.5c-12.9-2.2-17.7,13.5-23.4,22.2
			C1087.3-637.3,1083.3-639.4,1084.4-642.4z"/>
	</g>
	<path class="st16" d="M1151.4-509.3"/>
	<path class="st16" d="M1046.2-529.4"/>
	<path class="st33" d="M992.8-326.4c0,0-15.3,24.7-31.3,33.3"/>
	<path class="st8" d="M1096.2-345.5c-6.5,13.6-16.4,25.2-28.8,32.7c-8.8,5.4-18.9,8.6-29.8,9.2c-4.1,0.2-8.5,0-12.8-0.7
		c1.2,0.1,2.3,0.3,3.4,0.4c-25.3-7.7-40.9-28.6-45.7-52.7c11.8,7.4,26.2,13.2,42.9,16.5l2.1,0.4
		C1054-334.5,1077.7-337.3,1096.2-345.5z"/>
	<path class="st12" d="M1134.1-484.5c-9.2,9.7-32.1,21-61.1,23.2c-17.2,1.3-42.4-5.2-58.8-13.6c-1.4-0.7-2.7-1.4-3.9-2.2
		c-24.9-14.6-43.6-25.5-48.5-53.6c-2.8-15.7,2.5-30.4,11.3-40.2c6.2-7,10.6-15.6,12-25l1-6.1c2-8.2,5.2-15.8,9.2-22.7
		c6.9-11.7,16.6-21.4,28-28.3c18-11,40.3-15.1,62.5-9.8c44.3,10.7,71.5,55.3,60.8,99.6l-0.1,0.3c-1.8,7.5-1.1,15.4,1.6,22.6
		C1153.9-524,1148.5-499.6,1134.1-484.5z"/>
	<g>
		<path class="st19" d="M956.9-269.6c2.7,2.5,7.2,1.6,8.6-1.8c3.3-8.2,1.1-18.1-6.2-24.6c-7.1-6.5-17-7.7-24.8-4
			c-3.5,1.7-4.2,6.2-1.3,8.9L956.9-269.6z"/>
		<line class="st20" x1="932.9" y1="-293.6" x2="959.5" y2="-269.6"/>
	</g>
	<circle class="st21" cx="1114.4" cy="-574.6" r="13.5"/>
	
		<ellipse transform="matrix(0.2354 -0.9719 0.9719 0.2354 1403.6925 639.0599)" class="st22" cx="1108" cy="-572.6" rx="6.7" ry="6.7"/>
	<circle class="st21" cx="1056.9" cy="-574.6" r="13.5"/>
	
		<ellipse transform="matrix(0.2354 -0.9719 0.9719 0.2354 1361.459 582.0912)" class="st22" cx="1050.7" cy="-574.3" rx="6.7" ry="6.7"/>
	<g>
		<path class="st23" d="M1068.2-486.7c-15.3-4.7-19-39.3-13.7-40.7c2.4-0.6,1.6,1.8,2.2,5.1c1.5,8.2,1.9,24,12.6,30.3
			c5.7,3.3,12.5,0.7,12.8,2.9C1082.4-485.5,1072.2-485.4,1068.2-486.7z"/>
	</g>
	<g>
		<path class="st26" d="M1130.2-524.2c-1.1,15.3-16.2,17-34.6,15.6c-18.4-1.4-33.1-5.1-32.1-20.4c1.1-15.3,17-26.7,35.3-25.3
			C1117.3-553,1131.3-539.6,1130.2-524.2z"/>
		
			<ellipse transform="matrix(7.263985e-02 -0.9974 0.9974 7.263985e-02 1532.5475 588.1691)" class="st9" cx="1082.6" cy="-530" rx="5.7" ry="6.9"/>
		
			<ellipse transform="matrix(7.263985e-02 -0.9974 0.9974 7.263985e-02 1557.1198 618.905)" class="st9" cx="1111.4" cy="-527.9" rx="5.7" ry="6.9"/>
	</g>
	<path class="st0" d="M975.8-345.5c0.3,0.6,0.5,1.2,0.7,1.7C976.3-344.3,976.1-344.9,975.8-345.5z"/>
	<path class="st0" d="M974.9-347.9c0.3,0.8,0.6,1.5,0.9,2.3C975.5-346.3,975.2-347.1,974.9-347.9z"/>
	<path class="st0" d="M973.1-353.1c0.2,0.7,0.4,1.4,0.7,2.1C973.6-351.6,973.3-352.3,973.1-353.1z"/>
	<path class="st0" d="M973.1-353.2L973.1-353.2L973.1-353.2z"/>
	<path class="st30" d="M1014.2-475c-1.4-0.7-2.7-1.4-3.9-2.2c-24.9-14.6-43.6-25.5-48.5-53.6c-2.8-15.7,2.5-30.4,11.3-40.2
		c6.2-7,10.6-15.6,12-25l1-6.1c2-8.2,5.2-15.8,9.2-22.7c0,0-7.9,28.4-1.1,37s-13.1,21.4-15.1,39.1c-0.7,6.4-2.3,17,2,28.2
		C987.2-504.2,1001.7-486.5,1014.2-475z"/>
	<path class="st30" d="M1012.2-564.5c6.3,0.6,24,7.6,19.1,18.7c-1.8-1.1-1.3-0.7-3.3-4.6c-0.8-6.8-18.8-8.2-16.4-13.9
		C1011.8-564.4,1012-564.5,1012.2-564.5z"/>
	<path class="st28" d="M1080.3-318.1c-4.2,8.7-14.7,14.9-21.5,18.1c0.3-2.2,0.7-4.4,1-6.7C1067.4-309.2,1074.2-313.1,1080.3-318.1z"
		/>
	<path class="st4" d="M1192.5-315.9c0.1-0.2,0.2-0.4,0.3-0.5C1192.6-316.2,1192.5-316,1192.5-315.9z"/>
	<path class="st4" d="M1253.6-403.8l0,0.7c-1.3,2.4-14.5,7.4-23.6,16.2c-10,9.7-14.8,24.2-20.1,34.4c-6.4,12.6-10.3,26-17.2,36.1
		c1.7-2.8,5.8-16,7.1-29.1c1.6-17.1,5.2-36.9,24.8-49.7C1237.5-403.5,1253.6-403.8,1253.6-403.8z"/>
	<path class="st4" d="M1097.5-270.2c-1.6,0-3.3,0.1-4.9,0C1094.5-270.3,1096.1-270.3,1097.5-270.2z"/>
	<path class="st4" d="M1190.7-420.6c-25.8-0.1-41.5-12.5-59.7-28.5c-17.5-15.3-36.4-11-37.8-10.8l5.6-1.7
		c13.1-2.1,33.3,3.9,48.2,15.7c12.4,9.7,23.9,18.3,33,21.7C1184-422.7,1187.4-421.6,1190.7-420.6z"/>
	<path class="st30" d="M1043.7-577.8c1.8-7.3,9-11.7,16.3-9.9c6.7,1.6,11,8,10.2,14.7c0.2-0.6,0.4-1,0.5-1.6c1.9-8-3-16.1-11-18
		c-8-1.9-16.1,3-18,11c-1.1,4.6,0,9.3,2.8,12.7C1043.4-571.7,1043-574.8,1043.7-577.8z"/>
	<path class="st30" d="M1101.2-577.8c1.8-7.3,9-11.7,16.3-9.9c6.8,1.6,11.2,8.2,10.2,14.9c0.1-0.5,0.3-0.9,0.4-1.3
		c1.9-8-3-16.1-11-18c-8-1.9-16.1,3-18,11c-1.3,5.2,0.4,10.5,4,14.1C1101.1-570.1,1100.3-574,1101.2-577.8z"/>
	<path class="st26" d="M1059.3-607.7c5.3-1,13.2,2.9,12.4,6.1c-0.6,2.5-6.2,5.5-10.4,3.1c-4.3-2.4-13.9-1-13-4.5
		C1049.1-606.4,1052.6-606.4,1059.3-607.7z"/>
	<path class="st26" d="M1099-599c-0.2-2.3,0-4.8,2.8-8.9c3.6-5.3,12.2-8.4,15.8-5.9c3.7,2.5,0.9,6-5,7.5c-5.9,1.5-3,6.5-6.9,8.6
		C1102.6-596,1099.2-595.7,1099-599z"/>
	<g>
		<path class="st31" d="M1040.2-421.2c11.1,0.5,19.6,9.8,19.1,20.8c-0.5,11.1-9.8,19.6-20.8,19.1c-11.1-0.5-19.6-9.8-19.1-20.8
			C1019.8-413.1,1029.1-421.7,1040.2-421.2 M1040.7-431.8c-17-0.7-31.3,12.4-32,29.4c-0.7,16.9,12.4,31.3,29.4,32
			c17,0.7,31.3-12.4,32-29.4C1070.7-416.8,1057.6-431.1,1040.7-431.8L1040.7-431.8z"/>
	</g>
	<path class="st32" d="M811.7-524.5c-10-13.9-10.6-33.9-1.5-48.4c8.1-12.8,22-20.3,34.4-29c12.4-8.6,24.6-20.5,25.6-35.5"/>
	<path class="st32" d="M1084.7-432.1c55.6-12,85.9-68.4,112.9-117.8"/>
	<g>
		<path class="st13" d="M872.3-672.8c0.2-1.1,0.3-2.1,0.3-2.3l1.3-11c0.2-1.8-1.8-3.1-3.3-2l-2.9,2l-3.8,2.6
			c-0.9,0.6-2.1,0.4-2.8-0.4l-5.1-6c-0.4-0.5-1.2-0.7-1.8-0.7c-0.8,0-1.7,0.6-1.9,1.5l-3.7,13.3l0,0.1L872.3-672.8z"/>
	</g>
</g>
<g>
	<g>
		
			<linearGradient id="aPYkbaqZ9_2_" gradientUnits="userSpaceOnUse" x1="-218.5553" y1="441.4856" x2="-218.5553" y2="357.6456" gradientTransform="matrix(1 0 0 -1 0 509.8392)">
			<stop  offset="0" style="stop-color:#123DED"/>
			<stop  offset="1" style="stop-color:#6669F8"/>
		</linearGradient>
		<path id="aPYkbaqZ9" class="st34" d="M-260.9,142.9c0,5.2,4.1,9.3,9.3,9.3c6.6,0,59.5,0,66.2,0c5.2,0,9.3-4.1,9.3-9.3
			c0-6.5,0-58.7,0-65.2c0-5.2-4.3-9.3-9.3-9.3c-13.2,0-59.5,0-66.2,0c-5.2,0-9.3,4.1-9.3,9.3C-260.9,84.2-260.9,136.4-260.9,142.9z"
			/>
	</g>
	<g>
		<g>
			<path id="aPYkbaqZ9_1_" class="st35" d="M-260.9,142.9c0,5.2,4.1,9.3,9.3,9.3c6.6,0,59.5,0,66.2,0c5.2,0,9.3-4.1,9.3-9.3
				c0-6.5,0-58.7,0-65.2c0-5.2-4.3-9.3-9.3-9.3c-13.2,0-59.5,0-66.2,0c-5.2,0-9.3,4.1-9.3,9.3C-260.9,84.2-260.9,136.4-260.9,142.9z
				"/>
		</g>
	</g>
</g>
<g>
	<g>
		
			<linearGradient id="b1EaK0aHkr_2_" gradientUnits="userSpaceOnUse" x1="-313.4823" y1="441.4856" x2="-313.4823" y2="357.6456" gradientTransform="matrix(1 0 0 -1 0 509.8392)">
			<stop  offset="0" style="stop-color:#113CEC"/>
			<stop  offset="1" style="stop-color:#6669F8"/>
		</linearGradient>
		<path id="b1EaK0aHkr" class="st36" d="M-355.9,142.9c0,5.2,4.1,9.3,9.3,9.3c6.6,0,59.5,0,66.1,0c5.2,0,9.3-4.1,9.3-9.3
			c0-6.5,0-58.7,0-65.2c0.2-5.2-4.1-9.3-9.1-9.3c-13.3,0-59.7,0-66.3,0c-5.2,0-9.3,4.1-9.3,9.3C-355.9,84.2-355.9,136.4-355.9,142.9
			z"/>
	</g>
	<g>
		<g>
			<path id="b1EaK0aHkr_1_" class="st35" d="M-355.9,142.9c0,5.2,4.1,9.3,9.3,9.3c6.6,0,59.5,0,66.1,0c5.2,0,9.3-4.1,9.3-9.3
				c0-6.5,0-58.7,0-65.2c0.2-5.2-4.1-9.3-9.1-9.3c-13.3,0-59.7,0-66.3,0c-5.2,0-9.3,4.1-9.3,9.3
				C-355.9,84.2-355.9,136.4-355.9,142.9z"/>
		</g>
	</g>
</g>
<g>
	<g>
		
			<linearGradient id="gjmua5deM_2_" gradientUnits="userSpaceOnUse" x1="-408.6953" y1="441.4856" x2="-408.6953" y2="357.6456" gradientTransform="matrix(1 0 0 -1 0 509.8392)">
			<stop  offset="0" style="stop-color:#113CEC"/>
			<stop  offset="1" style="stop-color:#676AF9"/>
		</linearGradient>
		<path id="gjmua5deM" class="st37" d="M-451.1,142.9c0,5.2,4.1,9.3,9.3,9.3c6.6,0,59.5,0,66.1,0c5.2,0,9.3-4.1,9.3-9.3
			c0-6.5,0-58.7,0-65.2c0-5.2-4.1-9.3-9.3-9.3c-13.2,0-59.5,0-66.1,0c-5.2,0-9.3,4.1-9.3,9.3C-451.1,84.2-451.1,136.4-451.1,142.9z"
			/>
	</g>
	<g>
		<g>
			<path id="gjmua5deM_1_" class="st35" d="M-451.1,142.9c0,5.2,4.1,9.3,9.3,9.3c6.6,0,59.5,0,66.1,0c5.2,0,9.3-4.1,9.3-9.3
				c0-6.5,0-58.7,0-65.2c0-5.2-4.1-9.3-9.3-9.3c-13.2,0-59.5,0-66.1,0c-5.2,0-9.3,4.1-9.3,9.3C-451.1,84.2-451.1,136.4-451.1,142.9z
				"/>
		</g>
	</g>
</g>
<g>
	<g>
		<path id="b1EIl6r6RT" class="st38" d="M-415.7,119v14.9c-8.8,0-13.7,0-14.7,0c0-28.4,0-44.2,0-47.3c15.5,0,24.2,0,25.9,0
			c5.4,0,9.7,1.5,12.9,4.7c3.2,3.2,4.7,6.9,4.7,11.5c0,3.7-0.9,6.7-2.6,9.1c-1.7,2.4-3.7,4.1-6.1,5.2c0.6,1.1,3.5,6.7,8.8,16.8
			c-1.1,0-6.7,0-16.8,0c-0.4-1-2.7-6-6.7-14.9H-415.7z M-403.6,100c-0.9-0.6-2-0.9-3.3-0.9c-0.6,0-3.6,0-8.9,0c0,0.5,0,3,0,7.5
			c5.4,0,8.3,0,8.9,0c1.6-0.2,2.7-0.6,3.3-0.9c0.9-0.6,1.3-1.5,1.3-2.8C-402.3,101.7-402.6,100.8-403.6,100z"/>
	</g>
	<g>
		<g>
			<path id="b1EIl6r6RT_1_" class="st35" d="M-415.7,119v14.9c-8.8,0-13.7,0-14.7,0c0-28.4,0-44.2,0-47.3c15.5,0,24.2,0,25.9,0
				c5.4,0,9.7,1.5,12.9,4.7c3.2,3.2,4.7,6.9,4.7,11.5c0,3.7-0.9,6.7-2.6,9.1c-1.7,2.4-3.7,4.1-6.1,5.2c0.6,1.1,3.5,6.7,8.8,16.8
				c-1.1,0-6.7,0-16.8,0c-0.4-1-2.7-6-6.7-14.9H-415.7z M-403.6,100c-0.9-0.6-2-0.9-3.3-0.9c-0.6,0-3.6,0-8.9,0c0,0.5,0,3,0,7.5
				c5.4,0,8.3,0,8.9,0c1.6-0.2,2.7-0.6,3.3-0.9c0.9-0.6,1.3-1.5,1.3-2.8C-402.3,101.7-402.6,100.8-403.6,100z"/>
		</g>
	</g>
	<g>
		<g>
			<path id="a2XuBigavC" class="st38" d="M-417.4,120.1h-20v-11.7h20V120.1z"/>
		</g>
		<g>
			<g>
				<path id="a2XuBigavC_1_" class="st35" d="M-417.4,120.1h-20v-11.7h20V120.1z"/>
			</g>
		</g>
	</g>
</g>
<g>
	<g>
		<path id="b1EIl6r6RT_5_" class="st38" d="M270.6,322.6v14.9c-8.8,0-13.7,0-14.7,0c0-28.4,0-44.2,0-47.3c15.5,0,24.2,0,25.9,0
			c5.4,0,9.7,1.5,12.9,4.7c3.2,3.2,4.7,6.9,4.7,11.6c0,3.7-0.9,6.7-2.6,9.1c-1.7,2.4-3.7,4.1-6.1,5.2c0.6,1.1,3.5,6.7,8.8,16.8
			c-1.1,0-6.7,0-16.8,0c-0.4-1-2.7-6-6.7-14.9H270.6z M282.7,303.6c-0.9-0.6-2-0.9-3.3-0.9c-0.6,0-3.6,0-8.9,0c0,0.5,0,3,0,7.4
			c5.4,0,8.3,0,8.9,0c1.6-0.2,2.7-0.6,3.3-0.9c0.9-0.6,1.3-1.5,1.3-2.8C284,305.3,283.6,304.4,282.7,303.6z"/>
	</g>
	<g>
		<g>
			<path id="b1EIl6r6RT_2_" class="st35" d="M270.6,322.6v14.9c-8.8,0-13.7,0-14.7,0c0-28.4,0-44.2,0-47.3c15.5,0,24.2,0,25.9,0
				c5.4,0,9.7,1.5,12.9,4.7c3.2,3.2,4.7,6.9,4.7,11.6c0,3.7-0.9,6.7-2.6,9.1c-1.7,2.4-3.7,4.1-6.1,5.2c0.6,1.1,3.5,6.7,8.8,16.8
				c-1.1,0-6.7,0-16.8,0c-0.4-1-2.7-6-6.7-14.9H270.6z M282.7,303.6c-0.9-0.6-2-0.9-3.3-0.9c-0.6,0-3.6,0-8.9,0c0,0.5,0,3,0,7.4
				c5.4,0,8.3,0,8.9,0c1.6-0.2,2.7-0.6,3.3-0.9c0.9-0.6,1.3-1.5,1.3-2.8C284,305.3,283.6,304.4,282.7,303.6z"/>
		</g>
	</g>
	<g>
		<g>
			<path id="a2XuBigavC_5_" class="st38" d="M268.8,323.7h-20v-11.7h20V323.7z"/>
		</g>
		<g>
			<g>
				<path id="a2XuBigavC_2_" class="st35" d="M268.8,323.7h-20v-11.7h20V323.7z"/>
			</g>
		</g>
	</g>
</g>
<g>
	<g>
		<path id="b4XBhHL8M" class="st38" d="M-320.5,129.7l-1.7,5.6h-16.6l17.9-47.3h18.4l17.7,47.3h-16.6l-1.7-5.6H-320.5z
			 M-306.9,117.2l-4.8-15.3l-4.9,15.3H-306.9z"/>
	</g>
	<g>
		<g>
			<path id="b4XBhHL8M_1_" class="st35" d="M-320.5,129.7l-1.7,5.6h-16.6l17.9-47.3h18.4l17.7,47.3h-16.6l-1.7-5.6H-320.5z
				 M-306.9,117.2l-4.8-15.3l-4.9,15.3H-306.9z"/>
		</g>
	</g>
</g>
<g>
	<g>
		<path id="a1tQkmWewU" class="st38" d="M-244.1,87.9h16.6l8.9,16l8.9-16h16.6l-18.1,28.5v18.8h-14.7v-18.8L-244.1,87.9z"/>
	</g>
	<g>
		<g>
			<path id="a1tQkmWewU_1_" class="st35" d="M-244.1,87.9h16.6l8.9,16l8.9-16h16.6l-18.1,28.5v18.8h-14.7v-18.8L-244.1,87.9z"/>
		</g>
	</g>
</g>
<g>
	<g>
		<path id="hWTLOaHNv" class="st39" d="M-417.4,120.1h-20v-11.7h20V120.1z"/>
	</g>
	<g>
		<g>
			<path id="hWTLOaHNv_1_" class="st35" d="M-417.4,120.1h-20v-11.7h20V120.1z"/>
		</g>
	</g>
</g>
</svg>
