<?xml version="1.0" ?><svg viewBox="0 0 32 32" xmlns="http://www.w3.org/2000/svg"><title/><g data-name="discord group forum message" id="discord_group_forum_message"><path d="M9.82,17.41a3.1,3.1,0,0,0,2.9,3.26,3.1,3.1,0,0,0,2.89-3.26,3.11,3.11,0,0,0-2.89-3.27A3.11,3.11,0,0,0,9.82,17.41Zm3.79,0c0,.68-.41,1.26-.89,1.26s-.9-.58-.9-1.26.41-1.27.9-1.27S13.61,16.72,13.61,17.41Z"/><path d="M19.28,14.14a3.11,3.11,0,0,0-2.89,3.27,3.1,3.1,0,0,0,2.89,3.26,3.1,3.1,0,0,0,2.9-3.26A3.11,3.11,0,0,0,19.28,14.14Zm0,4.53c-.48,0-.89-.58-.89-1.26s.41-1.27.89-1.27.9.58.9,1.27S19.77,18.67,19.28,18.67Z"/><path d="M26.63,10.53l-.07-.09s0-.07,0-.1a12.15,12.15,0,0,0-6.8-4.15,1,1,0,1,0-.48,1.94,10.19,10.19,0,0,1,5.65,3.39A24.87,24.87,0,0,1,27,21.33a10,10,0,0,1-5,2.52v-.43s0-.05,0-.08a13.48,13.48,0,0,0,3.43-1.95,1,1,0,0,0-1.25-1.57A12.83,12.83,0,0,1,16,22.42a12.83,12.83,0,0,1-8.11-2.6,1,1,0,0,0-1.25,1.57,13.36,13.36,0,0,0,3.41,1.95v.51a10,10,0,0,1-5-2.52,24.87,24.87,0,0,1,2.09-9.81,10.19,10.19,0,0,1,5.65-3.39,1,1,0,0,0-.48-1.94,12.15,12.15,0,0,0-6.8,4.15s0,.07,0,.1l-.07.09c-1.94,4-2.16,7.65-2.37,11.14a1,1,0,0,0,.29.77A12,12,0,0,0,11,26h0a1,1,0,0,0,.7-.29,1,1,0,0,0,.3-.71V24A17.56,17.56,0,0,0,20,24v1a1,1,0,0,0,.3.71A1,1,0,0,0,21,26h0a12,12,0,0,0,7.74-3.51,1,1,0,0,0,.29-.77C28.79,18.18,28.57,14.57,26.63,10.53Z"/><path d="M23.49,11.72a1,1,0,0,0-.43-1.35A15.47,15.47,0,0,0,16,8.87a15.47,15.47,0,0,0-7.06,1.5,1,1,0,0,0-.43,1.35,1,1,0,0,0,1.35.42A13.55,13.55,0,0,1,16,10.87a13.55,13.55,0,0,1,6.14,1.27,1,1,0,0,0,.46.12A1,1,0,0,0,23.49,11.72Z"/></g></svg>