<?xml version="1.0" ?><svg viewBox="0 0 32 32" xmlns="http://www.w3.org/2000/svg"><title/><g data-name="reddit forum network social" id="reddit_forum_network_social"><path d="M19.31,21.28a4.91,4.91,0,0,1-6.61,0,1,1,0,0,0-1.4,1.42,6.87,6.87,0,0,0,9.39,0,1,1,0,0,0-1.38-1.44Z"/><path d="M13.5,17.5A1.5,1.5,0,1,0,12,19,1.5,1.5,0,0,0,13.5,17.5Z"/><path d="M20,16a1.5,1.5,0,1,0,1.5,1.5A1.5,1.5,0,0,0,20,16Z"/><path d="M29,16a3.5,3.5,0,0,0-3.5-3.5,3.41,3.41,0,0,0-1.78.51,14.66,14.66,0,0,0-6.41-1.95l1.33-4.27,3.45,1a3,3,0,1,0,.16-2l-4-1.15a1,1,0,0,0-1.23.66L15.26,11a15.19,15.19,0,0,0-7,2,3.49,3.49,0,0,0-4.18,5.53,5.33,5.33,0,0,0-.09,1C4,24.19,9.38,28,16,28s12-3.81,12-8.5a6,6,0,0,0-.08-.95A3.46,3.46,0,0,0,29,16ZM25,6a1,1,0,1,1-1,1A1,1,0,0,1,25,6ZM16,26c-5.51,0-10-2.92-10-6.5a4,4,0,0,1,.15-1.1s0,0,0-.07a1.41,1.41,0,0,0,0-.2.59.59,0,0,0,0-.19,1.21,1.21,0,0,0,0-.18c0-.06-.05-.12-.08-.17l-.12-.14a1,1,0,0,0-.15-.14s0,0,0,0A1.46,1.46,0,0,1,5,16a1.5,1.5,0,0,1,1.27-1.48c-.08.08-.16.14-.23.22a1,1,0,0,0,1.45,1.37A7.81,7.81,0,0,1,8.79,15,13,13,0,0,1,16,13h0a12.81,12.81,0,0,1,7.23,2,7.52,7.52,0,0,1,1.31,1.11,1,1,0,0,0,.73.31,1,1,0,0,0,.69-.27,1,1,0,0,0,0-1.41c-.09-.09-.19-.17-.27-.26A1.5,1.5,0,0,1,27,16a1.47,1.47,0,0,1-.73,1.28l0,0a.67.67,0,0,0-.15.14.75.75,0,0,0-.12.14.65.65,0,0,0-.08.17.64.64,0,0,0-.06.18,1.15,1.15,0,0,0,0,.19,1.41,1.41,0,0,0,0,.2s0,0,0,.06A4.06,4.06,0,0,1,26,19.5C26,23.08,21.51,26,16,26Z"/></g></svg>