<?xml version="1.0" ?><svg viewBox="0 0 32 32" xmlns="http://www.w3.org/2000/svg"><title/><g data-name="twitter bird social media trending" id="twitter_bird_social_media_trending"><path d="M28.77,8.11a.87.87,0,0,0-.23-.2A4.69,4.69,0,0,0,29,6.54a1,1,0,0,0-.44-1,1,1,0,0,0-1.1,0,6.42,6.42,0,0,1-2.28.92,6.21,6.21,0,0,0-7.08-1A6.07,6.07,0,0,0,15,12.2a1,1,0,0,0,2-.4A4.08,4.08,0,0,1,19,7.28a4.24,4.24,0,0,1,5.12,1,1,1,0,0,0,.88.28l.25,0a1,1,0,0,0,.34,1.62,1,1,0,0,0-.36.88,13.07,13.07,0,0,1-4.89,11.24A12.75,12.75,0,0,1,7.69,24.61a9.06,9.06,0,0,0,4.54-2.18,1,1,0,0,0,.15-1.09,1,1,0,0,0-.93-.57,4,4,0,0,1-3-1.39,3.63,3.63,0,0,0,1-.35A1,1,0,0,0,10,18a1,1,0,0,0-.76-.84,4.42,4.42,0,0,1-3-2.48c.24,0,.48.05.74.06a1,1,0,0,0,1-.62A1,1,0,0,0,7.67,13C6,11.48,5.59,9.85,5.83,8.7a13.88,13.88,0,0,0,7,4,1,1,0,1,0,.38-2A12.1,12.1,0,0,1,6.39,6.31a1,1,0,0,0-.75-.38,1,1,0,0,0-.78.33,5.34,5.34,0,0,0-.31,6l-.09,0a1,1,0,0,0-.52.81,5.84,5.84,0,0,0,1.95,4.47,1,1,0,0,0-.18,1,6.63,6.63,0,0,0,3.18,3.57A13.89,13.89,0,0,1,4,23a1,1,0,0,0-.5,1.86A16.84,16.84,0,0,0,12,27.35a15.16,15.16,0,0,0,9.6-3.57,15.12,15.12,0,0,0,5.69-12.42,4.62,4.62,0,0,0,1.62-2.25A1,1,0,0,0,28.77,8.11Z"/></g></svg>