<svg width="24" height="24" viewBox="0 0 24 24" fill="none" xmlns="http://www.w3.org/2000/svg">
<path fill-rule="evenodd" clip-rule="evenodd" d="M4.83633 9.3906C5.71185 7.87091 7.27647 6.90858 8.97472 6.8839C9.47958 6.87427 9.97336 7.00491 10.4347 7.16765C10.6427 7.24101 10.8441 7.32089 11.037 7.39738C11.5111 7.58541 11.9336 7.75299 12.2755 7.75299C12.507 7.75299 12.798 7.66056 13.133 7.53389C13.2416 7.49282 13.3549 7.44814 13.4722 7.40186C14.2271 7.10411 15.1514 6.7395 16.1042 6.83605C16.1566 6.83823 16.2166 6.84176 16.2832 6.8473C16.8977 6.89839 18.0778 7.12041 19.0786 8.03148C19.4999 8.41501 19.3498 9.06681 18.9435 9.46616C18.3256 10.0735 17.5872 11.1155 17.6007 12.6254C17.6189 14.5792 18.72 15.6915 19.5062 16.238C19.9243 16.5286 20.1748 17.0414 19.98 17.5118C19.7585 18.0465 19.4081 18.7753 18.9009 19.5166C18.0673 20.735 17.2022 21.9488 15.8393 21.974C15.1851 21.986 14.7478 21.7968 14.293 21.6001C13.8169 21.3941 13.3216 21.1799 12.5385 21.1799C11.7187 21.1799 11.2007 21.4005 10.7017 21.613C10.269 21.7973 9.85048 21.9755 9.26177 21.9987C7.94625 22.0485 6.94445 20.6812 6.10397 19.4673C4.38647 16.9842 3.07394 12.4508 4.83633 9.3906ZM12.1197 5.80214C12.125 5.76121 12.131 5.72038 12.1378 5.67965C12.2757 4.84832 12.7054 4.06222 13.178 3.51579C13.438 3.2116 13.7621 2.93522 14.1175 2.70416L14.1197 2.70273C14.1434 2.68735 14.1672 2.67218 14.1912 2.65721C14.5154 2.45451 14.8633 2.28966 15.2105 2.1755C15.7098 2.01136 16.1806 2.41049 16.1063 2.93077C16.0539 3.29759 15.9506 3.65587 15.8086 3.99466C15.7942 4.02884 15.7795 4.06282 15.7644 4.09659L15.7626 4.10067C15.646 4.36062 15.5067 4.60812 15.3504 4.83803C15.2662 4.96182 15.1771 5.08051 15.0839 5.19329C14.8147 5.51939 14.4788 5.81743 14.1035 6.0556L14.0975 6.05944C13.7342 6.28908 13.3341 6.46261 12.9217 6.55129C12.6644 6.60661 12.4258 6.51291 12.2755 6.33802C12.1563 6.19922 12.0927 6.00928 12.1197 5.80214ZM9.23035 20.0039C9.23035 20.0039 9.22748 20.0037 9.22149 20.0017C9.22732 20.0027 9.23035 20.0039 9.23035 20.0039ZM15.6008 12.6433C15.5867 11.07 16.1321 9.84484 16.7545 8.96451C16.4521 8.87102 16.1839 8.8411 16.021 8.83432C15.9814 8.83267 15.9419 8.82985 15.9025 8.82586C15.6108 8.7963 15.22 8.87691 14.604 9.10794C14.5347 9.13397 14.4182 9.17953 14.287 9.23089C14.0711 9.31538 13.8151 9.41555 13.6625 9.47023C13.3767 9.57268 12.8498 9.75299 12.2755 9.75299C11.7414 9.75299 11.2647 9.60924 10.9651 9.50748C10.7327 9.42854 10.4684 9.32364 10.258 9.24014C10.1954 9.21529 10.1375 9.19233 10.0867 9.17252C9.5274 8.95438 9.22655 8.87946 9.01286 8.88354L9.00378 8.88371C8.05623 8.89748 7.11668 9.4391 6.56946 10.3887C6.00624 11.3669 5.85912 12.737 6.13472 14.2975C6.40749 15.8421 7.0549 17.3261 7.74831 18.3288C8.17984 18.9521 8.52953 19.4263 8.87243 19.7476C9.06431 19.9275 9.17372 19.9834 9.21326 19.9988C9.40351 19.9876 9.52058 19.9408 10.0226 19.7285C10.583 19.4915 11.3769 19.1799 12.5385 19.1799C13.7268 19.1799 14.5266 19.5222 15.0543 19.7503C15.5223 19.9526 15.6085 19.9779 15.8024 19.9743L15.805 19.9743C15.8373 19.9739 15.9451 19.9726 16.2027 19.7318C16.5072 19.4471 16.8145 19.0241 17.2504 18.3871C17.4699 18.0663 17.6549 17.7451 17.8077 17.4475C17.3889 17.0855 16.9479 16.6144 16.5711 16.0219C16.025 15.1632 15.6139 14.0495 15.6008 12.6433Z" fill="black"/>
</svg>
