<?xml version="1.0" encoding="UTF-8"?>
<svg width="44px" height="34px" viewBox="0 0 44 34" version="1.1" xmlns="http://www.w3.org/2000/svg" xmlns:xlink="http://www.w3.org/1999/xlink">
    <!-- Generator: Sketch 57.1 (83088) - https://sketch.com -->
    <title>logo</title>
    <desc>Created with Sketch.</desc>
    <g id="Page-1" stroke="none" stroke-width="1" fill="none" fill-rule="evenodd">
        <g id="logo" fill="#29304A" fill-rule="nonzero">
            <path d="M35.0693774,33.456544 C34.874566,32.939744 34.7910755,30.763744 35.8764528,27.499744 C37.1288113,23.691744 43.8915472,8.949344 43.8915472,7.207184 C43.8915472,6.309584 41.6929623,3.317584 38.993434,3.018384 C37.9915472,2.909584 35.4868302,4.786384 32.9264528,7.016784 C32.6759811,7.234384 32.5924906,7.207184 32.4255094,6.935184 C30.9783396,4.133584 28.0283396,1.984784 25.9132453,2.474384 C25.1618302,2.691984 21.9335283,6.989584 20.3472075,9.192784 C20.1802264,9.437584 21.8222075,6.091984 22.0726792,3.888784 C22.184,2.855184 18.649566,0.271184 16.3396604,0.271184 C14.8368302,0.271184 9.8830566,5.139984 0.754754717,3.344784 C-1.08203774,2.991184 0.810415094,6.663184 2.59154717,7.098384 C5.26324528,7.751184 13.7236226,6.010384 15.9500377,3.290384 C15.0594717,5.901584 7.76796226,22.629584 7.9349434,25.757584 C8.15758491,27.335184 13.5009811,29.456784 14.0019245,28.042384 C17.6198491,17.651984 19.9297547,11.695184 25.9132453,5.357584 C27.5830566,3.589584 20.263717,17.026384 18.2877736,25.376784 C17.9816415,27.063184 24.2712642,29.239184 24.6052264,28.314384 C26.1358868,24.071184 32.8707925,8.811984 37.1566415,5.629584 C38.8821132,4.351184 28.3344717,23.472784 29.0023962,28.586384 C29.5865519,32.994144 35.6259811,34.898144 35.0693774,33.456544 Z" id="Path"></path>
        </g>
    </g>
</svg>