<?xml version="1.0" encoding="UTF-8" standalone="no"?>
<!DOCTYPE svg PUBLIC "-//W3C//DTD SVG 1.1//EN" "http://www.w3.org/Graphics/SVG/1.1/DTD/svg11.dtd">
<svg version="1.1" xmlns="http://www.w3.org/2000/svg" xmlns:xlink="http://www.w3.org/1999/xlink" preserveAspectRatio="xMidYMid meet" viewBox="0 0 64 64" width="64" height="64"><defs><path d="M51.09 47.51C52.85 42.17 62.32 21.51 62.32 19.07C62.32 17.81 59.24 13.62 55.46 13.2C54.06 13.05 50.55 15.68 46.96 18.8C46.61 19.11 46.49 19.07 46.26 18.69C44.23 14.76 40.09 11.75 37.13 12.44C36.08 12.74 31.55 18.76 29.33 21.85C29.1 22.2 31.4 17.51 31.75 14.42C31.9 12.97 26.95 9.35 23.71 9.35C21.61 9.35 14.67 16.17 1.87 13.66C-0.7 13.16 1.95 18.31 4.45 18.92C8.19 19.83 20.05 17.39 23.17 13.58C21.92 17.24 11.7 40.68 11.94 45.07C12.25 47.28 19.74 50.25 20.44 48.27C25.51 33.71 28.75 25.36 37.13 16.48C39.47 14 29.21 32.83 26.44 44.53C26.02 46.89 34.83 49.94 35.3 48.65C37.44 42.7 46.88 21.32 52.89 16.86C55.3 15.07 40.52 41.86 41.46 49.03C42.28 55.21 50.74 57.87 49.96 55.85C49.69 55.13 49.57 52.08 51.09 47.51Z" id="c5zaKCRrBw"></path></defs><g><g><g><use xlink:href="#c5zaKCRrBw" opacity="1" fill="#29304a" fill-opacity="1"></use><g><use xlink:href="#c5zaKCRrBw" opacity="1" fill-opacity="0" stroke="#000000" stroke-width="1" stroke-opacity="0"></use></g></g></g></g></svg>