<?xml version="1.0" encoding="UTF-8"?>
<svg width="120px" height="39px" viewBox="0 0 120 39" version="1.1" xmlns="http://www.w3.org/2000/svg" xmlns:xlink="http://www.w3.org/1999/xlink">
    <!-- Generator: Sketch 57.1 (83088) - https://sketch.com -->
    <title>Artboard</title>
    <desc>Created with Sketch.</desc>
    <g stroke="none" stroke-width="1" fill="none" fill-rule="evenodd">
        <g fill="#29304A">
            <g>
                <path d="M35.0693774,33.456544 C34.874566,32.939744 34.7910755,30.763744 35.8764528,27.499744 C37.1288113,23.691744 43.8915472,8.949344 43.8915472,7.207184 C43.8915472,6.309584 41.6929623,3.317584 38.993434,3.018384 C37.9915472,2.909584 35.4868302,4.786384 32.9264528,7.016784 C32.6759811,7.234384 32.5924906,7.207184 32.4255094,6.935184 C30.9783396,4.133584 28.0283396,1.984784 25.9132453,2.474384 C25.1618302,2.691984 21.9335283,6.989584 20.3472075,9.192784 C20.1802264,9.437584 21.8222075,6.091984 22.0726792,3.888784 C22.184,2.855184 18.649566,0.271184 16.3396604,0.271184 C14.8368302,0.271184 9.8830566,5.139984 0.754754717,3.344784 C-1.08203774,2.991184 0.810415094,6.663184 2.59154717,7.098384 C5.26324528,7.751184 13.7236226,6.010384 15.9500377,3.290384 C15.0594717,5.901584 7.76796226,22.629584 7.9349434,25.757584 C8.15758491,27.335184 13.5009811,29.456784 14.0019245,28.042384 C17.6198491,17.651984 19.9297547,11.695184 25.9132453,5.357584 C27.5830566,3.589584 20.263717,17.026384 18.2877736,25.376784 C17.9816415,27.063184 24.2712642,29.239184 24.6052264,28.314384 C26.1358868,24.071184 32.8707925,8.811984 37.1566415,5.629584 C38.8821132,4.351184 28.3344717,23.472784 29.0023962,28.586384 C29.5865519,32.994144 35.6259811,34.898144 35.0693774,33.456544 Z M47.3981509,11.968544 C50.2368302,12.866144 51.4056981,10.907744 51.7118302,9.901344 C52.129283,8.541344 51.2665472,6.256544 49.7080566,5.957344 C47.6764528,5.576544 44.6986226,7.779744 46.1457925,9.901344 C44.8917642,10.035984 45.7545,11.450384 47.3967594,11.967184 L47.3981509,11.968544 Z M48.3443774,9.765344 C48.287792,9.83023847 48.1976413,9.85685406 48.1137591,9.83343043 C48.029877,9.81000679 47.9677207,9.74086032 47.9547547,9.656544 C48.0060148,9.5194457 47.9610641,9.36568063 47.843434,9.275744 C47.5373019,9.139744 48.1217358,8.70454067 48.4556981,8.70454067 C48.9274198,8.702912 48.7604387,9.301312 48.3429858,9.763984 L48.3443774,9.765344 Z M45.338717,27.826144 C45.9231509,27.418144 53.8825849,16.483744 54.2165472,15.803744 C54.3050024,15.6112715 54.2946734,15.3891797 54.188717,15.205344 C53.9104151,15.259744 53.4094717,15.259744 53.2703208,15.477344 C52.3240943,16.891744 46.0344717,25.595744 46.0344717,24.888544 C46.0344717,24.290144 49.4854151,15.014944 49.4575849,14.606944 C49.4019245,13.355744 47.6764528,12.594144 45.199566,12.294944 C44.6429623,12.730144 40.5519237,24.534944 40.5519237,24.915744 C40.5499764,26.1392 44.1125189,28.669072 45.3370472,27.825872 L45.338717,27.826144 Z M68.9665472,15.422944 C68.0481509,15.912544 65.1816415,20.210144 63.038717,23.746144 C64.1797547,20.482144 65.6547547,17.136544 66.434,15.341344 C66.879283,14.334944 64.2910755,13.219744 62.593434,12.485344 C61.563717,12.050144 60.2278679,13.709344 58.2240943,16.184544 C58.3632453,15.722144 58.9476792,14.062944 58.6693774,13.763744 C58.0849434,13.138144 55.3297547,12.022944 55.0514528,11.886944 C54.5226792,11.642144 54.0217358,11.941344 53.8825849,12.566944 C53.7156038,14.770144 52.3797547,18.170144 49.8193774,25.187744 C49.3462642,26.982944 53.9104151,28.805344 54.2722075,27.798944 C58.1127736,17.490144 61.8698491,13.219744 61.424566,14.334944 C61.0349434,15.286944 57.584,22.576544 57.1943774,25.677344 C57.0273962,26.982944 61.5358868,29.022944 61.7585283,28.016544 C64.8476792,21.379744 68.6882453,17.136544 69.4953208,15.966944 C69.6336368,15.775456 69.3831651,15.204256 68.9657123,15.421856 L68.9665472,15.422944 Z M83.4660755,7.834144 C82.8816415,7.779744 81.5736226,7.834144 78.679283,7.834144 C78.9575849,5.630944 75.0056981,3.835744 73.9203208,4.352544 C73.3358868,4.624544 73.6420189,4.978144 72.918434,7.208544 C72.8349434,7.480544 72.8071132,7.589344 72.5009811,7.589344 C71.2901968,7.57448665 70.0801951,7.65635912 68.8830566,7.834144 C68.4099434,7.915744 68.5490943,9.928544 68.9665472,10.064544 C69.384,10.200544 70.5528679,10.064544 71.304283,10.010144 C71.6660755,9.982944 71.7773962,10.091744 71.749566,10.336544 C71.6660755,10.934944 66.6566415,23.936544 66.4618302,24.997344 C66.0165472,27.227744 71.888717,29.104544 72.0556981,27.744544 C75.1170189,21.243744 78.8740943,17.082144 79.6811698,15.939744 C79.8203208,15.749344 79.5698491,15.178144 79.1523962,15.395744 C78.0391887,15.994144 74.0594717,22.168544 72.0000377,25.786144 C72.065539,25.4440369 72.1585959,25.107523 72.2783396,24.779744 C73.5585283,20.998944 76.4250377,12.947744 77.5104151,10.363744 C77.7608868,9.765344 77.8722075,9.738144 78.1226792,9.710944 C79.8203208,9.466144 81.9075849,9.194144 83.1599434,9.030944 C83.6041132,8.974912 83.8824151,7.859712 83.4649623,7.832512 L83.4660755,7.834144 Z M79.7368302,27.827504 C80.1264528,27.555504 80.1264528,27.745904 80.2377736,27.827504 C81.7127736,29.105904 88.5311698,20.211504 90.6740943,16.104304 C90.8410755,15.859504 90.2009811,15.315504 89.9505094,15.777904 C88.113717,19.096304 80.3212642,29.541104 80.154283,25.977904 C80.1264528,24.617904 81.6014528,21.217904 81.9354151,21.000304 C83.549566,23.285104 88.9207925,16.621104 88.6981509,14.064304 C88.5868302,12.731504 86.7500377,12.024304 85.8873019,12.894704 C85.8873019,12.513904 83.8556981,10.936304 82.5198491,11.126704 C79.0689057,11.670704 74.5882444,19.585904 74.5882444,23.203504 C74.5860189,25.0784 78.8999764,28.369872 79.7348821,27.825872 L79.7368302,27.827504 Z M82.2693774,20.211504 C83.1321132,18.416304 85.5811698,14.825904 86.9170189,13.873904 C87.30525,15.177056 84.5776132,19.230128 82.2677075,20.209328 L82.2693774,20.211504 Z M102.529755,15.424304 C101.277396,16.077104 96.6297547,23.502704 94.7929623,26.848304 C94.5424906,24.645104 96.6854151,19.395504 98.1047547,16.947504 C98.9396604,15.560304 95.4330566,14.363504 93.874566,13.683504 C95.488717,10.337904 95.7948491,9.957104 92.399566,8.542704 C91.8429623,8.325104 91.1472075,8.243504 91.4811698,8.950704 C91.8151321,9.766704 91.1472075,10.936304 89.8948491,13.057904 C88.8373019,14.771504 90.924566,15.478704 93.4014528,16.267504 C91.5924906,18.769904 89.3104151,23.149104 89.143434,24.726704 C88.9486226,26.521904 93.2344717,28.480304 95.0990943,28.317104 C95.240503,28.2506074 95.335659,28.1162722 95.349566,27.963504 C98.438717,21.353904 102.251453,17.137904 103.058528,15.968304 C103.196009,15.775456 102.945538,15.204256 102.528085,15.421856 L102.529755,15.424304 Z M116.333528,13.765104 C116.218591,13.301052 115.98929,12.8715099 115.665604,12.513904 C114.858528,11.507504 114.385415,11.208304 113.57834,12.160304 C112.743434,13.357104 113.411358,14.281904 113.717491,13.873904 C114.107113,13.275504 114.747208,13.438704 115.331642,13.737904 C115.387302,17.355504 108.652396,25.841904 105.396264,27.283504 C105.006642,25.107504 107.455698,20.483504 108.763717,18.008304 C109.932585,15.805104 103.865604,16.077104 104.672679,14.744304 C105.702396,13.057904 106.982585,11.153904 106.648623,10.555504 C106.23117,9.793904 103.670792,8.705904 102.724566,8.923504 C101.444377,9.222704 99.9972075,12.160304 99.6632453,13.329904 C99.0509811,15.451504 101.110415,15.614704 103.559472,16.403504 C103.949094,16.539504 104.060415,16.675504 103.865604,17.056304 C102.140132,19.966704 98.9674906,24.400304 100.999094,26.141104 C101.88966,26.984304 103.921264,27.936304 105.090132,28.289904 C106.147679,29.105904 107.984472,30.139504 108.791547,29.731504 C111.685887,28.235504 117.752868,22.115504 117.864189,17.899504 C117.905212,16.3809429 117.357808,14.9032813 116.33158,13.762384 L116.333528,13.765104 Z M101.221736,14.309104 C100.665132,13.547504 102.390604,10.609904 103.448151,10.936304 L101.221736,14.309104 Z"></path>
            </g>
            <g transform="translate(72.755268, 34.601578) rotate(-3.000000) translate(-72.755268, -34.601578) translate(44.255268, 30.601578)">
                <path d="M56.2924009,6.41035259 C56.8490047,5.54777367 56.2367406,2.98786206 55.262684,1.7635565 C55.1717869,1.63563167 55.0073106,1.58310238 54.8590727,1.63465399 C54.7108349,1.6862056 54.6144652,1.82944742 54.6225896,1.98615751 C54.6504198,6.60512847 3.27283019,-2.88323958 0.433872642,1.42965499 C-0.874146226,3.43306408 1.07396698,5.51994855 2.4933066,6.27122696 C2.60701852,6.33626597 2.74735888,6.33320039 2.8581212,6.26325796 C2.96888352,6.19331554 3.03195683,6.06793271 3.02208019,5.93732544 C2.68839623,2.06963289 53.4537217,10.8345477 56.2924009,6.41035259 Z"></path>
            </g>
        </g>
    </g>
</svg>