<?xml version="1.0" encoding="UTF-8"?>
<svg width="600px" height="600px" viewBox="0 0 600 600" version="1.1" xmlns="http://www.w3.org/2000/svg" xmlns:xlink="http://www.w3.org/1999/xlink">
    <!-- Generator: Sketch 57.1 (83088) - https://sketch.com -->
    <title>src_file</title>
    <desc>Created with Sketch.</desc>
    <g id="src_file" stroke="#fff" stroke-width="1" fill-rule="evenodd">
        <path d="M119.016,141.177 C107.142,153.6135 94.941,123.2235 108.6645,120.1905 C112.8815,124.154 116.489,131.8915 123.1685,128.401 C131.8335,124.4545 127.226,110.2085 120.279,105.197 C113.029,99.965 103.5045,102.6325 96.027,104.585 C74.8615,110.607 79.701,140.828 90.9845,155.674 C103.8865,172.6525 123.924,169.0655 132.5965,157.177 C138.5505,149.0155 128.631,130.9435 119.016,141.177 Z M116.0885,145.8285 C114.3865,155.619 102.4995,153.8615 97.168,143.836 C92.346,134.765 89.8835,120.2025 98.3115,115.3125 C100.4715,114.06 104.6825,114.8605 106.5645,117.1995 C94.9875,122.6115 100.888,149.011 116.0885,145.8285 Z M112.249,104.1215 C124.237,105.3335 132.2145,125.6045 120.239,127.5635 C117.377,128.0315 115.8315,123.3925 115.548,120.6925 C114.615,113.3855 108.5895,105.6955 99.003,105.6425 C103.465,104.1845 108.183,103.7095 112.249,104.1215 Z M98.1525,160.5715 C83.882,148.933 75.946,120.146 92.2195,108.9345 C100.429,104.627 112.8085,109.905 113.2675,123.2135 C111.0965,115.044 99.388,109.508 94.1495,115.925 C87.809,123.691 90.8875,144.588 102.933,152.3735 C107.1755,155.1155 113.131,155.5785 116.163,151.5375 C122.068,162.8905 106.8975,167.7025 98.1525,160.5715 Z M131.9695,153.9995 C129.456,160.205 121.237,164.584 114.9275,164.088 C125.024,160.2595 112.3645,144.7065 123.813,140.9795 C131.062,138.6195 133.886,149.2755 131.9695,153.9995 L131.9695,153.9995 Z" id="Fill-2" fill="#544853"></path>
        <path d="M299.5325,439.919 C288.759,453.3205 274.0195,424.077 287.435,419.8885 C291.9735,423.4795 296.2265,430.882 302.585,426.837 C310.883,422.168 305.081,408.3655 297.7325,403.962 C290.0645,399.3655 280.802,402.833 273.517,405.413 C252.9395,413.213 260.3305,442.913 272.8345,456.747 C287.1335,472.5665 306.794,467.289 314.424,454.708 C319.663,446.0695 308.244,428.9055 299.5325,439.919 Z M297.0115,444.8025 C296.147,454.702 284.154,453.961 277.9895,444.425 C272.4145,435.798 268.723,421.497 276.705,415.908 C278.7505,414.4765 283.0145,414.916 285.0885,417.087 C274.013,423.463 282.1365,449.2665 297.0115,444.8025 Z M289.6405,403.5735 C301.6885,403.7615 311.3605,423.2815 299.595,426.251 C296.7825,426.96 294.8485,422.47 294.336,419.8035 C292.7855,412.6025 286.128,405.452 276.572,406.214 C280.894,404.382 285.5545,403.508 289.6405,403.5735 Z M280.393,461.0165 C265.1855,450.634 254.831,422.625 270.093,410.0705 C277.906,405.081 290.6895,409.288 292.278,422.51 C289.4205,414.5535 277.284,410.034 272.61,416.872 C266.9525,425.1495 271.796,445.708 284.459,452.4425 C288.9195,454.8145 294.893,454.7695 297.571,450.4855 C304.419,461.295 289.713,467.379 280.393,461.0165 Z M313.5295,451.595 C311.552,457.991 303.7355,463.053 297.4065,463.095 C307.1415,458.422 293.2055,444.002 304.296,439.3145 C311.3185,436.3475 315.038,446.7255 313.5295,451.595 L313.5295,451.595 Z" id="Fill-3" fill="#544853"></path>
        <path d="M463.788,146.0175 C461.46,144.709 460.5525,144.003 460.1045,144.309 C459.4345,144.764 460.205,146.0035 460.905,146.409 C468.4905,150.7945 486.1885,160.4355 490.66,165.652 C492.7725,168.1155 495.507,170.234 494.2735,167.3495 C491.7615,161.469 471.63,150.422 463.788,146.0175" id="Fill-4" fill="#544853"></path>
        <path d="M456.879,136.68 C451.0665,133.1415 438.907,123.8325 434.2335,133.601 C433.005,136.1785 433.033,139.6125 435.133,141.754 C448.031,150.91 466.834,161.32 481.0705,168.1485 C485.9345,170.4825 498.3105,175.8215 500.162,169.676 C501.78,164.299 471.005,145.2795 456.879,136.68 Z M435.9865,135.179 C437.5615,130.4915 442.829,130.6265 441.547,136.084 C440.458,140.711 434.17,140.5865 435.9865,135.179 Z M447.7735,147.6155 C445.614,146.4005 442.784,144.199 440.1785,142.6535 C439.4815,142.24 439.4895,141.6545 440.165,141.206 C442.508,139.6455 444.038,137.3785 444.258,134.604 C444.322,133.7965 444.911,133.2265 445.664,133.526 C447.6045,134.2965 450.382,136.0655 452.8985,137.604 C453.591,138.026 453.6485,138.7815 453.047,139.324 C451.295,140.905 448.87,143.5 448.914,146.804 C448.925,147.6135 448.4795,148.0125 447.7735,147.6155 Z M451.0935,147.5115 C450.6895,145.4535 451.55,143.5005 453.1025,141.914 C457.322,137.1695 456.5175,146.202 452.9335,148.429 C452.246,148.857 451.25,148.3065 451.0935,147.5115 Z M453.047,150.7725 C455.802,148.186 459.1385,144.832 457.927,140.702 C465.9715,144.527 497.922,164.0995 497.709,168.34 C497.46,173.2795 482.868,168.402 453.047,150.7725 L453.047,150.7725 Z" id="Fill-5" fill="#544853"></path>
        <path d="M261.5965,561.961 C261.036,560.4415 259.265,559.874 257.8945,560.7375 C253.0575,563.78 249.233,568.089 246.548,572.541 C243.7815,580.634 240.8325,591.0375 238.3865,600 L240.5915,600 C242.88,591.049 244.9055,582.0155 248.196,573.3915 C249.0875,569.405 256.4475,570.3155 255.1325,574.6045 C252.6655,583.0095 250.608,591.595 248.049,600 L249.877,600 C252.2155,591.413 254.351,582.6495 257.617,574.6535 C260.7645,573.6985 261.646,577.8065 260.9615,580.6895 C258.9985,586.2355 257.0375,593.1645 255.0605,600 L256.822,600 C258.9435,592.238 261.037,584.537 263.071,578.0575 C263.7225,572.1485 263.4165,566.8945 261.5965,561.961 Z M252.1845,568.5575 C259.746,559.6445 260.648,563.9475 261.241,573.335 C258.176,571.2375 256.3865,568.6855 252.1845,568.5575 L252.1845,568.5575 Z" id="Fill-6" fill="#544853"></path>
        <path d="M238.851,28.1215 C241.7765,30.412 247.3095,27.2185 249.651,24.6385 C252.0465,17.427 254.4515,8.675 256.822,0 L255.0605,0 C252.81,7.782 250.5395,15.443 248.2235,20.803 C246.9835,18.2165 244.767,15.2835 246.161,12.315 C247.551,8.3255 248.738,4.1835 249.877,0 L248.049,0 C246.71,4.397 245.2365,8.7455 243.49,12.991 C242.047,14.135 235.476,16.8735 236.4505,14.246 C238.0645,9.572 239.365,4.7975 240.5915,0 L238.3865,0 C236.4785,6.993 234.8775,13.109 233.9095,16.564 C235.218,20.463 236.2705,24.7005 238.851,28.1215 Z M237.381,18.0085 C238.226,16.4005 241.911,15.6275 242.875,16.1925 C245.402,17.6725 246.8135,21.008 246.6755,22.82 C246.5565,24.387 243.2545,26.573 240.333,25.5095 C239.2015,25.098 236.2655,20.134 237.381,18.0085 L237.381,18.0085 Z" id="Fill-7" fill="#544853"></path>
        <path d="M346.7795,385.915 C342.4435,385.2355 338.9865,388.828 337.9295,392.8155 C336.039,399.955 344.4395,409.248 351.4905,404.409 C358.701,399.3625 354.496,387.125 346.7795,385.915 Z M346.618,387.5575 C348.367,387.783 349.743,389.1895 350.8105,390.785 C345.625,391.4345 343.549,397.241 342.88,401.7755 C336.8925,397.886 339.4445,386.634 346.618,387.5575 Z M346.333,403.3425 C344.425,399.702 346.993,393.3535 351.409,392.803 C355.2595,396.134 351.785,404.8635 346.333,403.3425 L346.333,403.3425 Z" id="Fill-8" fill="#544853"></path>
        <path d="M366.797,344.595 C362.828,342.589 358.58,343.3925 355.7265,347.339 C346.292,361.4715 333.947,374.081 328.16,390.3435 C323.501,407.041 339.7295,421.213 355.1495,422.2255 C369.8065,419.787 374.756,402.4805 373.7605,389.545 C383.1515,386.8935 388.539,377.174 390.2695,368.1465 C390.087,355.5145 375.3145,350.9825 366.797,344.595 Z M331.002,388.176 C337.59,373.503 347.838,361.0185 357.6915,348.4735 C360.6875,345.042 363.453,345.791 366.9805,347.714 C373.424,351.2275 378.0285,353.6765 378.574,359.6865 C379.462,369.425 373.754,381.502 363.5695,382.7225 C360.824,383.4785 355.711,377.1455 356.077,381.885 C368.6855,391.91 358.089,411.417 345.7185,415.9835 C333.2695,414.635 326.463,399.2385 331.002,388.176 Z M369.133,406.0255 C366.708,415.635 356.083,423.6935 346.6845,418.1975 C358.0715,412.9465 368.6965,397.283 361.9315,384.9425 C363.3535,385.8875 364.922,386.5725 366.5135,387.1915 C374.9415,389.467 370.627,400.095 369.133,406.0255 Z M387.214,371.217 C384.794,379.6525 375.63,392.0315 366.077,384.67 C377.496,380.9855 384.3115,366.2215 379.5995,354.909 C384.717,358.3125 390.784,364.6065 387.214,371.217 L387.214,371.217 Z" id="Fill-9" fill="#544853"></path>
        <path d="M366.8935,360.12 C361.792,358.037 354.7205,359.8965 354.447,366.34 C353.407,374.8455 367.493,380.1135 371.2755,371.715 C374.3565,367.4385 370.961,362.047 366.8935,360.12 Z M365.7315,362.1155 C363.7795,363.886 359.327,367.967 359.4825,372.379 C353.2625,367.962 358.9385,357.95 365.7315,362.1155 Z M362.295,372.9765 C361.72,369.459 364.3905,364.5615 368.4025,364.4895 C373.1875,367.344 366.8925,376.872 362.295,372.9765 L362.295,372.9765 Z" id="Fill-10" fill="#544853"></path>
        <path d="M481.998,59.4595 C481.6525,58.78 480.7285,58.55 480.0655,58.926 C472.747,63.066 466.8085,69.8105 464.537,77.813 C464.329,78.547 464.6105,79.6075 465.124,80.1695 C469.534,84.979 478.8995,94.5975 480.573,84.4675 C480.2,76.4895 485.464,66.2905 481.998,59.4595 Z M478.6355,82.9205 C473.6805,80.421 477.8075,74.583 480.1385,71.589 C480.453,74.5185 478.756,79.2555 478.6355,82.9205 Z M474.2335,79.4525 C473.081,82.937 477.707,83.6295 477.4825,86.437 C477.421,87.1955 476.5125,87.4915 475.833,87.15 C472.344,85.3865 468.993,82.8845 467.072,79.487 C466.697,78.823 466.751,77.7105 467.126,77.0455 C470.37,71.288 474.284,65.7085 479.3915,61.523 C479.9815,61.0415 480.8195,61.197 481.043,61.9255 C482.743,67.4595 474.5105,73.4 474.2335,79.4525 L474.2335,79.4525 Z" id="Fill-11" fill="#544853"></path>
        <path d="M497.995,42.883 C497.335,42.5015 496.1505,42.314 495.3885,42.3505 C488.8625,42.6555 481.421,41.324 476.3425,46.228 C466.161,54.6685 458.829,65.8905 450.3615,75.8995 C447.158,79.932 441.6835,87.3605 447.373,91.2035 C452.0275,94.3475 460.8615,97.674 464.538,91.82 C464.9435,91.175 465.7205,90.8825 466.371,91.279 C472.753,95.168 477.3915,102.3695 474.4785,110.055 C472.959,124.042 496.338,122.5275 498.7715,112.1415 C502.0195,98.2915 500.8995,83.6635 504.0525,69.7555 C505.118,61.0945 506.622,47.89 497.995,42.883 Z M458.323,93.1105 C453.083,93.131 459.086,88.7895 460.9015,88.021 C465.825,86.9585 463.173,93.094 458.323,93.1105 Z M476.9705,108.0615 C479.959,98.047 470.8635,91.4945 464.005,86.399 C460.619,84.229 457.3435,87.081 455.0115,89.64 C454.499,90.2025 453.5275,90.9415 452.7685,91.0115 C448.9715,91.357 445.3445,87.285 447.873,83.267 C453.162,74.8575 460.5685,68.028 466.28,59.8895 C471.9395,53.976 477.3545,44.0605 486.906,45.5085 C492.426,46.575 492.75,54.1255 492.376,58.732 C490.0155,78.196 489.967,98.0665 485.2725,117.167 C480.5675,120.737 475.3535,113.48 476.9705,108.0615 Z M501.549,72.6575 C499.257,84.5965 499.287,96.7815 497.368,108.766 C496.5185,114.075 492.8185,116.269 489.052,117.354 C488.3205,117.5645 487.844,117.0855 487.996,116.3365 C491.158,100.8295 491.8625,84.955 493.495,69.222 C494.337,61.6495 496.3015,53.0705 492.173,46.175 C491.781,45.521 491.8595,44.5445 492.6125,44.427 C493.073,44.3555 493.5995,44.3445 494.1085,44.3305 C494.87,44.3125 496.0585,44.456 496.7235,44.8290069 C505.5545,49.7845 502.289,63.989 501.549,72.6575 L501.549,72.6575 Z" id="Fill-12" fill="#544853"></path>
        <path d="M288.619,315.2735 C288.0855,314.7295 287.136,314.787 286.616,315.345 C280.876,321.4895 277.2325,329.703 277.466,338.0195 C277.487,338.7815 278.073,339.709 278.732,340.091 C284.3815,343.3565 296.1995,349.7245 294.759,339.5585 C292.0115,332.0595 293.974,320.751 288.619,315.2735 Z M291.042,343.539 C287.184,342.9035 283.2375,341.5205 280.386,338.8555 C279.8295,338.335 279.5465,337.258 279.705,336.5095 C281.073,330.045 283.1345,323.549 286.7515,318.0245 C287.1695,317.3875 288.0155,317.285 288.448,317.912 C291.7285,322.6825 285.6565,330.8185 287.2075,336.675 C287.1535,340.345 291.774,339.618 292.401,342.3645 C292.5705,343.1065 291.7925,343.661 291.042,343.539 Z M290.482,327.4025 C291.661,330.1025 291.462,335.132 292.447,338.664 C286.97,337.7655 289.1575,330.958 290.482,327.4025 L290.482,327.4025 Z" id="Fill-13" fill="#544853"></path>
        <path d="M312.746,318.4825 C311.165,309.9005 308.6405,296.8525 298.909,294.663 C298.1655,294.497 296.979,294.6735 296.2635,294.9365 C290.128,297.1855 282.6295,298.146 279.257,304.3465 C272.0745,315.452 268.445,328.3565 263.3685,340.4445 C261.522,345.251 258.527,353.9805 265.1065,355.9405 C270.49,357.544 279.915,358.0685 281.6665,351.381 C281.86,350.6445 282.5135,350.132 283.2525,350.3155 C290.507,352.1115 297.0925,357.591 296.6175,365.796 C299.3625,379.595 321.212,371.1395 320.419,360.502 C319.3635,346.3145 313.909,332.6965 312.746,318.4825 Z M276.125,354.4755 C271.1315,356.0675 275.557,350.125 277.058,348.8465 C281.4365,346.3575 280.7465,353.006 276.125,354.4755 Z M298.397,363.1475 C298.245,352.6975 287.603,349.174 279.5325,346.369 C275.6515,345.3145 273.3825,349.0175 271.925,352.158 C271.6045,352.8475 270.899,353.845 270.1965,354.1385 C266.6785,355.6065 261.997,352.8105 263.2035,348.219 C265.728,338.6105 270.7455,329.874 273.753,320.3975 C277.379,313.0595 279.572,301.9755 289.1175,300.493 C294.7035,299.855 297.2765,306.961 298.3015,311.468 C301.8855,330.744 307.799,349.715 309.048,369.345 C305.63,374.16 298.479,368.801 298.397,363.1475 Z M312.709,368.3885 C312.075,368.8085 311.4755,368.495 311.3965,367.7355 C309.7625,351.993 305.674,336.6375 302.5145,321.1395 C301.048,313.663 300.3495,304.8895 294.3425,299.5495 C293.772,299.0435 293.554,298.0875 294.2375,297.75 C294.655,297.5435 295.1545,297.376 295.635,297.2085 C296.357,296.9635 297.5335,296.744 298.2795,296.9 C308.1905,298.98 309.335,313.5105 311.2275,322.002 C312.622,334.079 316.3035,345.6945 318.0675,357.702 C318.8495,363.0225 315.9765,366.2245 312.709,368.3885 L312.709,368.3885 Z" id="Fill-14" fill="#544853"></path>
        <path d="M564.0115,514.962 C562.956,514.8555 562.0655,514.165 560.8635,513.8515 C552.245,511.6005 541.8515,517.491 531.081,524.3545 C529.0225,525.666 524.1785,525.1895 521.8145,525.7705 C510.672,528.508 487.755,541.3225 484.7335,544.8585 C482.9465,545.7825 481.0275,546.7375 479.912,547.5955 C479.2695,548.091 479.5535,548.788 480.3605,548.709 C482.084,548.54 484.842,548.2265 485.836,547.878 C502.5315,548.171 520.713,545.172 535.2335,535.928 C540.0585,534.1105 542.5955,540.5235 548.576,538.2795 C554.949,535.8875 571.4015,530.094 566.4845,521.76 C569.4715,518.6835 582.413,518.75 577.119,513.0155 C572.6035,512.1895 568.256,515.3915 564.0115,514.962 Z M490.624,545.6415 C485.2275,545.427 493.454,541.1855 497.503,538.672 C506.6135,534.3515 515.2205,528.0695 525.502,526.996 C524.3605,530.8535 527.492,533.6005 529.423,536.4845 C517.9315,543.3485 503.842,545.5 490.624,545.6415 Z M531.5595,536.0655 C529.961,533.6085 525.6145,530.082 527.616,527.215 C528.081,526.551 528.718,526.8585 529.045,527.6005 C530.4015,530.6945 534.627,533.961 531.5595,536.0655 Z M531.83,526.29 C540.798,520.828 552.468,512.678 563.174,517.4315 C567.756,523.79 556.4415,526.1045 552.4355,528.593 C551.6895,525.379 550.834,529.551 549.9315,528.834 C548.9805,528.078 548.9755,527.8 548.3045,528.8145 C544.458,534.626 530.58,535.6905 531.83,526.29 Z M564.6405,525.251 C563.8185,526.831 545.3195,537.217 542.087,535.802 C541.3445,535.4755 541.13,535.048 541.9005,534.797 C549.5545,532.29 556.9845,529.0245 563.9385,524.91 C564.6355,524.497 565.0145,524.5315 564.6405,525.251 Z M569.175,515.8185 C571.5625,515.243 574.3025,514.379 576.7285,515.1955 C577.001,516.5705 568.704,519.9325 569.175,515.8185 L569.175,515.8185 Z" id="Fill-15" fill="#544853"></path>
        <path d="M513.255,539.885 C513.4795,540.537 514.2735,541.127 514.714,541.1495 C515.21,541.175 515.2605,540.4845 514.799,539.7235 C514.38,539.0305 512.9895,539.119 513.255,539.885" id="Fill-16" fill="#544853"></path>
        <path d="M538.7665,529.8145 C538.836,530.6135 539.619,531.374 540.0285,531.411 C540.42,531.4465 540.409,530.753 540.1015,529.9055 C539.826,529.1435 538.6975,529.007 538.7665,529.8145" id="Fill-17" fill="#544853"></path>
        <path d="M523.3045,536.91 C523.4275,537.8085 524.3585,538.581 524.836,538.5735 C525.3485,538.5655 525.3505,537.671 524.7735,536.711 C524.3575,536.0175 523.1945,536.1075 523.3045,536.91" id="Fill-18" fill="#544853"></path>
        <path d="M552.207,525.245 C552.3065,525.9465 552.911,526.623 553.2385,526.7245 C553.663,526.8545 553.7805,526.1965 553.496,525.3215 C553.246,524.553 552.094,524.4425 552.207,525.245" id="Fill-19" fill="#544853"></path>
        <path d="M545.1855,528.004 C545.423,528.883 546.414,529.587 546.84,529.4865 C547.1915,529.4025 547.004,528.6015 546.4835,527.7715 C546.0525,527.086 544.9735,527.2225 545.1855,528.004" id="Fill-20" fill="#544853"></path>
        <path d="M520.2295,538.1785 C520.536,538.6455 521.041,539.0155 521.282,538.997 C521.624,538.9705 521.616,538.3625 521.254,537.788 C520.8455,537.1385 519.8145,537.545 520.2295,538.1785" id="Fill-21" fill="#544853"></path>
        <path d="M540.7795,528.9355 C540.594,530.0615 541.494,531.0675 541.9735,531.1025 C542.4845,531.1395 542.585,530.1525 542.167,528.9895 C541.8935,528.2275 540.91,528.1365 540.7795,528.9355" id="Fill-22" fill="#544853"></path>
        <path d="M156.409,592.1815 C155.6895,591.745 155.119,592.281 155.498,593.033 C156.307,594.6415 157.6425,597.1945 158.352,598.0295 C158.5925,598.686 158.841,599.343 159.0935,600 L162.1485,600 C162.356,599.7055 162.8125,599.74 163.4335,600 L167.3755,600 C164.4345,597.7955 162.071,596.2565 160.865,595.832 C159.3015,594.4445 157.6575,592.9435 156.409,592.1815" id="Fill-23" fill="#544853"></path>
        <path d="M188.412,41.4285 C191.9785,45.426 186.712,50.283 191.124,55.2385 C195.8275,60.521 207.596,74.297 213.8335,66.414 C217.932,68.158 222.7095,80.7235 226.286,73.449 C225.3975,68.7635 220.6675,65.748 219.496,61.4745 C219.204,60.412 219.5405,59.29 219.3945,58.009 C218.3515,48.815 208.755,40.947 198.075,33.0755 C196.0335,31.5715 194.6835,26.6995 193.2355,24.625 C188.22,17.4375 175.5475,6.1255 167.3755,0 L163.4335,0 C165.4465,0.8425 169.1725,4.029 171.6385,5.8915 C179.2335,13.1035 188.5415,19.095 193.4265,28.6565 C189.2625,28.9935 187.771,33.057 185.699,36.006 C174.748,27.4375 167.3925,14.5885 162.3105,1.832 C161.978,0.858 161.9505,0.2805 162.1485,0 L159.0935,0 C165.1055,15.6385 174.601,31.2425 188.412,41.4285 Z M209.7605,65.934 C207.9205,65.7285 190.936,51.686 191.098,48.0235 C191.136,47.183 191.471,46.813 192.0025,47.466 C197.2955,53.947 203.2395,59.9255 209.8285,65.126 C210.49,65.6465 210.597,66.027 209.7605,65.934 Z M220.597,66.7985 C222.049,68.897 223.911,71.2305 224.0275,73.886 C222.7975,74.664 216.4345,67.8805 220.597,66.7985 Z M216.7895,61.5865 C212.3425,68.4055 205.8665,58.3075 201.956,55.356 C204.791,53.43 200.4285,54.1625 200.7855,53.02 C201.163,51.814 201.43,51.7055 200.1955,51.435 C193.125,49.882 186.9005,36.8305 196.4785,34.526 C205.1265,41.1725 217.391,49.432 216.7895,61.5865 Z M194.0065,30.7885 C194.823,30.99 194.7635,31.723 194.1665,32.317 C191.676,34.788 190.0915,40.1045 186.904,37.9195 C188.6875,35.451 190.479,29.9205 194.0065,30.7885 L194.0065,30.7885 Z" id="Fill-24" fill="#544853"></path>
        <path d="M176.355,21.61 C175.8075,22.0715 175.5335,23.0625 175.676,23.498 C175.8365,23.987 176.525,23.7785 177.09,23.046 C177.6035,22.3805 176.9975,21.065 176.355,21.61" id="Fill-25" fill="#544853"></path>
        <path d="M195.659,42.567 C194.9105,42.932 194.4675,43.9765 194.5825,44.386 C194.6955,44.7785 195.363,44.5095 196.07,43.894 C196.7055,43.341 196.4155,42.1965 195.659,42.567" id="Fill-26" fill="#544853"></path>
        <path d="M182.9975,30.236 C182.173,30.6915 181.772,31.882 181.959,32.3435 C182.158,32.8365 183.0255,32.5045 183.74,31.5865 C184.257,30.922 183.735,29.8295 182.9975,30.236" id="Fill-27" fill="#544853"></path>
        <path d="M205.115,53.881 C204.4725,54.24 204.0435,55.08 204.067,55.4345 C204.099,55.896 204.781,55.7615 205.523,55.159 C206.1755,54.629 205.8495,53.472 205.115,53.881" id="Fill-28" fill="#544853"></path>
        <path d="M199.814,48.11 C199.051,48.6685 198.7395,49.8925 198.9965,50.267 C199.209,50.577 199.9155,50.0955 200.525,49.2805 C201.029,48.6065 200.4925,47.612 199.814,48.11" id="Fill-29" fill="#544853"></path>
        <path d="M180.617,27.731 C180.28,28.202 180.11,28.8315 180.219,29.0575 C180.373,29.378 180.958,29.1425 181.3795,28.5785 C181.857,27.939 181.0765,27.091 180.617,27.731" id="Fill-30" fill="#544853"></path>
        <path d="M197.2625,44.1875 C196.1015,44.43 195.465,45.6775 195.6095,46.1555 C195.7645,46.6655 196.759,46.393 197.731,45.5525 C198.366,45.0025 198.086,44.015 197.2625,44.1875" id="Fill-31" fill="#544853"></path>
        <path d="M104.692,237.1705 C103.8725,237.335 103.5285,235.2265 103.353,233.6955 C102.5515,226.6825 98.801,210.9365 90.2335,215.483 C84.215,218.678 75.6475,252.4935 77.42,272.3185 C77.4925,273.1265 78.2335,273.8295 79.036,273.717 C86.872,272.608 78.927,258.7225 85.8475,255.2065 C89.6355,252.9925 93.537,250.169 97.6805,248.831 C98.4505,248.5815 99.17,249.09 99.255,249.8955 C99.993,256.885 100.1545,263.9415 101.05,270.902 C101.1545,271.705 101.8185,272.744 102.625,272.823 C104.7885,273.033 107.086,271.094 107.013,268.7825 C106.6245,261.178 106.045,253.587 104.8865,246.0465 C104.02,242.1525 110.4575,242.949 110.057,238.6905 C109.7435,235.342 106.8715,236.7335 104.692,237.1705 Z M80.521,268.893 C80.249,269.81 80.2205,273.156 78.768,271.7915 C77.3085,256.6155 81.533,241.624 86.0155,227.27 C87.4385,223.551 89.4455,217.1835 92.586,217.053 C97.6905,216.8395 101.1495,228.7545 102.125,236.4825 C102.3275,238.0905 101.0305,239.051 100.4835,237.527 C99.52,234.8395 98.914,229.4965 97.9225,226.2845 C96.955,223.1535 94.4965,220.8165 92.3665,221.123 C89.7945,221.493 88.505,227.0835 87.3255,230.645 C83.2555,242.927 81.571,256.0885 80.521,268.893 Z M97.845,240.6345 C93.444,243.3405 89.0155,246.171 84.783,248.9725 C86.185,242.892 87.7765,236.255 89.2445,230.1565 C89.8405,227.681 90.9105,224.014 92.543,223.5745 C94.483,223.0495 95.646,226.0025 96.4665,228.071 C97.988,231.911 98.0455,237.1485 97.845,240.6345 Z M104.203,268.5795 C104.049,269.375 103.5175,269.433 103.34,268.643 C101.998,262.652 101.708,255.164 101.263,247.7885 C101.2145,246.979 101.6355,246.7905 102.061,247.4785 C104.8185,251.9425 105.38,262.438 104.203,268.5795 Z M107.563,240.15 C100.657,245.3135 92.444,248.3425 85.268,253.0915 C84.5935,253.5385 84.387,253.348 84.8595,252.6905 C89.772,245.8595 100.6355,241.1745 104.923,239.1085 C106.178,238.504 109.6835,238.316 107.563,240.15 L107.563,240.15 Z" id="Fill-32" fill="#544853"></path>
        <path d="M132.4055,231.979 C132.816,228.3555 139.05,222.488 131.9065,222.6575 C127.858,226.148 128.774,233.1965 123.3185,235.4185 C120.274,236.643 116.797,243.392 122.1585,243.3985 C131.0715,239.2405 119.871,256.307 129.5525,255.545 C130.1465,250.924 129.457,246.098 130.139,241.4555 C131.4965,235.947 141.3385,237.884 140.4955,231.3845 C137.804,230.2555 134.943,230.674 132.4055,231.979 Z M135.8385,234.6845 C126.8815,236.0855 128.5175,245.9 128.122,252.729 C126.105,249.127 130.462,234.795 121.4695,241.4035 C125.8635,235.968 130.1825,231.553 132.164,224.373 C136.711,224.491 126.193,233.9305 132.42,234.517 C134.4305,231.297 142.1825,232.691 135.8385,234.6845 L135.8385,234.6845 Z" id="Fill-33" fill="#544853"></path>
        <path d="M141.633,223.6545 C159.8515,236.0645 161.1635,262.7905 152.5825,281.626 C142.5265,308.559 103.7265,312.6305 83.719,293.193 C69.554,279.431 66.3585,258.8285 69.182,239.974 C72.8175,215.701 93.629,197.855 117.1195,200.763 C126.363,201.9075 135,205.466 139.043,215.146 C137.4835,200.177 115.8395,196.4395 103.376,199.3475 C86.8555,203.2035 72.573,217.9015 68.566,233.6075 C65.735,244.704 64.545,256.398 67.1505,267.984 C70.4565,282.6915 79.256,295.569 91.582,303.0425 C107.3815,312.6225 129.6255,310.2885 143.8685,297.695 C154.4305,287.685 159.3225,272.6635 159.461,258.3685 C159.4405,245.2395 156.286,227.8205 141.633,223.6545" id="Fill-34" fill="#544853"></path>
        <path d="M397.8095,68.0935 C397.711,71.8855 398.6065,74.925 397.753,78.4155 C395.416,87.959 386.834,94.7595 378.97,96.833 C378.1865,97.0385 378.287,97.5055 379.0965,97.5015255 C392.3585,97.4195 404.322,79.294 398.906,67.9635 C398.5565,67.2335 397.83,67.284 397.8095,68.0935" id="Fill-35" fill="#544853"></path>
        <path d="M391.705,78.2815 C390.6425,79.4985 390.533,81.8155 390.3205,83.712 C390.2295,84.517 390.8575,85.334 391.417,84.7485 C392.4785,83.638 393.0265,80.8105 393.075,78.981 C393.0965,78.1715 392.2395,77.672 391.705,78.2815" id="Fill-36" fill="#544853"></path>
        <path d="M397.8195,45.1265 C391.9865,47.3955 386.6415,50.993 382.884,56.078 C376.0275,51.5155 366.701,47.924 358.798,51.9915 C347.913,56.2785 340.8895,69.253 343.671,80.5025 C346.033,90.0585 353.5975,97.068 363.0255,100.741 C383.3875,108.671 409.746,92.4085 407.7685,70.303 C406.8085,60.6575 395.833,58.905 388.206,57.681 C387.9315,52.4925 401.4745,55.727 398.082,48.6765 C396.585,46.0025 400.803,48.243 401.7375,49.1795 C411.5595,56.883 424.747,51.3565 432.2355,43.3285 C427.676,39.818 423.1435,35.6955 417.4275,34.3285 C409.4375,32.391 400.178,37.17 397.8195,45.1265 Z M397.905,61.9745 C408.173,63.815 407.466,77.688 401.367,87.137 C389.8155,105.034 362.1455,105.006 349.205,88.2965 C338.9295,75.028 348.881,53.939 364.8145,52.2755 C370.995,51.3045 376.5,54.786 381.6835,57.6585 C379.6405,60.5785 379.3505,63.1105 381.7385,64.121 C383.208,64.742 384.3845,63.243 384.662,62.483 C386.498,57.468 393.579,61.198 397.905,61.9745 Z M395.128,51.0455 C388.58,51.0625 382.9775,62.746 382.0975,62.3275 C380.1035,61.3805 388.915,50.7495 395.1795,49.0965 C396.293,49.458 397.0695,51.2135 395.128,51.0455 Z M416.3545,36.3435 C415.663,37.528 408.248,42.7965 403.8165,42.8095 C406.9735,39.4375 411.5245,35.9025 416.3545,36.3435 Z M400.4835,44.2275 C402.376,40.4435 405.881,37.9155 409.6965,36.295 C406.618,37.994 403.1535,41.86 400.4835,44.2275 Z M406.217,45.0845 C408.0645,46.0785 408.3435,48.6865 409.8105,50.1885 C408.447,51.245 403.339,45.5035 406.217,45.0845 Z M411.133,43.5295 C413.007,45.6595 414.159,48.922 417.1805,50.1925 C413.095,53.3365 405.8545,44.117 411.133,43.5295 Z M415.8435,42.865 C418.7325,43.5145 419.007,47.921 422.3935,48.259 C419.2305,52.849 410.842,42.646 415.8435,42.865 Z M419.6775,43.4385 C421.786,41.543 425.367,43.599 427.961,43.8985 C427.256,47.173 421.128,47.8085 419.6775,43.4385 Z M425.9005,40.9385 C421.3895,40.8705 416.88,40.795 412.3635,40.97 C414.758,39.675 417.1455,38.173 419.8175,37.5245 C422.115,38.025 423.841,39.872 425.9005,40.9385 L425.9005,40.9385 Z" id="Fill-37" fill="#544853"></path>
        <path d="M442.368,593.332 C441.551,593.2655 440.301,593.595 439.5695,593.96 C435.811,595.8355 431.2425,597.5855 427.6515,600 L430.844,600 C433.476,598.721 436.5035,597.7815 438.9835,596.5185 C439.712,596.1465 440.9385,595.8185 441.756,595.884 C445.13,596.1525 449.1395,596.967 451.0955,599.719 C451.1575,599.8055 451.2055,599.9005 451.2435,600 L453.6335,600 C451.447,596.261 447.2785,593.726 442.368,593.332" id="Fill-38" fill="#544853"></path>
        <path d="M421.8625,12.1435 C422.0245,12.9375 422.628,14.0885 423.1965,14.673 C431.202,22.9075 447.5155,20.4795 453.952,11.133 C454.413,10.4635 454.919,9.2515 455.0615,8.4535 C455.627,5.301 455.0375,2.4025 453.6335,0 L451.2435,0 C451.4955,0.6585 451.242,1.5415 450.713,2.0125 C443.9705,8.014 434.05,12.3595 426.2225,6.483 C425.5695,5.9935 425.28,4.906 425.6915,4.2045 C426.792,2.326 428.6855,1.0495 430.8445,0 L427.652,0 C423.529,2.772 420.6955,6.42 421.8625,12.1435 Z M450.281,4.8425 C450.9425,4.3615 451.9715,4.286 452.458,4.939 C455.9395,9.614 446.9695,16.6205 440.787,16.7765 C439.966,16.7975 439.0975,16.0375 439.008,15.232 C438.3555,9.3655 445.877,8.0445 450.281,4.8425 Z M425.5945,8.8775 C430.134,11.7085 439.0615,10.186 436.8575,16.1135 C436.575,16.8745 435.574,17.4615 434.756,17.3955 C430.1125,17.0225 423.5165,14.625 424.119,9.3835 C424.211,8.5785 424.9015,8.4455 425.5945,8.8775 L425.5945,8.8775 Z" id="Fill-39" fill="#544853"></path>
        <path d="M533.494,445.663 C532.677,445.6785 531.418,445.967 530.7235,446.4045 C523.879,450.718 521.4715,459.217 526.4895,465.6885 C526.9855,466.329 527.996,467.169 528.715,467.548 C538.751,472.844 554.331,467.4305 557.6055,456.423 C557.838,455.6415 557.84,454.342 557.6145,453.5635 C554.584,443.0635 542.5155,445.4895 533.494,445.663 Z M525.953,456.1115 C526.41,452.7655 529.585,450.1845 532.449,448.382 C533.1435,447.9445 534.383,447.667 535.2,447.658 C540.2665,447.6025 546.4455,445.745 550.541,448.3045 C551.2305,448.7355 551.4785,449.833 551.127,450.5695 C546.917,459.4055 536.1125,460.1565 527.3555,457.965 C526.5645,457.7675 525.843,456.917 525.953,456.1115 Z M542.996,466.4435 C537.4455,469.172 526.25,467.124 527.167,461.367 C527.294,460.5635 528.241,460.1525 529.05,460.2725 C534.4375,461.0675 541.714,458.749 543.8565,464.25 C544.1495,465.005 543.7335,466.081 542.996,466.4435 Z M548.626,464.1955 C547.9315,464.633 546.7725,464.577 546.17,464.033 C541.469,459.8035 550.084,457.0125 552.794,452.4005 C553.208,451.6955 553.881,451.493 554.335,452.164 C557.3,456.5285 552.5675,461.711 548.626,464.1955 L548.626,464.1955 Z" id="Fill-40" fill="#544853"></path>
        <path d="M129.08,57.4845 C128.275,57.573 127.0615,57.9705 126.421,58.4655 C120.0995,63.3495 118.57,71.9975 124.162,77.9745 C124.715,78.567 125.7945,79.3115 126.541,79.625 C136.965,83.993 151.791,77.244 153.926,66.032 C154.077,65.236 153.95,63.9455 153.65,63.1925 C149.6185,53.042 137.9585,56.5155 129.08,57.4845 Z M122.6815,68.519 C122.8,65.1585 125.6735,62.3175 128.319,60.275 C128.96,59.7805 130.1545,59.396 130.96,59.3145 C135.95,58.8115 141.859,56.4215 146.1525,58.6 C146.874,58.9675 147.2285,60.0335 146.956,60.796 C143.682,69.9355 133.1015,71.6355 124.2485,70.2345 C123.448,70.1085 122.6525,69.328 122.6815,68.519 Z M140.5145,77.2665 C135.312,80.465 124.068,79.4205 124.4005,73.627 C124.446,72.819 125.3405,72.3275 126.1485,72.375 C131.54,72.688 138.486,69.7445 141.145,75.014 C141.509,75.7375 141.205,76.842 140.5145,77.2665 Z M145.8425,74.538 C145.2025,75.033 144.054,75.08 143.405,74.5945 C138.349,70.813 146.5675,67.2815 148.7805,62.4645 C149.1185,61.729 149.7625,61.47 150.2775,62.0945 C153.6345,66.1645 149.483,71.7255 145.8425,74.538 L145.8425,74.538 Z" id="Fill-41" fill="#544853"></path>
        <path d="M182.7775,146.0065 C180.013,149.743 176.909,153.213 173.9045,156.7435 C173.351,157.396 173.52,157.6055 174.237,157.1365 C177.9345,154.715 182.6635,149.924 183.558,146.2865 C183.762,145.4535 183.288,145.3165 182.7775,146.0065" id="Fill-42" fill="#544853"></path>
        <path d="M227.014,102.641 C227.676,102.0965 226.3035,103.1215 227.014,102.641" id="Fill-43" fill="#544853"></path>
        <path d="M296.0195,57.875 C295.1935,57.643 293.8505,57.864 293.0635,58.204 C269.59,68.3385 247.393,87.3985 227.014,102.641 C214.314,112.1405 201.9545,122.077 189.874,132.392 C183.4835,138.8995 172.593,135.203 166.317,149.82 C162.7895,158.0335 159.6955,165.5585 156.531,165.8645 C156.531,165.8645 158.2825,167.2435 161.42,167.751 C172.4505,169.542 182.19,158.9725 187.6765,147.248 C188.0395,146.4705 188.8535,145.396 189.526,144.861 C204.953,132.557 221.4805,121.522 237.6815,110.1465 C256.5635,96.885 278.452,81.748 295.248,67.8555 C300.338,63.6465 301.67,59.4745 296.0195,57.875 Z M185.9155,145.151 C182.589,155.7315 174.916,165.422 163.79,166.761 C162.9375,166.8635 162.751,166.564 163.535,166.22 C168.563,164.0165 174.979,160.893 178.9845,155.4795 C179.4945,154.79 179.2195,154.4925 178.4795,154.926 C174.4595,157.281 171.463,160.5925 166.9555,163.4285 C166.231,163.884 165.971,163.4445 166.5595,162.82 C172.0575,156.9815 177.6825,150.826 180.8185,143.3675 C181.1515,142.579 180.7735,142.2575 180.102,142.789 C175.159,146.7115 173.369,155.363 167.6695,159.2885 C166.9645,159.7745 166.6795,159.4725 167.135,158.7475 C169.795,154.5225 173.449,150.2955 173.7715,145.323 C173.828,144.468 173.215,144.2215 172.7675,144.9535 C171.161,147.577 170.5595,152.4385 167.8515,155 C167.2275,155.587 166.68,155.2245 166.8295,154.379 C168.08,147.2275 172.2245,139.8985 180.2655,139.467 C182.5715,139.3615 183.331,141.756 184.956,143.003 C185.6365,143.525 186.172,144.3345 185.9155,145.151 Z M188.0455,141.6785 C186.0995,141.058 183.851,138.386 185.6515,137.515 C186.4225,137.141 187.762,137.65 188.1125,138.431 C188.3615,138.985 188.563,139.643 188.806,140.257 C189.122,141.0545 188.863,141.9385 188.0455,141.6785 Z M293.2625,65.406 C292.8575,64.65 292.572,64.395 292.303,65.208 C291.647,67.175 290.7595,70.472 290.335,68.9825 C290.102,68.157 289.3445,67.441 288.7965,68.1 C287.849,69.2405 287.618,71.5475 286.1295,72.4095 C285.389,72.841 284.764,72.0555 284.8325,71.2015 C285.115,67.7025 282.617,74.7735 280.7885,75.4935 C279.992,75.8075 279.9155,74.0675 280.018,73.2165 C280.308,70.8425 277.8315,73.4015 277.8015,75.8535 C277.7905,76.7105 277.6455,77.888 276.817,78.106 C275.7655,78.379 275.864,77.053 275.812,75.7935 C275.778,74.9375 274.822,74.591 274.5315,75.396 C273.9045,77.1185 274.5415,80.091 273.424,80.5105 C272.62,80.8095 271.9085,79.457 271.749,78.6145 C270.9155,74.233 269.626,85.758 267.8695,83.2145 C267.3835,82.508 266.799,82.317 266.416,83.0825 C265.357,85.193 264.32,88.517 263.2175,86.0105 C262.874,85.224 262.754,85.242 262.5115,86.0645 C261.855,88.27 260.007,90.881 259.615,88.993 C259.441,88.153 258.6,86.9095 258.271,87.702 C257.802,88.8385 258.244,91.697 256.7435,92.7225 C256.0375,93.2065 255.395,92.413 255.4785,91.5595 C255.8595,87.6785 253.01,95.9525 252.8795,94.75 C252.7875,93.897 252.9925,91.61 252.329,92.1495 C251.5125,92.8135 250.4635,97.299 249.7535,97.7585 C249.0335,98.2245 249.236,95.8195 249.21,94.963 C249.0805,90.879 245.993,103.7695 245.0485,100.495 C244.8115,99.6705 244.7545,98.2425 244.338,97.4925 C243.4365,95.872 243.3845,102.977 242.1845,104.151 C241.5715,104.751 240.995,102.905 240.935,102.05 C240.603,97.197 238.278,111.474 237.11,106.7095 C236.9065,105.877 236.586,104.4955 235.9435,103.925 C234.961,103.0525 236.633,108.2295 235.224,109.7585 C234.6425,110.3885 234.221,109.185 233.5665,108.6295 C232.6065,107.8125 228.9405,117.9125 229.619,111.9295 C231.0405,103.8275 226.6755,118.405 226.2555,115.2255 C226.144,114.375 225.947,112.138 225.277,112.6735 C224.5395,113.266 224.6515,118.3595 223.1965,118.1405 C222.349,118.0125 221.9075,116.4815 221.602,115.681 C220.198,111.996 220.135,126.2235 218.503,119.1635 C217.076,112.6085 217.593,124.4605 215.8615,122.3755 C215.3135,121.7145 214.222,120.1625 214.0195,120.9945 C213.793,121.9105 214.03,123.945 213.527,124.8685 C213.1175,125.6215 212.069,124.501 211.736,123.7105 C210.426,120.6095 209.7705,130.635 206.545,128.037 C205.878,127.5015 205.755,127.5635 205.6645,128.417 C205.4725,130.23 204.1115,131.92 202.607,131.286 C201.8185,130.951 201.323,130.982 201.0925,131.8055 C200.6825,133.2755 200.0625,134.5625 199.39,133.858 C198.7975,133.2385 198.573,133.1565 198.186,133.922 C196.271,137.7015 190.4225,142.191 190.0015,137.007 C189.933,136.1525 190.557,135.0185 191.221,134.476 C223.033,108.507 255.043,82.1755 290.5655,61.184 C291.69,60.47 293.055,60.3445 294.353,60.2415 C299.2135,59.512 294.5295,67.7685 293.2625,65.406 L293.2625,65.406 Z" id="Fill-44" fill="#544853"></path>
        <path d="M239.6095,446.72 C234.7275,437.425 230.626,427.7135 224.826,418.8935 C218.613,410.1795 229.993,400.409 225.574,391.259 C221.0625,381.9115 208.0255,376.2485 197.5605,372.7085 C189.1915,369.877 176.109,368.5065 170.736,382.8915 C161.8965,406.5575 140.556,401.9855 128.147,417.6725 C116.564,438.428 107.5975,460.6075 98.04,482.3705 C96.2555,486.2995 95.9065,492.3455 101.0325,493.821 C124.994,506.4495 149.0335,518.7165 172.9355,531.515 C179.625,534.708 193.2175,544.466 196.1165,541.5775 C207.9645,528.6675 222.828,519.0735 238.284,515.3775 C239.2935,515.136 240.1845,514.128 240.256,513.0915 C241.697,492.208 240.529,471.01 240.4925,450.259 C240.4895,449.2205 240.0925,447.639 239.6095,446.72 Z M195.243,538.227 C191.7145,540.144 184.4365,534.705 178.7985,531.758 C167.2095,525.6945 127.0315,504.76 101.487,490.7665 C98.144,489.3145 100.3015,485.5095 100.7885,482.975 C108.344,463.3555 117.028,444.178 127.0615,425.7215 C136.5765,404.999 165.2425,407.223 173.5535,382.8785 C177.765,370.548 189.42,374.337 199.568,380.2185 C205.028,383.3815 210.1915,387.281 212.0565,393.794 C211.7645,401.513 208.5705,408.6955 206.6485,416.042 C206.3865,417.0465 206.294,418.702 206.404,419.7355 C207.768,432.507 208.668,445.336 210.18,458.1135 C207.6605,485.1895 202.0925,511.964 195.243,538.227 Z M198.766,535.402 C204.285,512.3405 209.294,485.01 212.631,462.5605 C212.7815,461.534 213.065,461.528 213.253,462.5475 C216.6785,481.132 217.3855,500.0955 219.7065,518.793 C213.27,524.9295 204.996,528.997 198.766,535.402 Z M238.3695,508.592 C238.4905,516.5495 227.8485,514.924 222.5655,517.654 C217.9505,496.0715 219.6,473.322 213.003,452.0105 C210.2385,441.711 210.1305,430.984 208.637,420.4875 C209.5335,411.639 214.3205,403.5315 214.4005,394.547 C212.595,385.4675 204.652,380.6215 197.5095,375.787 C200.197,376.0735 203.8205,377.756 207.082,379.252 C213.6515,382.266 223.89,388.9245 224.38,394.65 C224.882,400.5355 221.7875,406.2485 220.257,411.983 C219.991,412.985 220.1065,414.5725 220.5445,415.5115 C226.154,427.589 234.6645,438.508 238.161,451.493 C239.245,470.5215 238.748,489.517 238.3695,508.592 L238.3695,508.592 Z" id="Fill-45" fill="#544853"></path>
        <path d="M204.6495,454.968 C186.1475,444.107 161.8075,435.3765 141.843,424.1595 C138.1235,421.786 138.014,424.3355 142.9345,426.8525 C162.5395,436.8875 184.579,446.925 204.4865,455.2685 C205.6915,455.7735 205.77,455.6275 204.6495,454.968" id="Fill-46" fill="#544853"></path>
        <path d="M208.8115,521.4025 C211.7715,519.4005 214.4325,516.3015 216.7475,513.698 C212.835,512.4595 209.7385,518.0445 208.8115,521.4025" id="Fill-47" fill="#544853"></path>
        <path d="M225.3315,507.9405 C224.1475,511.3555 232.058,513.663 233.574,510.233 C230.761,509.338 227.6235,510.592 225.3315,507.9405" id="Fill-48" fill="#544853"></path>
        <path d="M162.462,493.04 C152.056,491.36 153.844,478.08 147.154,472.0985 C141.7725,466.91 135.1185,474.267 137.9875,480.149 C136.665,478.5045 134.1205,471.8845 133.213,476.9885 C141.3425,491.483 160.7455,497.893 176.4955,495.711 C176.6495,490.9755 166.6445,494.9995 162.462,493.04 Z M144.6785,475.927 C144.2755,474.9725 143.2515,474.9935 142.9635,475.9905 C141.973,479.4045 144.1605,483.204 145.7555,486.209 C139.3725,485.9855 137.715,470.0445 145.27,474.299 C149.126,478.6755 151.098,484.389 152.523,489.956 C145.398,488.8435 146.791,480.8955 144.6785,475.927 L144.6785,475.927 Z" id="Fill-49" fill="#544853"></path>
        <path d="M176.563,463.0645 C172.5315,461.6725 170.3985,470.37 175.0145,472.075 C179.1975,474.633 181.5415,468.584 179.479,465.359 C178.92,464.486 177.5435,463.403 176.563,463.0645" id="Fill-50" fill="#544853"></path>
        <path d="M152.963,451.831 C149.7105,449.92 144.326,452.1935 146.34,456.576 C148.5695,460.2505 152.809,458.166 154.0105,454.9345 C154.371,453.964 153.858,452.357 152.963,451.831" id="Fill-51" fill="#544853"></path>
        <path d="M197.6725,386.974 C186.6525,379.3295 182.007,390.2085 180.0465,398.5275 C182.2335,404.982 189.852,408.0705 196.213,409.3335 C201.6805,403.772 206.749,393.272 197.6725,386.974 Z M192.499,387.737 C189.4485,392.05 187.3405,396.891 185.359,401.7655 C179.195,398.746 186.2245,383.7775 192.499,387.737 Z M195.572,406.0815 C192.8955,405.2925 188.4895,404.7745 188.2085,403.082 C187.461,398.5795 192.2375,390.262 195.45,388.916 C204.4175,393.6965 197.593,402.321 195.572,406.0815 L195.572,406.0815 Z" id="Fill-52" fill="#544853"></path>
        <path d="M457.3985,185.4105 C443.4375,171.0865 422.6825,177.8345 411.45,155.2065 C404.623,141.452 391.751,144.1645 383.719,147.8435 C373.675,152.444 361.291,159.421 357.7665,169.1835 C354.3155,178.7405 366.6425,187.286 361.3605,196.594 C356.501,205.9645 353.423,216.047 349.5255,225.7955 C349.1405,226.76 348.908,228.375 349.0115,229.4075 C351.1155,250.0515 352.1395,271.2575 355.7255,291.8815 C355.9035,292.904 356.8935,293.814 357.923,293.951 C373.6775,296.033 389.451,304.044 402.5675,315.663 C405.748,318.2385 418.2615,307.13 424.587,303.2645 C447.042,288.069 469.6885,273.39 492.2205,258.357 C497.166,256.3615 496.1965,250.3835 494.0165,246.66 C482.2645,225.998 471.0595,204.862 457.3985,185.4105 Z M373.792,294.5945 C368.256,292.4235 357.839,295.1385 357.1385,287.2105 C354.795,268.277 352.342,249.4335 351.458,230.3945 C353.5975,217.118 360.9365,205.3795 365.2705,192.7885 C365.6095,191.8085 365.5605,190.2185 365.1925,189.249 C363.079,183.703 359.412,178.3395 359.3045,172.433 C359.201,166.688 368.698,159.01 374.923,155.3335 C378.0125,153.51 381.4435,151.462 384.087,150.9 C377.4805,156.4455 370.08,162.0845 369.22,171.3015 C370.2255,180.2295 375.824,187.8015 377.628,196.5095 C377.2245,207.105 378.2235,217.7855 376.535,228.315 C372.171,250.1935 376.1575,272.6515 373.792,294.5945 Z M376.753,295.4335 C377.134,276.596 375.882,257.66 377.373,238.822 C377.455,237.788 377.7375,237.7655 377.993,238.7705 C383.628,260.756 391.428,287.4245 399.294,309.794 C392.4375,304.0665 383.788,300.874 376.753,295.4335 Z M491.453,255.367 C467.4875,271.919 429.6815,296.8855 418.78,304.1105 C413.4765,307.624 406.798,313.783 403.091,312.241 C393.5705,286.824 385.2705,260.766 379.9725,234.094 C380.159,221.229 379.7315,208.375 379.7715,195.531 C379.7735,194.4925 379.5115,192.855 379.1475,191.8835 C376.4775,184.773 372.5605,177.959 371.4745,170.312 C372.658,163.641 377.3925,159.2295 382.496,155.52 C391.9845,148.624 403.1865,143.653 408.6475,155.4845 C419.424,178.842 447.707,173.6735 459.3085,193.305 C471.1915,210.629 481.8065,228.8085 491.345,247.5445 C492.091,250.015 494.628,253.5775 491.453,255.367 L491.453,255.367 Z" id="Fill-53" fill="#544853"></path>
        <path d="M444.4445,193.276 C425.743,206.491 402.4325,217.685 385.1495,230.396 C384.1025,231.167 384.1965,231.304 385.3425,230.677 C404.283,220.3255 425.171,208.0695 443.6365,196.067 C448.2715,193.0555 447.8995,190.531 444.4445,193.276" id="Fill-54" fill="#544853"></path>
        <path d="M379.172,290.0595 C381.743,292.411 384.709,295.2185 387.8595,296.904 C386.591,293.661 382.9355,288.4245 379.172,290.0595" id="Fill-55" fill="#544853"></path>
        <path d="M362.077,288.3485 C363.9385,291.604 371.5695,288.493 370.04,285.2185 C368.033,288.0915 364.7825,287.1675 362.077,288.3485" id="Fill-56" fill="#544853"></path>
        <path d="M454.0515,248.5685 C456.3,242.423 448.922,235.7905 444.1055,241.506 C438.0675,248.147 441.215,261.171 431.037,263.915 C427.08,266.296 416.712,263.324 417.3545,268.019 C433.245,268.5645 451.8845,260.1885 458.4755,244.9335 C457.046,239.95 455.198,246.7965 454.0515,248.5685 Z M446.95,255.3975 C448.2275,252.2445 450.0115,248.239 448.674,244.946 C448.285,243.984 447.2645,244.0685 446.961,245.059 C445.372,250.219 447.578,257.9805 440.6055,259.823 C441.448,254.1385 442.8215,248.252 446.205,243.5005 C453.281,238.4905 453.2765,254.517 446.95,255.3975 L446.95,255.3975 Z" id="Fill-57" fill="#544853"></path>
        <path d="M413.921,235.553 C412.9805,235.9905 411.7225,237.209 411.258,238.1355 C409.538,241.556 412.493,247.3315 416.3905,244.356 C420.8065,242.1845 417.788,233.7525 413.921,235.553" id="Fill-58" fill="#544853"></path>
        <path d="M436.2375,221.9465 C435.4005,222.5615 435.0565,224.212 435.5155,225.141 C437.043,228.231 441.4755,229.8675 443.3135,225.9835 C444.8655,221.416 439.2755,219.71 436.2375,221.9465" id="Fill-59" fill="#544853"></path>
        <path d="M385.078,162.0445 C376.7,169.245 382.824,179.166 388.836,184.134 C395.033,182.222 402.292,178.3645 403.8015,171.7195 C400.993,163.6465 395.251,153.304 385.078,162.0445 Z M396.1535,177.091 C396.048,178.8035 391.72,179.773 389.1375,180.8335 C386.7405,177.301 379.0625,169.427 387.489,163.747 C390.823,164.7545 396.4325,172.5355 396.1535,177.091 Z M398.8515,175.488 C396.378,170.844 393.7825,166.245 390.3035,162.27 C396.1355,157.684 404.672,171.849 398.8515,175.488 L398.8515,175.488 Z" id="Fill-60" fill="#544853"></path>
        <path d="M292.2995,513.802 C291.7135,513.243 290.615,512.5695 289.827,512.383 C287.6275,511.8575 285.091,511.7715 283.831,512.5305 C280.8445,514.333 276.8405,518.048 274.4605,522.3645 C274.069,523.074 274.245,524.1565 274.775,524.7685 C282.367,533.5195 315.1125,574.986 336.438,600 L338.9415,600 C317.627,575.0175 297.327,549.854 277.9685,525.301 C277.4675,524.665 277.331,524.127 277.665,524.0975 C277.9985,524.0685 278.715,524.5215 279.264,525.118 C300.9795,548.756 320.2325,575.299 341.3075,600 L343.7315,600 C322.524,575.339 302.858,549.3265 281.8655,524.5185 C281.3425,523.9015 281.284,522.8555 281.7735,522.21 C284.186,519.044 286.9095,516.966 289.9165,515.172 C290.612,514.757 291.7915,514.7635 292.265,515.422 C293.6485,517.3535 289.708,518.3085 289.9665,519.883 C290.0955,520.6825 290.9885,520.3465 291.52,519.7335 C293.6945,517.2265 298.671,520.5655 296.456,522.9435 C295.904,523.535 295.1285,524.4475 295.2865,525.242 C295.7215,527.4365 298.629,521.707 300.375,523.8235 C300.8895,524.4475 301.6795,525.2685 302.326,525.759 C304.704,527.5655 299.528,530.717 300.829,531.2225 C301.587,531.5155 302.5985,530.545 303.3455,530.2335 C306.0645,529.1025 310.6125,534.5245 307.631,535.591 C306.866,535.8635 305.8585,536.366 305.78,537.172 C305.5605,539.463 310.2375,534.7795 312.132,537.0695 C312.6495,537.6945 313.38,538.669 313.839,539.337 C314.783,540.712 311.161,540.965 310.55,542.543 C310.2595,543.3 311.342,543.6835 312.0715,543.328 C314.7725,542.009 316.4325,541.0315 317.9895,543.995 C318.365,544.712 318.048,545.718 317.406,546.212 C311.9425,550.416 321.255,545.7695 323.449,550.3605 C323.797,551.09 323.216,551.9705 322.494,552.338 C319.257,553.9815 321.1945,555.6075 324.2675,554.7285 C325.046,554.505 326.298,554.339 326.957,554.8105 C329.709,556.7705 323.466,560.1105 325.5195,560.55 C326.3115,560.7205 327.3865,559.952 328.162,559.709 C330.536,558.961 333.1895,562.8105 331.044,564.0965 C330.3495,564.5115 328.8545,565.0575 329.1505,565.8105 C329.408,566.466 331.043,566.1895 332.3605,565.76 C333.132,565.509 334.298,565.539 334.8215,566.1565 C336.043,567.587 336.0585,569.4475 334.4805,570.4355 C333.795,570.866 333.1015,571.784 333.7705,572.242 C334.881,573 336.915,570.8185 338.2825,571.0145 C339.083,571.129 339.883,572.663 339.453,573.3485 C338.9715,574.116 337.458,574.5255 336.658,575.3595 C336.0965,575.9445 336.824,576.784 337.6125,576.6015 C339.8885,576.074 341.623,574.0665 342.9025,576.662 C343.2595,577.3895 342.835,578.3525 342.1455,578.7765 C336.592,582.1955 347.133,578.922 347.545,583.164 C347.622,583.969 346.865,585.04 346.296,585.617 C342.5935,589.3525 350.7315,584.825 351.788,588.325 C352.0235,589.0995 351.3195,590.1575 350.707,590.6905 C346.9265,593.9705 355.4385,591.0145 356.3115,593.9405 C356.542,594.716 355.619,595.6365 354.8935,595.993 C349.716,598.545 360.842,596.244 360.3335,600 L362.9225,600 C339.4585,571.1815 319.2145,539.4135 292.2995,513.802 Z M287.396,514.576 C284.961,516.3465 280.962,520.0705 279.1865,521.868 C278.877,522.1845 278.2345,522.214 277.5615,522.2225 C276.752,522.2335 276.46,521.7685 276.9425,521.117 C279.0245,518.3085 282.3715,514.7725 284.137,513.745 C284.6965,513.418 286.0245,513.4775 287.175,513.5995 C287.982,513.6855 288.052,514.1005 287.396,514.576 L287.396,514.576 Z" id="Fill-61" fill="#544853"></path>
        <path d="M354.9355,19.2915 C355.631,19.367 358.172,19.625 359.9045,19.655 C360.716,19.67 361.7365,19.03 362.28,18.427 C364.7245,15.705 368.4785,13.6555 370.251,10.8255 C370.6805,10.1395 370.4685,9.015 369.9385,8.4005 C367.562,5.635 365.227,2.831 362.9225,0 L360.3335,0 C360.2695,0.473 360.022,1.0415 359.533,1.728 C355.677,8.228 363.299,-0.1585 364.83,4.711 C365.072,5.4825 364.494,6.466 363.826,6.927 C361.4345,8.565 364.6395,7.926 366.7285,8.684 C367.4895,8.961 367.495,9.988 366.953,10.5915 C364.991,12.7735 362.628,15.1895 360.3055,16.515 C359.6045,16.9155 358.537,16.662 357.9905,16.0655 C353.141,10.795 348.4005,5.429 343.732,0 L341.3075,0 C345.7655,5.225 350.3,10.3725 354.962,15.387 C355.5145,15.98 356.458,17.5345 355.6485,17.525 C354.881,17.5165 353.42,16.758 352.1365,15.2905 C347.6945,10.206 343.2985,5.1065 338.9415,0 L336.438,0 C345.991,11.205 353.2535,19.11 354.9355,19.2915" id="Fill-62" fill="#544853"></path>
        <path d="M189.406,272.248 C189.295,273.6365 189.7785,273.9345 190.843,273.1215 C213.892,262.4775 240.439,252.783 264.1885,243.6355 C266.0935,243.6915 266.882,242.861 266.052,241.035 C241.589,251.491 212.7085,260.423 189.406,272.248" id="Fill-63" fill="#544853"></path>
        <path d="M192.385,278.8885 C191.196,279.3635 192.083,281.426 193.2375,280.22 C219.728,269.7815 247.278,258.373 273.763,247.9395 C273.7265,247.596 273.6505,246.896 273.615,246.554 C246.819,256.795 218.985,268.3855 192.385,278.8885" id="Fill-64" fill="#544853"></path>
        <path d="M259.25,239.2435 C237.7335,249.5695 211.0615,259.0685 189.0335,268.0625 C186.524,269.283 188.7225,270.518 190.84,269.4685 C211.9595,260.2095 237.863,251.0855 258.837,241.487 C260.951,241.785 261.874,237.7535 259.25,239.2435" id="Fill-65" fill="#544853"></path>
        <path d="M271.978,251.322 C246.5895,261.836 220.175,271.9975 194.759,282.432 C192.986,283.29 193.1675,284.4965 194.9965,283.916 C222.2,273.332 249.7315,261.223 277.152,251.2005 C278.5745,247.878 273.4075,250.5165 271.978,251.322" id="Fill-66" fill="#544853"></path>
        <path d="M190.47,275.757 C188.756,276.5095 189.3415,277.8605 190.9795,277.335 C217.057,267.2025 244.643,254.103 271.246,245.2995 C271.1655,244.8595 271.0055,243.986 270.9225,243.5455 C244.052,253.428 217.3625,265.8645 190.47,275.757" id="Fill-67" fill="#544853"></path>
        <path d="M276.249,253.782 C267.353,257.6425 252.53,264.472 242.4705,268.5325 C227.8765,274.4245 210.98,280.714 196.3015,286.439 C195.3985,287.0075 196.4225,288.083 197.228,287.614 C210.0895,282.764 225.7545,276.6575 238.444,271.6155 C252.655,265.9655 267.5355,259.3785 279.1665,254.2 C279.59,251.83 277.4835,253.411 276.249,253.782" id="Fill-68" fill="#544853"></path>
        <path d="M309.2305,113.571 C281.655,128.0025 252.342,139.1035 224.486,152.961 C209.5455,188.3315 194.817,223.582 182.496,259.9105 C182.1155,261.0325 181.341,262.108 180.839,263.186 C180.2825,264.379 178.34,268.0285 180.0665,269.0365 C180.8295,269.482 181.8605,268.6105 182.548,269.0415 C183.2905,269.5075 183.1455,271.039 183.601,271.742 C184.3125,272.84 184.838,273.5855 185.0685,274.907 C185.492,277.3435 186.677,279.019 188.3155,280.8705 C189.0715,281.725 189.9535,282.436 190.331,283.5395 C190.662,284.5115 190.453,285.65 190.9905,286.5615 C191.514,287.449 192.602,287.9665 193.289,288.732 C193.5765,289.0545 195.9265,294.4165 196.0445,294.366354 C227.5985,280.838 261.736,271.6385 291.0565,253.1125 C309.0125,215.0035 321.2595,174.4295 336.697,135.2455 C338.8425,129.6365 343.081,123.3645 339.6815,117.3695 C334.245,105.949 317.377,103.9095 309.2305,113.571 Z M182.0785,267.3145 C180.044,267.5905 182.8795,263.264 183.3575,261.8425 C196.3325,225.342 210.7015,189.2645 226.652,154.001 C253.8495,141.295 281.3375,128.6585 308.866,116.7855 C294.5175,148.982 284.036,183.6255 267.9895,215.439 C264.845,221.762 263.018,228.963 259.56,234.941 C233.1695,244.514 208.479,257.852 182.0785,267.3145 Z M285.5675,254.0975 C258.1535,269.3645 228.707,280.22 199.03,290.1365 C195.902,291.196 196.0805,289.1655 194.8605,287.3365 C194.351,286.573 193.552,286.3005 192.7125,285.487 C192.0605,284.856 191.9115,283.322 191.596,282.4915 C191.026,280.987 189.5575,280.0425 188.5805,278.6365 C188.143,278.0065 186.9795,276.004 186.6695,274.134 C186.294,271.88 184.628,269.8515 185.144,267.7225 C212.1455,258.911 236.696,243.592 264.12,235.8655 C268.3585,234.685 273.1635,241.681 277.4255,245.3765 C281.696,249.082 287.4105,253.119 285.5675,254.0975 Z M288.283,251.592 C283.224,247.8755 277.069,243.9175 270.874,235.5575 C277.718,235.9395 292.2945,241.6965 288.283,251.592 Z M337.4365,128.0225 C324.3565,159.8375 313.8065,192.487 301.241,224.506 C297.6045,232.4015 293.2635,240.2475 291.392,248.775 C290.1795,237.082 274.4135,231.5105 263.364,233.94 C266.957,219.576 275.2485,206.815 280.7255,193.097 C288.443,173.5515 296.6315,154.22 303.1145,134.2605 C308.256,126.2595 307.9675,112.775 319.088,110.3125 C329.168,106.168 343.003,117.5155 337.4365,128.0225 L337.4365,128.0225 Z" id="Fill-69" fill="#544853"></path>
        <path d="M589.8565,403.4815 C590.3585,405.424 591.492,405.5735 592.9395,404.332 C595.269,403.581 597.628,402.8145 600,402.0425 L600,400.462 C596.584,401.5215 593.1985,402.5355 589.8565,403.4815" id="Fill-70" fill="#544853"></path>
        <path d="M587.4425,412.5295 C587.63,412.8165 588.0115,413.409 588.198,413.6985 C592.1045,412.471 596.043,411.246 600,410.022 L600,408.5035 C595.7845,409.838 591.593,411.178 587.4425,412.5295" id="Fill-71" fill="#544853"></path>
        <path d="M594.0215,397.8125 C591.043,398.303 594.295,400.8585 595.752,399.299 C597.1545,398.94 598.5715,398.5675 600,398.1825 L600,396.3285 C597.988,396.845 595.9885,397.347 594.0215,397.8125" id="Fill-72" fill="#544853"></path>
        <path d="M591.712,415.207 C590.0945,415.4795 584.417,416.675 587.6125,418.3645 C591.713,416.9635 595.8465,415.6 600,414.2595 L600,412.7335 C597.233,413.565 594.468,414.3935 591.712,415.207" id="Fill-73" fill="#544853"></path>
        <path d="M587.6455,408.496 C587.8585,408.8905 588.283,409.67 588.496,410.0625 C592.2635,408.644 596.109,407.287 600,405.9695 L600,404.4675 C595.856,405.7735 591.733,407.109 587.6455,408.496" id="Fill-74" fill="#544853"></path>
        <path d="M589.9365,419.803 C588.744,420.293 586.1115,420.3865 587.9305,421.965 C591.6785,420.9645 595.746,419.8755 600,418.7175 L600,417.093 C596.267,418.0855 592.798,419.011 589.9365,419.803" id="Fill-75" fill="#544853"></path>
        <path d="M582.8885,425.9065 C580.839,426.3045 582.747,419.5735 583.7385,414.008 C584.7305,408.455 584.0705,399.991 588.1105,398.246 C592.022,396.569 595.991,395.0665 600,393.686 L600,391.744 C597.014,392.6765 594.037,393.6405 591.074,394.661 C584.629,392.1855 578.6805,387.7335 572.2615,384.793 C539.785,370.132 509.8585,349.7745 478.461,333.752 C507.335,325.6845 536.657,318.2365 565.798,311.0245 C577.2795,316.804 588.68,322.7665 600,328.89 L600,326.766 C588.9905,320.7375 577.9235,314.7925 566.829,308.8535 C536.452,315.584 506.676,325.374 476.1575,331.4805 C463.749,329.089 451.91,341.2745 454.8605,353.575 C455.9855,360.374 463.2225,362.589 468.419,365.6025 C505.0535,386.376 540.08,410.2375 577.999,428.591 C585.422,427.725 592.7455,426.38 600,424.712 L600,422.458 C594.334,423.753 588.632,424.9115 582.8885,425.9065 Z M552.0965,412.742 C522.199,395.7385 493.4715,376.9735 463.302,360.45 C452.369,355.7755 455.997,338.256 466.4425,335.1425 C476.6385,330.0685 484.8905,340.7365 493.918,343.7295 C511.507,355.178 530.0255,365.0675 548.3125,375.42 C561.1955,382.6455 575.665,387.3605 587.4875,396.2745 C577.366,401.329 568.6055,415.5725 575.0115,425.4285 C568.1965,419.9715 559.8875,416.5975 552.0965,412.742 Z M582.662,402.254 C583.0985,412.6485 580.8,419.595 579.2,425.665 C569.8605,420.4905 577.58,406.8515 582.662,402.254 L582.662,402.254 Z" id="Fill-76" fill="#544853"></path>
        <path d="M69.088,379.585 C46.8685,384.321 22.745,393.409 0,400.462 L0,402.0425 C22.291,394.786 46.27,386.777 68.5195,381.167 C69.8585,381.129 70.047,380.594 69.088,379.585" id="Fill-77" fill="#544853"></path>
        <path d="M70.9445,386.622 C47.807,393.87 23.4905,401.0695 0,408.5035 L0,410.0215 C23.5555,402.736 47.8605,395.4965 71.1195,388.1935 C72.775,388.4065 72.1685,386.243 70.9445,386.622" id="Fill-78" fill="#544853"></path>
        <path d="M66.7475,376.095 C45.891,382.3655 21.7505,390.7405 0,396.3285 L0,398.1825 C21.333,392.441 45.377,384.014 66.2255,378.3225 C68.5325,377.8085 69.4665,375.467 66.7475,376.095" id="Fill-79" fill="#544853"></path>
        <path d="M71.3255,390.868 C47.7515,397.906 23.696,405.612 0,412.7335 L0,414.2595 C23.8305,406.5675 48.391,399.7235 72.0735,392.172 C73.861,391.4755 73.2445,390.423 71.3255,390.868" id="Fill-80" fill="#544853"></path>
        <path d="M70.4655,382.9825 C47.423,390.802 23.3425,397.109 0,404.4675 L0,405.969 C23.195,398.1125 48.2395,391.8165 71.062,384.5295 C72.6655,383.908 72.272,382.4905 70.4655,382.9825" id="Fill-81" fill="#544853"></path>
        <path d="M72.663,396.451 C73.584,396.3105 73.7035,394.829 72.6445,394.955 C57.6295,399.7295 40.534,405.457 25.4795,410.048 C18.28,412.243 8.4605,414.8425 0,417.0925 L0,418.717 C9.707,416.074 20.395,413.069 30.5495,409.914 C43.5895,405.8605 59.611,400.7625 72.663,396.451" id="Fill-82" fill="#544853"></path>
        <path d="M76.4295,394.8455 C76.482,393.8185 77.0025,392.7305 76.8525,391.713 C76.698,390.666 75.8195,389.911 75.467,388.9465 C75.066,387.8525 75.305,386.744 75.356,385.6055 C75.4665,383.135 75.3345,381.089 74.1335,378.926 C73.481,377.753 73.422,376.8425 73.285,375.542 C73.1975,374.71 72.1215,373.6075 72.4075,372.7795 C72.671,372.0115 74.02,372.043 74.334,371.216 C75.043,369.3475 71.2385,367.7285 70.056,367.1515 C68.9875,366.628 67.709,366.2775 66.7085,365.6455 C44.916,351.8565 22.5825,339.1325 0,326.766 L0,328.89 C22.762,341.2025 45.1905,354.175 67.2525,367.6895 C68.5175,368.495 73.4425,370.077 71.6865,371.1425 C48.161,379.344 23.7645,384.3255 0,391.744 L0,393.686 C22.8295,385.8235 46.9835,381.9925 69.559,373.386 C71.2985,374.717 71.278,377.341 72.4025,379.33 C73.336,380.9805 73.6905,383.2685 73.7455,384.034 C73.869,385.741 73.321,387.3995 73.823,388.9285 C74.1,389.7715 74.9485,391.0585 74.8385,391.96 C74.696,393.119 74.246,393.834 74.329,394.748 C74.5305,396.9375 75.946,398.4045 72.8465,399.547 C48.9775,408.455 24.835,416.781 0,422.4575 L0,424.712 C26.4145,418.639 51.9015,408.265 77.827,400.96 C77.9505,400.926 76.4085,395.2775 76.4295,394.8455" id="Fill-83" fill="#544853"></path>
        <path d="M56.7085,441.577 C56.5265,440.788 55.8035,439.8195 55.039,439.552 C50.695,438.0285 45.3835,439.841 41.016,440.991 C40.233,441.1985 39.503,442 39.483,442.8095 C39.375,446.884 40.767,451.468 40.939,455.836 C40.971,456.6445 40.302,457.427 39.515,457.617 C18.881,462.634 6.8345,485.6115 14.0185,505.2795 C20.0125,521.6965 37.0095,531.9365 54.3045,532.169 C55.115,532.1805 55.8745,532.8145 56.004,533.6135 C56.45,536.3955 56.977,539.3625 58.029,541.835 C58.346,542.581 59.321,543.245 60.1275,543.3205 C64.512,543.7295 69.4635,543.3585 73.4215,541.9325 C74.184,541.658 74.7235,540.7275 74.647,539.922 C71.51,506.704 64.2415,474.007 56.7085,441.577 Z M62.1885,541.2745 C61.3785,541.2705 60.1885,540.8975 59.7395,540.2225 C58.2985,538.0535 58.4035,534.7215 58.072,531.9315 C57.977,531.127 57.1815,530.498 56.3705,530.4895 C39.13,530.294 22.029,520.9825 16.2135,504.3155 C9.6375,485.4705 21.8195,463.5585 41.73,459.873 C42.528,459.7245 43.348,458.999 43.402,458.1905 C43.685,453.8585 41.07,448.425 41.658,444.217 C41.77,443.415 42.6635,442.7695 43.4605,442.62 C47.386,441.884 53.1455,439.243 54.611,442.885 C54.9135,443.636 54.286,444.4415 53.503,444.6495 C49.177,445.803 56.555,445.6155 57.1485,449.2815 C57.278,450.081 56.3995,450.834 55.611,451.0205 C50.385,452.2625 59.8635,453.1835 58.5815,457.0955 C58.3295,457.866 57.226,458.5655 56.4885,458.9035 C52.698,460.635 60.841,459.962 60.3935,464.081 C60.3065,464.8865 59.319,465.4435 58.51,465.454 C53.0525,465.5285 62.8195,468.135 61.4385,471.5295 C61.1335,472.2805 59.889,472.6425 59.078,472.6505 C54.0885,472.6905 63.131,474.593 63.0305,477.744 C63.006,478.5535 61.819,479.2305 61.053,479.494 C56.0365,481.21 64.5525,481.1005 64.766,485.6485 C64.8045,486.457 63.9255,487.0115 63.1145,487.0265 C59.249,487.093 60.559,489.5615 63.9275,490.1105 C64.727,490.241 65.882,490.6985 66.1495,491.463 C67.154,494.3225 60.8145,493.9835 62.026,495.4005 C62.5525,496.0165 63.8855,496.115 64.6935,496.1825 C68.57,496.509 66.7015,500.8545 64.798,503.1015 C64.2745,503.7205 64.327,503.7645 65.131,503.667 C68.7835,503.212 69.931,509.3105 66.277,509.4835 C65.4675,509.5215 64.44,510.002 64.801,510.7275 C65.4575,512.041 68.7225,510.548 69.5185,511.8215 C69.949,512.507 70.031,513.8115 70.104,514.618 C70.329,517.089 64.6805,515.1375 64.954,516.5985 C65.102,517.3945 66.3765,517.492 67.181,517.3965 C71.45,516.884 72.348,523.72 68.077,523.828 C67.267,523.8485 66.7825,524.369 67.4765,524.787 C69.1655,525.8045 72.528,524.925 71.9125,528.3585 C71.7695,529.1565 70.861,529.7725 70.052,529.8175 C65.6265,530.0625 68.6315,531.0965 70.8225,532.5295 C71.5,532.9715 71.3185,533.286 70.512,533.3645 C67.745,533.627 67.9775,536.367 70.7405,536.249 C71.55,536.215 72.4255,536.5985 72.507,537.4045 C72.956,541.9065 66.34,541.3065 62.1885,541.2745 L62.1885,541.2745 Z" id="Fill-84" fill="#544853"></path>
        <path d="M45.352,492.2225 C45.2715,489.6535 49.373,488.841 49.2355,485.7395 C49.052,481.5995 47.3465,476.54 45.973,472.5525 C45.7085,471.787 44.838,471.1915 44.034,471.291 C31.9405,472.801 21.9415,486.0325 24.4065,498.212 C24.5675,499.005 24.854,500.285 25.037,501.0735 C27.5695,512.0235 37.896,517.8525 52.007,517.833049 C52.8175,517.831 53.704,517.1925 53.878,516.4015 C54.8455,512.0155 53.586,506.627 52.853,502.165 C51.6185,494.67 45.496,496.8495 45.352,492.2225 Z M50.216,515.1985 C40.9755,516.2725 30.0055,510.247 27.1525,500.915 C23.4005,489.6915 31.362,476.511 42.68,473.949 C43.47,473.7705 44.3755,474.289 44.661,475.047 C45.8525,478.202 46.767,481.6365 47.002,484.991 C47.058,485.8 46.4175,486.626 45.7045,487.01 C40.9595,489.5655 42.175,496.6125 47.787,498.6035 C48.551,498.875 49.466,499.58 49.728,500.3465 C51.131,504.419 51.506,509.2785 51.629,513.501 C51.6525,514.3115 51.02,515.1045 50.216,515.1985 L50.216,515.1985 Z" id="Fill-85" fill="#544853"></path>
        <path d="M206.083,316.3865 C190.6055,317.249 119.9245,330.879 99.455,337.4735 C96.2335,338.418 88.4355,345.8165 85.531,348.038 C84.8875,348.53 84.995,349.124 85.776,349.337 C89.1715,350.253 98.0685,352.2745 105.4875,350.6395 C138.663,343.1845 172.6895,337.256 207.656,328.659 C214.8945,326.88 214.924,315.42 206.083,316.3865 Z M103.3015,338.876 C114.554,334.822 174.2135,321.8975 192.668,319.624 C194.974,319.28 194.558,323.6365 193.568,324.759 C172.3875,328.41 112.915,339.75 104.651,342.837 C102.747,342.8145 103.1965,340.173 103.3015,338.876 Z M90.7875,346.33 C92.908,343.749 96.4835,340.6145 99.2435,339.8215 C101.3795,340.746 102.3145,343.288 100.8245,343.741 C97.8055,344.6555 89.559,347.8235 90.7875,346.33 Z M92.5115,349.451 C85.598,348.3205 100.674,345.633 102.3245,346.1905 C108.94,348.422 100.8565,350.8155 92.5115,349.451 Z M108.0305,348.4435 C105.1405,349.783 106.638,345.574 104.31,344.835 C119.8335,340.627 177.926,329.0635 193.3145,326.747 C194.557,326.919 195.741,328.456 195.834,329.6485 C164.7565,337.216 137.1715,341.617 108.0305,348.4435 Z M197.2525,328.1455 C194.973,325.8535 195.345,321.92 196.5905,319.9715 C197.026,319.288 197.4415,319.587 197.2995,320.3845 C196.8775,322.7685 196.979,325.373 197.8255,327.6885 C198.1025,328.449 197.8235,328.7205 197.2525,328.1455 Z M205.884,327.3555 C196.1855,329.384 196.0475,317.9285 205.4345,318.172 C213.4625,318.381 210.604,326.366 205.884,327.3555 L205.884,327.3555 Z" id="Fill-86" fill="#544853"></path>
        <path d="M553.869,265.3985 C547.218,273.291 560.3525,282.634 565.0135,272.962 C568.67,265.378 559.158,259.8495 553.869,265.3985 Z M561.3945,275.082 C556.708,277.6035 551.74,271.085 554.8975,266.704 C560.248,261.043 567.8615,271.6055 561.3945,275.082 L561.3945,275.082 Z" id="Fill-87" fill="#544853"></path>
        <path d="M598.3195,271.2695 C594.3115,268.3485 596.0535,262.447 600,260.393 L600,257.957 C592.859,260.119 591.6945,271.849 600,273.8265 L600,272.1495 C599.443,271.959 598.8805,271.6785 598.3195,271.2695" id="Fill-88" fill="#544853"></path>
        <path d="M596.626,246.842 C597.4265,245.7235 598.7505,245.2315 600,245.304 L600,243.562 C598.2205,243.3875 596.348,244.052 595.0995,245.854 C592.107,250.0195 596.047,255.295 600,254.966 L600,252.857 C597.1955,253.355 594.063,250.058 596.626,246.842" id="Fill-89" fill="#544853"></path>
        <path d="M539.499,68.876 C535.3615,74.6365 544.4805,82.528 548.5575,74.769 C552.0975,68.0365 543.1435,63.6195 539.499,68.876 Z M547.3195,72.9445 C545.242,79.179 537.385,74.4345 541.0275,69.864 C543.132,66.921 548.867,68.3035 547.3195,72.9445 L547.3195,72.9445 Z" id="Fill-90" fill="#544853"></path>
        <path d="M536.3085,256.05 C528.7605,256.9905 530.247,266.8615 536.6435,266.8535 C543.7355,266.96 545.007,254.968 536.3085,256.05 Z M536.582,265.033 C532.964,264.9875 530.825,259.4875 535.5185,258.1095 C541.8225,256.2545 542.413,265.413 536.582,265.033 L536.582,265.033 Z" id="Fill-91" fill="#544853"></path>
        <path d="M550.1945,13.3775 C542.6455,14.317 544.134,24.19 550.5285,24.18 C557.622,24.2885 558.8925,12.296 550.1945,13.3775 Z M550.4685,22.3625 C546.8505,22.3145 544.712,16.8155 549.4045,15.437 C555.709,13.5835 556.3,22.742 550.4685,22.3625 L550.4685,22.3625 Z" id="Fill-92" fill="#544853"></path>
        <path d="M549.791,29.84 C546.8565,33.9265 553.325,39.524 556.218,34.021 C558.7285,29.244 552.377,26.113 549.791,29.84 Z M555.0625,32.6545 C553.758,36.565 548.826,33.5875 551.1125,30.719 C552.4335,28.873 556.033,29.739 555.0625,32.6545 L555.0625,32.6545 Z" id="Fill-93" fill="#544853"></path>
        <path d="M572.2255,260.4725 C566.2625,266.133 569.6895,279.3965 579.0315,280.116 C588.869,280.875 595.0545,268.467 588.2645,260.905 C583.7815,255.9085 576.491,256.4235 572.2255,260.4725 Z M577.037,277.3205 C570.4885,275.5605 568.841,264.5295 573.793,261.321 C576.591,259.51 582.08,257.586 586.3165,261.4495 C593.827,268.299 586.1775,280.62 577.037,277.3205 L577.037,277.3205 Z" id="Fill-94" fill="#544853"></path>
        <path d="M554.384,41.7835 C553.9315,40.816 553.332,39.881 552.5525,39.0135 C548.0685,34.0185 540.7775,34.532 536.5125,38.5815 C530.55,44.242 533.9765,57.504 543.3185,58.2245 C546.5605,58.474 549.4005,57.2895 551.5155,55.3235 C554.243,56.1415 557.369,55.279 559.1945,51.4885 C561.576,46.5505 558.37,42.4855 554.384,41.7835 Z M541.323,55.4295 C534.7745,53.668 533.128,42.6385 538.079,39.431 C540.878,37.618 546.366,35.695 550.6025,39.557 C551.343,40.233 551.9295,40.961 552.3865,41.721 C550.8585,41.8935 549.331,42.583 548.049,43.9265 C544.709,47.891 546.3615,52.219 549.423,54.3215 C547.218,55.8955 544.3555,56.5245 541.323,55.4295 Z M550.6785,53.258 C548.324,51.5925 547.091,47.99 549.078,45.2325 C550.416,43.82 551.8935,43.4175 553.257,43.664 C554.3085,47.0915 553.1125,50.8105 550.6785,53.258 Z M555.575,53.6115 C554.589,54.1415 553.591,54.268 552.658,54.1015 C554.792,51.4675 555.839,47.9315 555.248,44.5205 C558.1775,46.565 559.59,51.4525 555.575,53.6115 L555.575,53.6115 Z" id="Fill-95" fill="#544853"></path>
        <path d="M599.835,139.824 C599.3515,139.087 598.25,138.582 597.376,138.6955 L596.675,138.7875 C595.801,138.9005 595.539,138.4355 596.089,137.746 L596.923,136.7025 C597.4725,136.013 597.7675,134.7575 597.581,133.895 L596.916,130.835 C596.7285,129.9725 597.09,129.7725 597.7225,130.386 L599.9855,132.577 C599.9895,132.5815 599.9955,132.585 600,132.5895 L600,130.2085 C599.9845,130.1935 599.9655,130.179 599.95,130.1645 L594.7665,124.9735 C594.1435,124.3515 593.7645,124.549 593.918,125.418 L595.248,132.877 C595.4025,133.7465 595.171,135.0685 594.7275,135.8315 L592.537,139.61 C592.0955,140.3715 592.453,140.9805 593.334,140.9685 L596.9735,140.9165 C597.8545,140.906 598.994,141.47 599.5165,142.1785 L600,142.8315 L600,140.075 L599.835,139.824" id="Fill-96" fill="#544853"></path>
        <path d="M539.838,207.9265 C537.091,209.711 536.419,214.4365 539.5275,216.337 C543.664,218.867 550.0985,213.856 548.657,209.6885 C547.618,206.6815 542.4355,206.237 539.838,207.9265 Z M546.082,212.397 C544.2235,216.486 537.1035,215.5175 539.9885,210.2325 C541.177,208.052 547.744,208.73 546.082,212.397 L546.082,212.397 Z" id="Fill-97" fill="#544853"></path>
        <path d="M569.0665,205.1655 C566.1555,205.0015 562.628,208.996 563.3485,212.873 C564.3075,218.0315 571.672,217.6365 573.495,212.747 C574.8115,209.217 571.8205,205.3215 569.0665,205.1655 Z M567.468,214.482 C564.716,214.675 563.464,207.9195 567.9895,207.27 C573.039,206.5515 574.1425,214.0155 567.468,214.482 L567.468,214.482 Z" id="Fill-98" fill="#544853"></path>
        <path d="M581.9695,209.2845 C579.548,209.1485 576.6125,212.473 577.213,215.699 C578.0105,219.9915 584.1375,219.662 585.6555,215.5945 C586.75,212.657 584.2605,209.4165 581.9695,209.2845 Z M582.8195,216.2755 C579.6055,218.4385 576.382,213.702 580.791,211.1735 C582.6065,210.133 585.6975,214.3335 582.8195,216.2755 L582.8195,216.2755 Z" id="Fill-99" fill="#544853"></path>
        <path d="M566.426,220.1185 C564.75,220.0235 562.7195,222.323 563.135,224.5555 C563.6875,227.5235 567.925,227.297 568.9735,224.482 C569.7315,222.4505 568.01,220.2085 566.426,220.1185 Z M567.0125,224.9545 C564.791,226.4505 562.5605,223.1745 565.6095,221.427 C566.866,220.707 569.003,223.6115 567.0125,224.9545 L567.0125,224.9545 Z" id="Fill-100" fill="#544853"></path>
        <path d="M553.586,204.6055 C551.91,204.5095 549.881,206.808 550.295,209.04 C550.8475,212.0085 555.085,211.7805 556.1355,208.9675 C556.8925,206.9365 555.171,204.6935 553.586,204.6055 Z M554.173,209.4385 C551.95,210.935 549.7205,207.6595 552.7695,205.9115 C554.0265,205.19 556.164,208.096 554.173,209.4385 L554.173,209.4385 Z" id="Fill-101" fill="#544853"></path>
        <path d="M594.8165,225.973 C585.59,231.179 562.2335,237.617 550.7645,231.2515 C548.176,229.814 549.8465,226.5025 552.9045,224.358 C556.1545,222.083 558.4735,219.5115 552.084,223.0615 C548.992,224.7815 545.3125,229.82 548.8855,232.3975 C557.739,238.7835 586.8255,234.5715 600,224.4095 L600,222.4715 C598.5625,223.6885 596.748,224.883 594.8165,225.973" id="Fill-102" fill="#544853"></path>
        <path d="M599.4425,214.1475 C599.6385,214.2215 599.821,214.2985 600,214.375 L600,213.374 C597.463,212.6185 595.745,212.753 599.4425,214.1475" id="Fill-103" fill="#544853"></path>
        <path d="M590.7255,197.316 C588.293,199.7635 589.711,204.546 593.752,203.282 C599.117,201.6015 594.92,193.394 590.7255,197.316 Z M594.3515,201.4265 C592.6005,202.917 589.3555,201.272 591.5225,198.663 C593.4835,196.306 596.073,199.9605 594.3515,201.4265 L594.3515,201.4265 Z" id="Fill-104" fill="#544853"></path>
        <path d="M591.7215,231.626 C580.6065,236.181 568.591,239.1655 555.8195,238.0385 C537.211,236.395 518.0625,211.8615 524.291,192.181 C527.9815,193.8215 533.093,195.884 537.2765,196.862 C551.2735,200.1015 565.7745,198.9125 579.417,196.6965 C585.955,195.6345 593.454,193.7735 600,190.614 L600,187.7295 C599.8465,187.967 599.6405,188.178 599.4015,188.299 C598.3205,188.8485 596.121,187.933 598.4755,186.707 C599.2455,186.3055 599.7305,186.2565 600,186.396 L600,184.417 C598.752,183.7625 598.175,182.536 599.465,180.8475 C599.6125,180.659 599.794,180.4905 600,180.3405 L600,178.1425 C598.291,178.901 596.823,180.241 596.158,182.0385 C590.6905,180.1865 590.6825,189.277 585.244,186.193 C580.8555,180.588 571.624,186.792 574.4065,193.122 C575.5645,195.757 542.9695,200.472 527.7725,191.144 C546.1935,193.22 567.216,186.6115 587.5105,180.3745 C590.633,179.4145 595.384,177.771 600,176.809 L600,175.189 C582.422,178.4175 565.733,186.404 547.4875,188.3305 C540.1365,189.107 532.203,190.611 525.1125,189.177 C527.9705,179.5 534.165,172.862 542.285,164.9365 C553.75,153.7475 546.466,128.402 542.243,111.6445 C547.8975,111.09 553.5955,110.51 558.535,107.336 C562.7795,128.0365 563.8855,145.533 583.787,157.1415 C587.6995,159.424 594.3505,161.647 600,165.0325 L600,162.283 C596.2275,160.131 591.913,158.1995 587.0655,156.2135 C568.465,148.591 563.7695,126.1715 560.6975,105.4055 C565.5165,101.8005 566.244,93.4795 560.877,88.876 C554.4735,83.342 545.077,86.796 538.412,90.2935 C528.1075,95.702 527.9335,110.0325 539.789,111.216 C543.1065,122.908 546.297,136.7295 545.719,149.0405 C545.3545,162.0315 533.58,167.54 527.573,177.709 C522.8925,185.635 519.6065,195.1855 520.826,204.264 C523.165,221.6615 540.0645,242.308 562.837,241.0555 C571.2805,240.5915 584.6505,237.137 592.3925,233.832 C595.0345,232.704 597.587,231.329 600,229.7455 L600,226.9925 C597.447,228.8465 594.6725,230.416 591.7215,231.626 Z M592.4775,185.1035 C595.8915,180.857 596.7225,186.075 595.1135,187.7225 C593.7295,189.137 589.633,188.64 592.4775,185.1035 Z M586.6805,188.9215 C588.8645,186.56 589.457,189.9935 588.491,190.572 C587.7205,191.0325 585.3105,190.403 586.6805,188.9215 Z M577.42,187.0785 C579.7235,184.9825 586.0125,187.262 583.8025,190.8815 C580.552,194.6365 572.425,192.1115 577.42,187.0785 Z M536.3605,107.5355 C529.379,103.8125 533.6495,95.0985 539.157,92.0265 C544.16,89.237 549.949,87.046 555.828,88.6025 C561.2725,90.3605 563.6835,97.428 560.383,102.1405 C554.7655,108.875 544.2775,110.4645 536.3605,107.5355 L536.3605,107.5355 Z" id="Fill-105" fill="#544853"></path>
        <path d="M538.915,93.4525 C535.796,95.5325 533.8555,100.7015 538.077,102.896 C544.3075,106.1365 557.427,103.366 558.038,95.346 C558.749,86.043 544.1815,89.937 538.915,93.4525 Z M555.8105,95.564 C554.998,101.644 544.38,103.7505 539.094,100.923 C535.9775,99.254 538.759,95.5835 540.9805,94.3915 C545.206,92.1235 556.748,88.5655 555.8105,95.564 L555.8105,95.564 Z" id="Fill-106" fill="#544853"></path>
        <path d="M557.5615,158.615 C555.0275,160.572 553.92,164.8615 555.7325,167.824 C560.167,175.075 571.6125,168.3335 569.706,160.4315 C568.1545,153.998 560.87,156.0625 557.5615,158.615 Z M567.965,164.68 C565.4325,172.4645 552.4885,167.872 558.2,160.539 C562.3085,156.4785 570.1375,158.0015 567.965,164.68 L567.965,164.68 Z" id="Fill-107" fill="#544853"></path>
        <path d="M555.704,140.216 C554.1945,143.4535 559.587,146.859 561.5655,143.1595 C563.426,139.6865 557.255,136.89 555.704,140.216 Z M560.167,142.529 C559.5195,143.901 556.585,142.897 557.1045,141.1725 C557.6795,139.266 560.876,141.0285 560.167,142.529 L560.167,142.529 Z" id="Fill-108" fill="#544853"></path>
        <path d="M553.791,121.8295 C550.453,122.9915 551.5535,128.711 555.537,127.547 C559.2795,126.4515 557.2235,120.6315 553.791,121.8295 Z M555.0695,126.2295 C553.6495,126.7175 552.4345,124.1655 554.0265,123.362 C555.785,122.474 556.623,125.695 555.0695,126.2295 L555.0695,126.2295 Z" id="Fill-109" fill="#544853"></path>
        <path d="M4.955,257.957 C3.084,257.474 1.424,257.526 0,257.957 L0,260.393 C1.1885,259.7745 2.575,259.5005 4.068,259.768 C12.366,262.419 6.5935,274.4075 0,272.1495 L0,273.8265 C0.766,274.009 1.6095,274.111 2.539,274.112515 C12.75,274.129 13.8,260.8245 4.955,257.957" id="Fill-110" fill="#544853"></path>
        <path d="M4.158,251.7475 C6.4845,247.3215 3.413,243.897 0,243.562 L0,245.304 C2.039,245.4225 3.879,247.0465 2.9195,249.9235 C2.304,251.77 1.1805,252.6475 0,252.857 L0,254.966 C1.5135,254.8395 3.029,253.895 4.158,251.7475" id="Fill-111" fill="#544853"></path>
        <path d="M32.9395,233.5345 C30.0045,237.62 36.473,243.2185 39.3655,237.7145 C41.876,232.9385 35.525,229.808 32.9395,233.5345 Z M38.21,236.347 C36.906,240.2605 31.975,237.282 34.26,234.4145 C35.5815,232.5665 39.1805,233.4355 38.21,236.347 L38.21,236.347 Z" id="Fill-112" fill="#544853"></path>
        <path d="M11.908,244.551 C4.7045,250.9305 11.48,265.211 21.046,260.1615 C31.499,254.008 22.9295,234.5915 11.908,244.551 Z M21.0785,257.439 C14.247,263.149 7.094,251.6785 12.987,246.3335 C20.614,238.3985 28.333,251.836 21.0785,257.439 L21.0785,257.439 Z" id="Fill-113" fill="#544853"></path>
        <path d="M20.503,219.978 C16.012,226.4415 24.2975,237.3485 30.9435,230.5455 C38.4385,223.599 27.653,210.668 20.503,219.978 Z M28.453,229.5645 C23.103,233.3465 19.072,224.103 22.674,220.4145 C29.004,214.2565 35.4815,226.327 28.453,229.5645 L28.453,229.5645 Z" id="Fill-114" fill="#544853"></path>
        <path d="M5.4045,148.951 L3.776,139.979 C3.62,139.1115 3.846,137.7875 4.284,137.022 L6.442,133.2405 C6.8805,132.474 6.5225,131.7905 5.645,131.71 L2.6695,131.4395 C1.8115,131.36 0.635,130.8145 0,130.208 L0,132.5895 C0.636,133.1965 1.852,133.662 2.727,133.6265 L2.809,133.6255 C3.69,133.5905 3.9955,134.1505 3.492,134.874 L2.7435,135.948 C2.239,136.671 1.9325,137.966 2.0575,138.839 L2.6345,142.854 C2.759,143.7275 2.469,143.8375 1.985,143.1 L0,140.0745 L0,142.831 L4.741,149.238 C5.2645,149.9455 5.563,149.818 5.4045,148.951" id="Fill-115" fill="#544853"></path>
        <path d="M26.568,121.389 L23.578,119.3135 C22.8525,118.811 22.255,117.689 22.241,116.8065 L22.1,108.028 C22.085,107.1465 21.768,107.079 21.3915,107.875 L17.4965,116.12 C17.119,116.9165 16.1655,117.862 15.365,118.2295 L11.409,120.05 C10.607,120.419 10.499,121.1835 11.1685,121.7605 L13.43,123.7115 C14.098,124.286 14.757,125.4575 14.9,126.329 L16.098,133.5645 C16.2425,134.434 16.6665,134.495 17.046,133.699 L20.305,126.857 C20.6845,126.06 21.642,125.1205 22.4465,124.7555 L26.425,122.956 C27.227,122.594 27.292,121.892 26.568,121.389 Z M22.452,122.4075 L21.167,122.77 C20.3195,123.0115 19.3485,123.861 18.9995,124.671 L17.7595,127.5485 C17.4105,128.3565 17,128.311 16.841,127.444 L16.2765,124.3455 C16.118,123.479 15.393,122.383 14.6565,121.896 L14.5885,121.8525 C13.8525,121.3675 13.929,120.734 14.7585,120.4385 L15.9935,120 C16.8235,119.704 17.826,118.8295 18.2315,118.048 L20.0995,114.4445 C20.505,113.6605 20.8055,113.7405 20.77,114.6235 L20.6135,118.5375 C20.578,119.4175 21.179,120.47 21.9575,120.886 L22.5805,121.22 C23.357,121.6355 23.3,122.1675 22.452,122.4075 L22.452,122.4075 Z" id="Fill-116" fill="#544853"></path>
        <path d="M61.4725,170.234 C60.762,169.8445 60.345,170.61 60.653,171.3585 C61.762,174.0575 62.3245,176.876 62.197,179.7725 C62.1605,180.582 62.619,180.8305 63.029,180.1325 C64.7395,177.2145 63.8035,171.5145 61.4725,170.234" id="Fill-117" fill="#544853"></path>
        <path d="M46.906,157.31 C45.8055,156.794 45.658,157.112 46.579,157.904 C54.7415,164.923 56.403,176.939 53.8065,187.498 C53.516,188.6785 53.817,188.827 54.3725,187.7475 C58.9675,178.8245 56.8665,161.9615 46.906,157.31" id="Fill-118" fill="#544853"></path>
        <path d="M11.3565,187.7155 C12.401,199.5065 9.594,205.66 8.3455,213.0115 C8.2125,213.798 8.4595,214.0075 8.8415,213.426 C12.97,207.148 14.2915,197.927 13.2885,188.922 C13.268,187.0455 11.2385,186.3975 11.3565,187.7155" id="Fill-119" fill="#544853"></path>
        <path d="M5.226,218.626 C6.5905,216.121 2.797,214.2065 0,213.374 L0,214.3755 C4.751,216.4205 3.4965,219.5115 0,222.472 L0,224.41 C2.28,222.6515 4.087,220.7165 5.226,218.626" id="Fill-120" fill="#544853"></path>
        <path d="M18.8685,196.7135 C18.0955,177.678 11.645,168.9255 0,162.283 L0,165.0325 C3.8655,167.3495 7.2615,170.211 8.991,174.0085 C5.9605,174.23 2.968,174.644 0,175.189 L0,176.809 C3.6935,176.0395 7.301,175.706 9.92,176.511 C10.4015,178.276 11.053,181.2515 8.7565,182.006 C8.0225,177.4905 3.5025,176.588 0,178.1425 L0,180.3405 C2.13,178.787 6.9905,179.3255 6.3,182.594 C5.798,185.032 2.019,185.4755 0,184.417 L0,186.3955 C0.403,186.603 0.323,187.229 0,187.7295 L0,190.614 C5.229,188.09 9.85,184.7375 12.8835,180.2955 C21.851,196.539 14.5485,216.427 0,226.9925 L0,229.7455 C11.255,222.361 19.4225,210.3505 18.8685,196.7135" id="Fill-121" fill="#544853"></path>
        <path d="M586.6925,595.296 C587.547,583.54 583.954,565.338 593.452,559.87 C595.3965,558.7505 597.623,557.584 600,556.5355 L600,554.3055 C598.568,554.8485 597.1655,555.403 595.8075,555.9295 C584.1925,560.4355 583.6115,575.3185 584.704,585.9305 C585.1145,589.915 584.8505,595.241 585.1045,600 L586.623,600 C586.5455,598.2465 586.5995,596.573 586.6925,595.296" id="Fill-122" fill="#544853"></path>
        <path d="M110.7655,560.418 C93.2535,560.7715 86.571,578.7395 76.336,589.502 C70.5925,589.079 64.78,585.16 58.6135,584.802 C58.8335,581.3885 62.295,583.1055 64.24,582.51 C65.244,582.202 66.129,581.0225 65.341,578.756 C64.7225,576.9745 60.09,576.8935 56.4305,576.4895 C52.6525,576.0715 49.1005,575.574 46.862,577.841 C44.451,581.586 48.135,581.292 50.2895,581.71 C51.6745,581.9785 52.0635,584.451 50.52,584.664 C44.528,585.794 38.353,585.673 32.3505,586.878 C32.327,582.7625 32.7915,579.1795 32.8435,574.378 C32.9285,566.921 31.6355,558.212 24.87,553.217 C17.1095,548.5535 8.0665,551.2475 0,554.3055 L0,556.536 C8.9585,552.584 20.0745,550.333 26.463,558.8195 C29.018,561.2335 31.399,569.7715 31.266,574.5725 C31.142,578.995 31.9085,585.662 28.3815,587.759 C23.23,589.798 18.2575,592.5985 14.111,595.9425 C10.509,586.467 18.947,575.334 16.014,565.793 C15.7415,564.909 15.3935,564.9765 15.3435,565.9005 C14.7265,577.22 12.009,590.5465 4.956,600 L6.4795,600 C8.2015,597.6265 9.68,595.336 10.7895,593.635 C12.5445,595.8 12.0645,597.929 11.012,600 L13.7825,600 C14.0595,599.6015 14.338,599.2045 14.6265,598.8165 C24.3765,588.128 40.1655,586.594 53.8,587.202 C65.3525,587.4215 76.6935,592.289 85.4365,600 L89.398,600 C85.805,596.8035 82.0745,593.619 77.558,591.6925 C87.3685,581.41 93.4145,564.51 109.7225,563.244 C119.824,561.7265 129.0365,571.509 128.3075,581.4035 C127.5835,587.529 126.2485,594.3205 123.283,600 L125.7385,600 C128.022,595.0305 129.33,589.497 130.117,584.2285 C133.1665,572.4875 123.3725,558.9395 110.7655,560.418 Z M56.4125,584.5245 C56.361,585.215 53.691,585.286 53.553,584.453 C53.2825,582.8215 54.918,579.155 51.2395,579.5645 C47.776,579.952 48.1175,578.8 50,578.2305 C51.3975,577.8095 53.8525,577.9465 55.1355,578.0215 C58.2015,578.2 61.4745,578.38 63.75,579.8165 C64.243,580.127 63.6095,580.948 63.2765,581.038 C61.8595,581.423 60.02,580.669 58.264,580.6945 C56.9675,580.712 56.5955,581.9875 56.4125,584.5245 L56.4125,584.5245 Z" id="Fill-123" fill="#544853"></path>
        <path d="M100.3085,575.625 C100.1885,574.707 99.803,574.667 99.621,575.574 C98.1685,582.812 102.6705,594.3725 95.428,600 L97.8105,600 C98.8505,599.0965 99.874,598.177 100.652,597.1035 C101.182,598.066 101.732,599.035 102.304,600 L105.398,600 C101.7925,592.744 101.3585,583.5935 100.3085,575.625" id="Fill-124" fill="#544853"></path>
        <path d="M30.324,600 L33.375,600 C39.4285,596.424 46.3195,594.73 53.6595,594.623 C60.1405,594.528 66.255,596.5535 71.297,600 L74.298,600 C68.842,595.448 61.9255,592.7395 54.4635,592.9065 C46.217,593.093 37.146,595.3245 30.324,600" id="Fill-125" fill="#544853"></path>
        <path d="M53.288,600 L54.046,600 C53.7955,599.908 53.5335,599.918 53.288,600" id="Fill-126" fill="#544853"></path>
        <path d="M594.7385,8.871 C588.504,12.1195 586.8725,5.6445 586.623,0 L585.1045,0 C585.385,5.2625 586.2995,9.8305 589.466,11.1145 C592.9305,12.52 596.6075,10.632 600,7.527 L600,5.3175 C598.4025,6.6745 596.655,7.8725 594.7385,8.871" id="Fill-127" fill="#544853"></path>
        <path d="M6.48,0 L4.956,0 C3.4965,1.9565 1.8505,3.7455 0,5.318 L0,7.5275 C2.353,5.3735 4.5675,2.6365 6.48,0" id="Fill-128" fill="#544853"></path>
        <path d="M91.637,1.9925 C90.893,1.3355 90.148,0.6675 89.3975,0 L85.436,0 C90.4715,4.441 94.648,9.8225 97.499,15.8095 C104.8155,36.1375 88.3925,56.117 69.963,63.047 C51.477,68.844 27.904,67.8745 13.2765,53.7655 C1.198,38.417 2.969,15.551 13.7825,0 L11.012,0 C10.127,1.7415 8.8375,3.442 8.1285,5.0865 C-0.942,22.717 -0.683,48.9045 17.2585,60.93 C15.1725,65.7555 10.2605,68.726 7.948,73.1385 C6.256,79.7555 16.641,79.961 17.9685,74.578 C18.2135,70.1295 23.1815,68.5885 24.815,64.78 C37.939,68.454 52.1045,69.7725 65.505,67.0305 C67.2165,69.5285 70.2515,73.372 69.0075,74.984 C67.3105,77.1815 67.6335,81.9835 73.124,82.7765 C79.9785,83.768 79.4565,74.5135 77.1815,72.258 C76.2635,71.3505 72.741,64.1985 79.0765,60.4565 C98.6815,51.0725 110.326,22.0105 93.589,4.872 C94.3885,2.893 96.1215,1.4675 97.8105,0 L95.4285,0 C94.412,0.7905 93.166,1.465 91.637,1.9925 Z M13.1495,76.0215 C9.6065,77.414 9.303,70.9655 12.8135,71.667 C16.1975,70.785 16.7385,76.295 13.1495,76.0215 Z M13.985,68.9505 C15.749,66.753 17.6495,64.667 19.255,62.3355 C27.2365,62.957 16.0485,73.3945 13.985,68.9505 Z M68.9315,66.414 C69.7735,65.4765 71.013,65.0205 72.731,65.0075 C73.7155,66.833 73.5055,69.853 74.8325,72.2695 C73.594,72.9695 71.77,73.1285 71.0535,72.219 C69.4885,70.236 68.3565,67.053 68.9315,66.414 Z M74.5325,81.075 C70.632,81.9895 68.63,75.594 73.521,74.9015 C76.756,74.4445 77.8605,80.298 74.5325,81.075 L74.5325,81.075 Z" id="Fill-129" fill="#544853"></path>
        <path d="M114.518,9.563 C110.1745,7.238 107.3315,3.891 105.398,0 L102.304,0 C105.374,5.18 109.1355,10.198 114.58,12.9395 C119.7765,9.9355 123.3095,5.287 125.7385,0 L123.283,0 C121.2435,3.9065 118.4325,7.2875 114.518,9.563" id="Fill-130" fill="#544853"></path>
        <path d="M63.4025,3.702 C62.0575,4.743 60.8765,6.468 61.434,7.4825 C61.879,8.293 63.3545,7.6875 63.9815,7.0085 C65.0295,5.8735 66.2975,4.422 66.2185,3.584 C66.1325,2.6625 64.1335,3.1365 63.4025,3.702" id="Fill-131" fill="#544853"></path>
        <path d="M62.231,42.936 C61.3845,42.565 60.3385,43.4205 60.538,44.324 C60.918,46.046 62.6805,47.2395 64.2695,48.3075 C65.0385,48.823 65.79,48.512 65.6205,47.6035 C65.2685,45.7055 63.91,43.6725 62.231,42.936" id="Fill-132" fill="#544853"></path>
        <path d="M73.118,13.426 C72.4255,13.7065 71.7005,13.94 71.0525,14.26 C70.223,14.669 69.7195,16.25 70.594,16.5505 C72.4945,17.2065 76.7145,14.1065 76.154,13.004 C75.7335,12.179 73.9755,13.081 73.118,13.426" id="Fill-133" fill="#544853"></path>
        <path d="M53.047,8.902 C52.8055,8.0095 52.319,7.9735 51.9525,8.823 L49.2585,15.1045 C48.8945,15.9535 48.732,17.381 48.8975,18.291 L50.3105,26.064 C50.476,26.9725 50.0195,28.1725 49.2895,28.7415 L43.807,32.4855 C43.079,33.0535 42.0535,34.126 41.5175,34.8805 L36.3275,42.5625 C35.7905,43.316 35.977,43.5045 36.741,42.9845 L44.288,37.6355 C45.052,37.114 46.1,36.0775 46.63,35.3195 L50.5375,29.2915 C51.068,28.533 51.7435,27.21 52.047,26.3355 L54.6985,18.725 C55.0025,17.8505 55.0555,16.4195 54.817,15.5255 L53.047,8.902" id="Fill-134" fill="#544853"></path>
        <path d="M19.614,46.69 C26.8955,59.452 41.8775,61.273 54.6805,58.9085 C73.132,55.4995 90.2035,36.627 85.063,16.977 C83.3015,10.2425 79.451,4.2995 74.2975,0 L71.297,0 C79.6945,5.74 85.1145,15.421 84.288,25.803 C82.327,50.41 50.946,66.1345 30.0715,54.3975 C13.273,44.9545 13.2035,16.925 27.78,4.0655 C29.5485,2.5055 31.419,1.156 33.376,0 L30.3245,0 C30.042,0.1935 29.757,0.384 29.4825,0.586 C15.7545,10.683 10.6495,30.9775 19.614,46.69" id="Fill-135" fill="#544853"></path>
        <path d="M48.22,48.4885 C47.546,50.046 47.3925,52.512 48.2435,53.8645 C48.737,54.647 49.5795,54.0425 49.778,53.1395 C50.1435,51.4665 50.827,49.4245 50.445,48.209 C50.168,47.3265 48.588,47.64 48.22,48.4885" id="Fill-136" fill="#544853"></path>
        <path d="M70.532,38.717 C69.738,38.2465 69.034,37.622 68.306,37.085 C67.562,36.537 65.7985,36.5085 65.9095,37.427 C66.113,39.1315 69.984,41.6725 71.4915,40.816 C72.295,40.3585 71.327,39.1895 70.532,38.717" id="Fill-137" fill="#544853"></path>
        <path d="M78.8865,29.856 C78.061,29.4405 76.5375,29.6 75.616,29.518 C74.5525,29.4245 73.404,29.1835 72.59,29.431 C71.7045,29.701 72.0055,31.3 72.9025,31.519 C75.5595,32.17 80.795,30.8145 78.8865,29.856" id="Fill-138" fill="#544853"></path>
        <path d="M30.7085,46.5295 C29.8995,47.503 29.1005,48.575 28.804,49.708 C28.5685,50.6025 29.5395,51.2615 30.305,50.7435 C32.192,49.467 34.394,46.584 33.375,45.5795 C32.7175,44.9305 31.297,45.817 30.7085,46.5295" id="Fill-139" fill="#544853"></path>
        <path d="M52.337,1.0795 C51.7185,4.1985 53.4655,4.1425 54.491,3.1185 C55.2565,2.3555 55.621,1.056 54.3085,0.1335 C54.224,0.074 54.135,0.033 54.0455,0 L53.289,0 C52.8325,0.1515 52.441,0.5545 52.337,1.0795" id="Fill-140" fill="#544853"></path>
        <path d="M27.6745,38.5325 C26.845,38.121 25.4045,38.2425 24.5895,38.682 C21.532,40.3305 23.9395,40.722 26.0925,40.414 C27.872,40.16 29.4785,39.427 27.6745,38.5325" id="Fill-141" fill="#544853"></path>
        <path d="M37.2845,4.759 C36.6135,4.1225 35.025,4.1345 35.1265,5.054 C35.298,6.596 37.407,8.8975 38.8805,9.199 C39.787,9.384 39.7395,7.828 39.2005,7.076 C38.6165,6.2565 37.9925,5.431 37.2845,4.759" id="Fill-142" fill="#544853"></path>
        <path d="M26.28,15.74 C25.4985,15.2445 24.166,15.008 24.0615,15.9275 C23.9075,17.261 25.911,18.6765 27.6365,19.392 C28.4915,19.747 30.255,19.767 30.57,18.8975 C30.944,17.8605 28.09,16.8885 26.28,15.74" id="Fill-143" fill="#544853"></path>
        <path d="M24.931,25.5395 C23.9685,25.402 22.9655,25.446 21.9755,25.4885 C21.052,25.528 19.4655,25.907 19.2845,26.8145 C18.924,28.626 24.0175,29.1755 25.874,27.4755 C26.556,26.851 25.8455,25.671 24.931,25.5395" id="Fill-144" fill="#544853"></path>
        <path d="M482.0115,500.538 C480.7205,500.5285 473.208,497.8625 475.134,490.7615 C482.627,470.3595 470.6885,441.419 446.7405,440.8205 C445.4335,437.629 446.88,433.7705 446.377,430.328 C453.073,432.3635 460.5095,434.13 467.4035,431.952 C470.5585,420.744 464.923,409.467 458.498,400.546 C452.4885,390.007 436.0195,387.1385 428.0225,396.996 C415.7245,409.469 423.4775,427.001 423.6575,441.8535 C419.248,445.5575 412.3495,446.8065 407.6825,450.8535 C405.459,448.255 409.1355,447.0695 410.1135,445.285 C410.617,444.3645 410.4285,442.9025 408.283,441.828 C406.5975,440.9835 403.2215,444.159 400.3185,446.423 C397.3205,448.759 394.4305,450.883 394.408,454.0685 C395.295,458.4325 397.7285,455.6515 399.5635,454.4485 C400.743,453.673 402.746,455.174 401.79,456.4025 C398.286,461.3935 393.7795,465.615 390.3205,470.667 C387.4325,467.7355 385.2645,464.8455 381.951,461.37 C376.8075,455.97 369.8045,450.635 361.4725,451.7765 C351.095,454.22 346.5605,465.214 342.55,474 C337.375,485.333 347.344,496.3995 355.5325,503.2375 C362.007,508.6455 370.493,520.408 376.5165,517.953 C384.543,514.6805 381.05,497.952 379.5925,490.5535 C384.6895,491.1545 384.2775,496.951 385.6775,500.6115 C391.4835,519.5695 409.9445,538.1465 431.1865,534.2395 C433.0595,539.1505 431.6145,544.707 433.038,549.4815 C436.4435,555.4015 444.0255,548.303 441.2185,543.5185 C438.29,540.162 440.7725,535.591 439.285,531.7235 C451.249,525.1985 462.3155,516.256 469.999,504.9415 C472.9685,505.536 477.826,506.17 478.0595,508.1935 C478.377,510.952 481.959,514.166 486.4455,510.9025 C492.047,506.829 485.216,500.5645 482.0115,500.538 Z M429.246,399.747 C435.423,391.6105 448.8475,392.1905 455.2315,399.785 C461.5705,408.042 467.9885,418.874 465.005,429.576 C451.4435,433.4905 440.841,422.827 431.1435,415.1845 C430.418,414.6115 430.1125,414.8515 430.617,415.628 C435.1885,422.6955 449.2365,428.385 443.333,440.12 C437.5935,440.4035 431.5955,440.427 426.0605,442.5685 C425.911,428.3575 418.449,412.033 429.246,399.747 Z M398.746,452.248 C396.536,454.9405 395.9765,453.878 396.9285,452.1575 C397.6355,450.881 399.4885,449.2655 400.461,448.424 C402.78,446.412 405.251,444.257 407.883,443.6985 C408.453,443.576 408.573,444.6075 408.3965,444.9035 C407.6495,446.168 405.8055,446.911 404.5655,448.1555 C403.6505,449.0715 404.2735,450.245 405.912,452.1905 C406.3585,452.7215 404.494,454.636 403.8155,454.135 C402.4825,453.1545 401.0955,449.3885 398.746,452.248 Z M383.582,489.8875 C374.3885,485.6135 372.664,471.753 363.905,466.966 C363.0935,466.5235 362.8915,466.8135 363.5,467.511 C373.833,479.34 383.9695,496.744 378.7275,512.667 C375.8465,521.419 366.9705,512.6905 363.492,508.5585 C355.9005,499.541 340.626,489.0115 343.6125,478.467 C346.5285,468.173 353.241,452.631 366.5235,454.6785 C370.038,454.625 377.701,459.079 380.954,462.6095 C383.955,465.8635 389.156,470.1065 388.092,474.0685 C385.825,479.124 384.22,484.5995 383.582,489.8875 Z M433.5965,533.8525 C439.748,528.7275 439.0185,544.0125 434.4385,542.2695 C434.168,539.463 434.074,536.6435 433.5965,533.8525 Z M438.7745,547.916 C437.209,551.386 432.491,546.9795 435.495,545.0315 C437.3045,542.039 441.537,545.6085 438.7745,547.916 Z M423.335,531.8865 C403.4765,529.255 388.5295,510.797 385.956,491.587 C385.4815,477.127 395.72,465.01 405.91,455.9315 C419.1925,443.4745 440.1535,439.6365 457.173,445.926 C476.6005,455.382 478.7785,481.1535 470.414,498.9775 C461.219,516.0295 443.657,531.785 423.335,531.8865 Z M477.5955,504.785 C475.091,504.457 472.0585,502.968 472.0245,502.1085 C471.9735,500.8485 472.544,499.6575 473.7645,498.449 C475.743,499.0705 477.701,501.38 480.336,502.1845 C479.9395,503.552 478.743,504.9365 477.5955,504.785 Z M486.2675,508.702 C484.1125,512.077 478.214,508.8935 481.2345,504.9865 C483.2335,502.4005 488.1085,505.8215 486.2675,508.702 L486.2675,508.702 Z" id="Fill-145" fill="#544853"></path>
        <path d="M424.3025,461.049 C424.0645,462.7325 424.424,464.792 425.53,465.131 C426.414,465.4005 427.049,463.9355 427.0245,463.0135 C426.9825,461.468 426.878,459.544 426.2365,458.999 C425.5325,458.3985 424.4305,460.134 424.3025,461.049" id="Fill-146" fill="#544853"></path>
        <path d="M456.5265,490.9455 C454.95,489.831 452.5575,489.3225 450.8425,489.967 C449.9765,490.293 449.824,491.6365 450.5975,492.1435 C452.0715,493.1125 454.166,492.7365 456.05,492.3915 C456.96,492.2245 457.282,491.4785 456.5265,490.9455" id="Fill-147" fill="#544853"></path>
        <path d="M439.926,458.8135 C439.05,458.5145 438.421,460.3885 438.047,461.2335 C437.745,461.918 437.3905,462.59 437.1485,463.2725 C436.841,464.1435 437.584,465.629 438.42,465.2335 C440.2385,464.377 441.0975,459.212 439.926,458.8135" id="Fill-148" fill="#544853"></path>
        <path d="M432.9445,488.3555 C432.795,487.4425 432.3545,486.0215 431.963,485.1845 L428.551,477.884 C428.158,477.045 427.197,475.9815 426.4035,475.509 L420.5135,471.999 C419.7175,471.5285 419.3435,471.843 419.675,472.707 L422.128,479.085 C422.46,479.9485 423.339,481.084 424.094,481.62 L430.5295,486.202 C431.282,486.7365 431.793,487.915 431.667,488.832 L430.3525,495.34 C430.2275,496.255 430.241,497.7375 430.384,498.6525 L432.0275,507.7765 C432.169,508.6915 432.4335,508.6965 432.618,507.791 L434.29,498.6925 C434.4735,497.786 434.502,496.3105 434.3525,495.3995 L432.9445,488.3555" id="Fill-149" fill="#544853"></path>
        <path d="M449.08,455.4405 C436.8085,448.042 420.532,449.1955 410.366,459.5535 C404.3505,465.6865 399.2315,474.0305 397.832,482.4875 C395.046,499.298 405.551,517.3985 422.9365,522.3975 C437.0585,526.456 449.0595,517.3045 456.58,506.677 C467.417,491.3595 466.4735,465.9295 449.08,455.4405 Z M435.8055,520.619 C417.1825,525.578 397.574,505.55 399.041,486.168 C399.7695,476.542 404.13,468.2245 410.9875,461.344 C423.1855,449.1065 444.037,449.4795 454.6835,462.3035 C470.452,481.298 458.947,514.459 435.8055,520.619 L435.8055,520.619 Z" id="Fill-150" fill="#544853"></path>
        <path d="M446.08,501.97 C445.2655,501.5305 444.3525,502.8585 444.6815,503.7215 C445.285,505.3075 446.8965,507.1815 448.449,507.5565 C449.3495,507.7725 449.53,506.752 449.042,505.967 C448.1365,504.5125 447.201,502.5735 446.08,501.97" id="Fill-151" fill="#544853"></path>
        <path d="M453.8435,481.1525 C452.9455,481.371 452.005,481.413 451.1095,481.538 C450.1945,481.664 448.912,482.875 449.633,483.456 C450.967,484.533 455.5125,483.6525 455.995,481.9875 C456.251,481.0995 454.742,480.9375 453.8435,481.1525" id="Fill-152" fill="#544853"></path>
        <path d="M453.6445,468.9765 C452.7615,469.256 451.7825,470.4315 451.0645,471.0175 C450.2385,471.6915 449.246,472.3205 448.838,473.0665 C448.3915,473.877 449.7225,474.8135 450.5175,474.343 C452.875,472.955 455.6795,468.331 453.6445,468.9765" id="Fill-153" fill="#544853"></path>
        <path d="M432.0185,511.998977 C431.0935,511.992 430.6955,513.617 430.7715,514.54 C430.87,515.801 431.047,517.126 431.624,518.1445 C432.08,518.95 433.2355,518.745 433.422,517.839 C433.883,515.6075 433.448,512.006 432.0185,511.998977" id="Fill-154" fill="#544853"></path>
        <path d="M415.298,464.838 C414.3845,464.9865 414.042,466.1155 414.546,466.8915 C416.2795,469.5565 417.492,468.298 417.5115,466.8485 C417.5295,465.7695 416.882,464.584 415.298,464.838" id="Fill-155" fill="#544853"></path>
        <path d="M423.0165,510.9285 C422.1355,511.213 421.1895,512.3035 420.911,513.1885 C419.872,516.503 421.87,515.1025 423.198,513.381 C424.295,511.955 424.9335,510.3115 423.0165,510.9285" id="Fill-156" fill="#544853"></path>
        <path d="M409.3215,480.3545 C408.332,480.176 407.3085,480.0185 406.331,480.0315 C405.4075,480.044 404.2785,481.16 404.993,481.747 C406.1915,482.7355 409.3085,482.911 410.575,482.0985 C411.3525,481.5965 410.2325,480.5155 409.3215,480.3545" id="Fill-157" fill="#544853"></path>
        <path d="M406.1135,495.576 C405.208,495.7675 404.088,496.5265 404.6545,497.259 C405.4755,498.3195 407.8985,497.9375 409.634,497.246 C410.494,496.9035 411.7705,495.6875 411.3895,494.845 C410.9325,493.841 408.211,495.136 406.1135,495.576" id="Fill-158" fill="#544853"></path>
        <path d="M411.9855,503.537 C411.199,504.1105 410.5125,504.842 409.832,505.5615 C409.199,506.2345 408.327,507.6135 408.831,508.3895 C409.836,509.9385 413.868,506.7785 414.0115,504.2645 C414.0655,503.343 412.7325,502.992 411.9855,503.537" id="Fill-159" fill="#544853"></path>
    </g>
</svg>